<mxfile host="app.diagrams.net" modified="2023-07-10T14:13:40.193Z" agent="Mozilla/5.0 (Windows NT 10.0; Win64; x64) AppleWebKit/537.36 (KHTML, like Gecko) Chrome/114.0.0.0 Safari/537.36" etag="W3-da54YCCwVpidY6q7i" version="21.6.1" type="github">
  <diagram id="C5RBs43oDa-KdzZeNtuy" name="Page-1">
    <mxGraphModel dx="4070" dy="2147" grid="1" gridSize="10" guides="1" tooltips="1" connect="1" arrows="1" fold="1" page="1" pageScale="1" pageWidth="827" pageHeight="1169" math="0" shadow="0">
      <root>
        <mxCell id="WIyWlLk6GJQsqaUBKTNV-0" />
        <mxCell id="WIyWlLk6GJQsqaUBKTNV-1" parent="WIyWlLk6GJQsqaUBKTNV-0" />
        <mxCell id="OdRXh-BIDO6TWCTbir-k-11" value="头文件中定义了相关的结构体与回调函数" style="shape=note;whiteSpace=wrap;html=1;backgroundOutline=1;darkOpacity=0.05;" vertex="1" parent="WIyWlLk6GJQsqaUBKTNV-1">
          <mxGeometry x="586.81" y="50" width="120" height="100" as="geometry" />
        </mxCell>
        <mxCell id="OdRXh-BIDO6TWCTbir-k-15" value="" style="edgeStyle=orthogonalEdgeStyle;rounded=0;orthogonalLoop=1;jettySize=auto;html=1;" edge="1" parent="WIyWlLk6GJQsqaUBKTNV-1" source="OdRXh-BIDO6TWCTbir-k-12" target="OdRXh-BIDO6TWCTbir-k-14">
          <mxGeometry relative="1" as="geometry" />
        </mxCell>
        <mxCell id="OdRXh-BIDO6TWCTbir-k-86" style="edgeStyle=orthogonalEdgeStyle;rounded=0;orthogonalLoop=1;jettySize=auto;html=1;exitX=1;exitY=0.5;exitDx=0;exitDy=0;fontFamily=Helvetica;fontSize=12;fontColor=default;" edge="1" parent="WIyWlLk6GJQsqaUBKTNV-1" source="OdRXh-BIDO6TWCTbir-k-12" target="OdRXh-BIDO6TWCTbir-k-11">
          <mxGeometry relative="1" as="geometry" />
        </mxCell>
        <mxCell id="OdRXh-BIDO6TWCTbir-k-12" value="ed_args.h" style="rounded=1;whiteSpace=wrap;html=1;fontSize=12;glass=0;strokeWidth=1;shadow=0;" vertex="1" parent="WIyWlLk6GJQsqaUBKTNV-1">
          <mxGeometry x="407.80999999999995" y="80" width="120" height="40" as="geometry" />
        </mxCell>
        <mxCell id="OdRXh-BIDO6TWCTbir-k-19" value="" style="edgeStyle=orthogonalEdgeStyle;rounded=0;orthogonalLoop=1;jettySize=auto;html=1;fontFamily=Helvetica;fontSize=12;fontColor=default;" edge="1" parent="WIyWlLk6GJQsqaUBKTNV-1" source="OdRXh-BIDO6TWCTbir-k-14" target="OdRXh-BIDO6TWCTbir-k-18">
          <mxGeometry relative="1" as="geometry" />
        </mxCell>
        <mxCell id="OdRXh-BIDO6TWCTbir-k-85" style="edgeStyle=orthogonalEdgeStyle;rounded=0;orthogonalLoop=1;jettySize=auto;html=1;exitX=1;exitY=0.5;exitDx=0;exitDy=0;entryX=0;entryY=0.5;entryDx=0;entryDy=0;entryPerimeter=0;fontFamily=Helvetica;fontSize=12;fontColor=default;" edge="1" parent="WIyWlLk6GJQsqaUBKTNV-1" source="OdRXh-BIDO6TWCTbir-k-14" target="OdRXh-BIDO6TWCTbir-k-16">
          <mxGeometry relative="1" as="geometry" />
        </mxCell>
        <mxCell id="OdRXh-BIDO6TWCTbir-k-14" value="&lt;div style=&quot;color: rgb(212, 212, 212); background-color: rgb(30, 30, 30); font-family: Consolas, &amp;quot;Courier New&amp;quot;, monospace; font-size: 17px; line-height: 23px;&quot;&gt;&lt;div&gt;#ifndef&lt;span style=&quot;color: #569cd6;&quot;&gt; _ED_ARGS_H_&lt;/span&gt;&lt;/div&gt;&lt;div&gt;&lt;span style=&quot;color: #c586c0;&quot;&gt;#define&lt;/span&gt;&lt;span style=&quot;color: #569cd6;&quot;&gt; &lt;/span&gt;&lt;span style=&quot;color: #569cd6;&quot;&gt;_ED_ARGS_H_&lt;/span&gt;&lt;/div&gt;&lt;/div&gt;" style="whiteSpace=wrap;html=1;rounded=1;glass=0;strokeWidth=1;shadow=0;" vertex="1" parent="WIyWlLk6GJQsqaUBKTNV-1">
          <mxGeometry x="353.30999999999995" y="210" width="229" height="110" as="geometry" />
        </mxCell>
        <mxCell id="OdRXh-BIDO6TWCTbir-k-16" value="头文件定义，防止重复包含" style="shape=note;whiteSpace=wrap;html=1;backgroundOutline=1;darkOpacity=0.05;" vertex="1" parent="WIyWlLk6GJQsqaUBKTNV-1">
          <mxGeometry x="656.81" y="215" width="120" height="100" as="geometry" />
        </mxCell>
        <mxCell id="OdRXh-BIDO6TWCTbir-k-26" value="" style="edgeStyle=orthogonalEdgeStyle;rounded=0;orthogonalLoop=1;jettySize=auto;html=1;fontFamily=Helvetica;fontSize=12;fontColor=default;" edge="1" parent="WIyWlLk6GJQsqaUBKTNV-1" source="OdRXh-BIDO6TWCTbir-k-18" target="OdRXh-BIDO6TWCTbir-k-25">
          <mxGeometry relative="1" as="geometry" />
        </mxCell>
        <mxCell id="OdRXh-BIDO6TWCTbir-k-84" style="edgeStyle=orthogonalEdgeStyle;rounded=0;orthogonalLoop=1;jettySize=auto;html=1;exitX=1;exitY=0.5;exitDx=0;exitDy=0;fontFamily=Helvetica;fontSize=12;fontColor=default;" edge="1" parent="WIyWlLk6GJQsqaUBKTNV-1" source="OdRXh-BIDO6TWCTbir-k-18" target="OdRXh-BIDO6TWCTbir-k-23">
          <mxGeometry relative="1" as="geometry" />
        </mxCell>
        <mxCell id="OdRXh-BIDO6TWCTbir-k-18" value="&lt;div style=&quot;color: rgb(212, 212, 212); background-color: rgb(30, 30, 30); font-family: Consolas, &amp;quot;Courier New&amp;quot;, monospace; font-size: 17px; line-height: 23px;&quot;&gt;#include&lt;span style=&quot;color: #569cd6;&quot;&gt; &lt;/span&gt;&lt;span style=&quot;color: #ce9178;&quot;&gt;&amp;lt;argp.h&amp;gt;&lt;/span&gt;&lt;/div&gt;" style="whiteSpace=wrap;html=1;rounded=1;glass=0;strokeWidth=1;shadow=0;" vertex="1" parent="WIyWlLk6GJQsqaUBKTNV-1">
          <mxGeometry x="368.30999999999995" y="364" width="199" height="75" as="geometry" />
        </mxCell>
        <mxCell id="OdRXh-BIDO6TWCTbir-k-23" value="一定要包含的头文件" style="shape=note;whiteSpace=wrap;html=1;backgroundOutline=1;darkOpacity=0.05;" vertex="1" parent="WIyWlLk6GJQsqaUBKTNV-1">
          <mxGeometry x="640.81" y="351.5" width="120" height="100" as="geometry" />
        </mxCell>
        <mxCell id="OdRXh-BIDO6TWCTbir-k-30" value="" style="edgeStyle=orthogonalEdgeStyle;rounded=0;orthogonalLoop=1;jettySize=auto;html=1;fontFamily=Helvetica;fontSize=12;fontColor=default;" edge="1" parent="WIyWlLk6GJQsqaUBKTNV-1" source="OdRXh-BIDO6TWCTbir-k-25" target="OdRXh-BIDO6TWCTbir-k-29">
          <mxGeometry relative="1" as="geometry" />
        </mxCell>
        <mxCell id="OdRXh-BIDO6TWCTbir-k-83" style="edgeStyle=orthogonalEdgeStyle;rounded=0;orthogonalLoop=1;jettySize=auto;html=1;exitX=1;exitY=0.5;exitDx=0;exitDy=0;entryX=0;entryY=0.5;entryDx=0;entryDy=0;entryPerimeter=0;fontFamily=Helvetica;fontSize=12;fontColor=default;" edge="1" parent="WIyWlLk6GJQsqaUBKTNV-1" source="OdRXh-BIDO6TWCTbir-k-25" target="OdRXh-BIDO6TWCTbir-k-27">
          <mxGeometry relative="1" as="geometry" />
        </mxCell>
        <mxCell id="OdRXh-BIDO6TWCTbir-k-25" value="&lt;div style=&quot;color: rgb(212, 212, 212); background-color: rgb(30, 30, 30); font-family: Consolas, &amp;quot;Courier New&amp;quot;, monospace; font-size: 17px; line-height: 23px;&quot;&gt;&lt;div style=&quot;line-height: 23px;&quot;&gt;const &lt;span style=&quot;color: #569cd6;&quot;&gt;char&lt;/span&gt; *&lt;span style=&quot;color: #9cdcfe;&quot;&gt;argp_program_version&lt;/span&gt; = &lt;span style=&quot;color: #ce9178;&quot;&gt;&quot;edge_detect v0.1.0&quot;&lt;/span&gt;;&lt;/div&gt;&lt;/div&gt;" style="whiteSpace=wrap;html=1;rounded=1;glass=0;strokeWidth=1;shadow=0;" vertex="1" parent="WIyWlLk6GJQsqaUBKTNV-1">
          <mxGeometry x="293.55999999999995" y="517" width="348.5" height="75" as="geometry" />
        </mxCell>
        <mxCell id="OdRXh-BIDO6TWCTbir-k-27" value="全局变量，表示版本号" style="shape=note;whiteSpace=wrap;html=1;backgroundOutline=1;darkOpacity=0.05;" vertex="1" parent="WIyWlLk6GJQsqaUBKTNV-1">
          <mxGeometry x="686.81" y="505" width="120" height="100" as="geometry" />
        </mxCell>
        <mxCell id="OdRXh-BIDO6TWCTbir-k-35" value="" style="edgeStyle=orthogonalEdgeStyle;rounded=0;orthogonalLoop=1;jettySize=auto;html=1;fontFamily=Helvetica;fontSize=12;fontColor=default;" edge="1" parent="WIyWlLk6GJQsqaUBKTNV-1" source="OdRXh-BIDO6TWCTbir-k-29" target="OdRXh-BIDO6TWCTbir-k-34">
          <mxGeometry relative="1" as="geometry" />
        </mxCell>
        <mxCell id="OdRXh-BIDO6TWCTbir-k-82" style="edgeStyle=orthogonalEdgeStyle;rounded=0;orthogonalLoop=1;jettySize=auto;html=1;exitX=1;exitY=0.5;exitDx=0;exitDy=0;entryX=0;entryY=0.5;entryDx=0;entryDy=0;entryPerimeter=0;fontFamily=Helvetica;fontSize=12;fontColor=default;" edge="1" parent="WIyWlLk6GJQsqaUBKTNV-1" source="OdRXh-BIDO6TWCTbir-k-29" target="OdRXh-BIDO6TWCTbir-k-31">
          <mxGeometry relative="1" as="geometry" />
        </mxCell>
        <mxCell id="OdRXh-BIDO6TWCTbir-k-29" value="&lt;div style=&quot;color: rgb(212, 212, 212); background-color: rgb(30, 30, 30); font-family: Consolas, &amp;quot;Courier New&amp;quot;, monospace; font-size: 17px; line-height: 23px;&quot;&gt;&lt;div style=&quot;line-height: 23px;&quot;&gt;&lt;div style=&quot;line-height: 23px;&quot;&gt;&lt;div&gt;static &lt;span style=&quot;color: #569cd6;&quot;&gt;char&lt;/span&gt; &lt;span style=&quot;color: #9cdcfe;&quot;&gt;doc&lt;/span&gt;[] =&lt;/div&gt;&lt;div&gt;&lt;span style=&quot;color: #ce9178;&quot;&gt;&quot;Canny edge detector written in C++. &lt;/span&gt;&lt;span style=&quot;color: #d7ba7d;&quot;&gt;\n&lt;/span&gt;&lt;span style=&quot;color: #ce9178;&quot;&gt;\&lt;/span&gt;&lt;/div&gt;&lt;div&gt;&lt;span style=&quot;color: #ce9178;&quot;&gt;&amp;nbsp; &amp;nbsp; Takes an input bitmap (.bmp) image and outputs a bitmap image &lt;/span&gt;&lt;span style=&quot;color: #d7ba7d;&quot;&gt;\n&lt;/span&gt;&lt;span style=&quot;color: #ce9178;&quot;&gt;\&lt;/span&gt;&lt;/div&gt;&lt;div&gt;&lt;span style=&quot;color: #ce9178;&quot;&gt;&amp;nbsp; &amp;nbsp; containing strong edges only. &lt;/span&gt;&lt;span style=&quot;color: #d7ba7d;&quot;&gt;\n\n&lt;/span&gt;&lt;span style=&quot;color: #ce9178;&quot;&gt;\&lt;/span&gt;&lt;/div&gt;&lt;div&gt;&lt;span style=&quot;color: #ce9178;&quot;&gt;&amp;nbsp; &amp;nbsp; Supports serial and parallel execution of the algorithm. &lt;/span&gt;&lt;span style=&quot;color: #d7ba7d;&quot;&gt;\n&lt;/span&gt;&lt;span style=&quot;color: #ce9178;&quot;&gt;\&lt;/span&gt;&lt;/div&gt;&lt;div&gt;&lt;span style=&quot;color: #ce9178;&quot;&gt;&amp;nbsp; &amp;nbsp; Serial version runs on the host CPU, while the parallel version &lt;/span&gt;&lt;span style=&quot;color: #d7ba7d;&quot;&gt;\n&lt;/span&gt;&lt;span style=&quot;color: #ce9178;&quot;&gt;\&lt;/span&gt;&lt;/div&gt;&lt;div&gt;&lt;span style=&quot;color: #ce9178;&quot;&gt;&amp;nbsp; &amp;nbsp; supports execution on an NVIDIA GPU by using the CUDA C++ framework.&quot;&lt;/span&gt;;&lt;/div&gt;&lt;/div&gt;&lt;/div&gt;&lt;/div&gt;" style="whiteSpace=wrap;html=1;rounded=1;glass=0;strokeWidth=1;shadow=0;align=left;" vertex="1" parent="WIyWlLk6GJQsqaUBKTNV-1">
          <mxGeometry x="101.18999999999994" y="640" width="733.25" height="268" as="geometry" />
        </mxCell>
        <mxCell id="OdRXh-BIDO6TWCTbir-k-31" value="文档介绍" style="shape=note;whiteSpace=wrap;html=1;backgroundOutline=1;darkOpacity=0.05;" vertex="1" parent="WIyWlLk6GJQsqaUBKTNV-1">
          <mxGeometry x="916.81" y="724" width="120" height="100" as="geometry" />
        </mxCell>
        <mxCell id="OdRXh-BIDO6TWCTbir-k-39" value="" style="edgeStyle=orthogonalEdgeStyle;rounded=0;orthogonalLoop=1;jettySize=auto;html=1;fontFamily=Helvetica;fontSize=12;fontColor=default;" edge="1" parent="WIyWlLk6GJQsqaUBKTNV-1" source="OdRXh-BIDO6TWCTbir-k-34" target="OdRXh-BIDO6TWCTbir-k-38">
          <mxGeometry relative="1" as="geometry" />
        </mxCell>
        <mxCell id="OdRXh-BIDO6TWCTbir-k-81" style="edgeStyle=orthogonalEdgeStyle;rounded=0;orthogonalLoop=1;jettySize=auto;html=1;exitX=1;exitY=0.5;exitDx=0;exitDy=0;entryX=0;entryY=0.5;entryDx=0;entryDy=0;entryPerimeter=0;fontFamily=Helvetica;fontSize=12;fontColor=default;" edge="1" parent="WIyWlLk6GJQsqaUBKTNV-1" source="OdRXh-BIDO6TWCTbir-k-34" target="OdRXh-BIDO6TWCTbir-k-36">
          <mxGeometry relative="1" as="geometry" />
        </mxCell>
        <mxCell id="OdRXh-BIDO6TWCTbir-k-34" value="&lt;div style=&quot;color: rgb(212, 212, 212); background-color: rgb(30, 30, 30); font-family: Consolas, &amp;quot;Courier New&amp;quot;, monospace; font-size: 17px; line-height: 23px;&quot;&gt;&lt;div style=&quot;line-height: 23px;&quot;&gt;&lt;div style=&quot;line-height: 23px;&quot;&gt;&lt;div style=&quot;line-height: 23px;&quot;&gt;&lt;div&gt;/* Options and their descriptions */&lt;/div&gt;&lt;div&gt;&lt;span style=&quot;color: #569cd6;&quot;&gt;static&lt;/span&gt; &lt;span style=&quot;color: #569cd6;&quot;&gt;struct&lt;/span&gt; &lt;span style=&quot;color: #4ec9b0;&quot;&gt;argp_option&lt;/span&gt; &lt;span style=&quot;color: #9cdcfe;&quot;&gt;options&lt;/span&gt;[] = {&lt;/div&gt;&lt;div&gt;&amp;nbsp; &amp;nbsp; {&lt;span style=&quot;color: #ce9178;&quot;&gt;&quot;input-file&quot;&lt;/span&gt;, &lt;span style=&quot;color: #ce9178;&quot;&gt;&#39;i&#39;&lt;/span&gt;, &lt;span style=&quot;color: #ce9178;&quot;&gt;&quot;FILENAME&quot;&lt;/span&gt;, &lt;span style=&quot;color: #b5cea8;&quot;&gt;0&lt;/span&gt;, &lt;span style=&quot;color: #ce9178;&quot;&gt;&quot;Input image filename.&quot;&lt;/span&gt;, &lt;span style=&quot;color: #b5cea8;&quot;&gt;0&lt;/span&gt;},&lt;/div&gt;&lt;div&gt;&amp;nbsp; &amp;nbsp; {&lt;span style=&quot;color: #ce9178;&quot;&gt;&quot;output-file&quot;&lt;/span&gt;, &lt;span style=&quot;color: #ce9178;&quot;&gt;&#39;o&#39;&lt;/span&gt;, &lt;span style=&quot;color: #ce9178;&quot;&gt;&quot;FILENAME&quot;&lt;/span&gt;, &lt;span style=&quot;color: #b5cea8;&quot;&gt;0&lt;/span&gt;, &lt;span style=&quot;color: #ce9178;&quot;&gt;&quot;Output image filename.&quot;&lt;/span&gt;, &lt;span style=&quot;color: #b5cea8;&quot;&gt;0&lt;/span&gt;},&lt;/div&gt;&lt;div&gt;&amp;nbsp; &amp;nbsp; {&lt;span style=&quot;color: #ce9178;&quot;&gt;&quot;serial&quot;&lt;/span&gt;, &lt;span style=&quot;color: #ce9178;&quot;&gt;&#39;s&#39;&lt;/span&gt;, &lt;span style=&quot;color: #b5cea8;&quot;&gt;0&lt;/span&gt;, &lt;span style=&quot;color: #b5cea8;&quot;&gt;0&lt;/span&gt;, &lt;span style=&quot;color: #ce9178;&quot;&gt;&quot;Execute serially on host CPU (GPU otherwise).&quot;&lt;/span&gt;, &lt;span style=&quot;color: #b5cea8;&quot;&gt;0&lt;/span&gt;},&lt;/div&gt;&lt;div&gt;&lt;span style=&quot;color: #6a9955;&quot;&gt;&amp;nbsp; &amp;nbsp; /*{0, 0, 0, 0, 0, 0} is the last element in the array of type struct argp_option, &lt;/span&gt;&lt;/div&gt;&lt;div&gt;&lt;span style=&quot;color: #6a9955;&quot;&gt;&amp;nbsp; &amp;nbsp; used to indicate the end of the array. In this array, each element represents a &lt;/span&gt;&lt;/div&gt;&lt;div&gt;&lt;span style=&quot;color: #6a9955;&quot;&gt;&amp;nbsp; &amp;nbsp; command-line option, including the name, abbreviation, parameter, description, &lt;/span&gt;&lt;/div&gt;&lt;div&gt;&lt;span style=&quot;color: #6a9955;&quot;&gt;&amp;nbsp; &amp;nbsp; and other information. Adding {0, 0, 0, 0, 0, 0} after the last element is to &lt;/span&gt;&lt;/div&gt;&lt;div&gt;&lt;span style=&quot;color: #6a9955;&quot;&gt;&amp;nbsp; &amp;nbsp; tell the parser that the array has ended and there are no other options left.*/&lt;/span&gt;&lt;/div&gt;&lt;div&gt;&amp;nbsp; &amp;nbsp; {&lt;span style=&quot;color: #b5cea8;&quot;&gt;0&lt;/span&gt;, &lt;span style=&quot;color: #b5cea8;&quot;&gt;0&lt;/span&gt;, &lt;span style=&quot;color: #b5cea8;&quot;&gt;0&lt;/span&gt;, &lt;span style=&quot;color: #b5cea8;&quot;&gt;0&lt;/span&gt;, &lt;span style=&quot;color: #b5cea8;&quot;&gt;0&lt;/span&gt;, &lt;span style=&quot;color: #b5cea8;&quot;&gt;0&lt;/span&gt;}&lt;/div&gt;&lt;div&gt;};&lt;/div&gt;&lt;br&gt;&lt;/div&gt;&lt;/div&gt;&lt;/div&gt;&lt;/div&gt;" style="whiteSpace=wrap;html=1;rounded=1;glass=0;strokeWidth=1;shadow=0;align=left;" vertex="1" parent="WIyWlLk6GJQsqaUBKTNV-1">
          <mxGeometry x="40" y="988" width="855.62" height="412" as="geometry" />
        </mxCell>
        <mxCell id="OdRXh-BIDO6TWCTbir-k-36" value="设置参数选项" style="shape=note;whiteSpace=wrap;html=1;backgroundOutline=1;darkOpacity=0.05;" vertex="1" parent="WIyWlLk6GJQsqaUBKTNV-1">
          <mxGeometry x="976.81" y="1144" width="120" height="100" as="geometry" />
        </mxCell>
        <mxCell id="OdRXh-BIDO6TWCTbir-k-43" value="" style="edgeStyle=orthogonalEdgeStyle;rounded=0;orthogonalLoop=1;jettySize=auto;html=1;fontFamily=Helvetica;fontSize=12;fontColor=default;" edge="1" parent="WIyWlLk6GJQsqaUBKTNV-1" source="OdRXh-BIDO6TWCTbir-k-38" target="OdRXh-BIDO6TWCTbir-k-42">
          <mxGeometry relative="1" as="geometry" />
        </mxCell>
        <mxCell id="OdRXh-BIDO6TWCTbir-k-80" style="edgeStyle=orthogonalEdgeStyle;rounded=0;orthogonalLoop=1;jettySize=auto;html=1;exitX=1;exitY=0.5;exitDx=0;exitDy=0;entryX=0;entryY=0.5;entryDx=0;entryDy=0;entryPerimeter=0;fontFamily=Helvetica;fontSize=12;fontColor=default;" edge="1" parent="WIyWlLk6GJQsqaUBKTNV-1" source="OdRXh-BIDO6TWCTbir-k-38" target="OdRXh-BIDO6TWCTbir-k-40">
          <mxGeometry relative="1" as="geometry" />
        </mxCell>
        <mxCell id="OdRXh-BIDO6TWCTbir-k-38" value="&lt;div style=&quot;color: rgb(212, 212, 212); background-color: rgb(30, 30, 30); font-family: Consolas, &amp;quot;Courier New&amp;quot;, monospace; font-size: 17px; line-height: 23px;&quot;&gt;&lt;div&gt;struct &lt;span style=&quot;color: #4ec9b0;&quot;&gt;arguments&lt;/span&gt; {&lt;/div&gt;&lt;div&gt;&amp;nbsp; &amp;nbsp; &lt;span style=&quot;color: #4ec9b0;&quot;&gt;std&lt;/span&gt;::&lt;span style=&quot;color: #4ec9b0;&quot;&gt;string&lt;/span&gt; &lt;span style=&quot;color: #9cdcfe;&quot;&gt;inFile&lt;/span&gt;;&lt;/div&gt;&lt;div&gt;&amp;nbsp; &amp;nbsp; &lt;span style=&quot;color: #4ec9b0;&quot;&gt;std&lt;/span&gt;::&lt;span style=&quot;color: #4ec9b0;&quot;&gt;string&lt;/span&gt; &lt;span style=&quot;color: #9cdcfe;&quot;&gt;outFile&lt;/span&gt;;&lt;/div&gt;&lt;div&gt;&amp;nbsp; &amp;nbsp; &lt;span style=&quot;color: #569cd6;&quot;&gt;bool&lt;/span&gt; &lt;span style=&quot;color: #9cdcfe;&quot;&gt;serial&lt;/span&gt;;&lt;/div&gt;&lt;div&gt;};&lt;/div&gt;&lt;br&gt;&lt;/div&gt;" style="whiteSpace=wrap;html=1;align=left;rounded=1;glass=0;strokeWidth=1;shadow=0;" vertex="1" parent="WIyWlLk6GJQsqaUBKTNV-1">
          <mxGeometry x="343.31999999999994" y="1550" width="249" height="204" as="geometry" />
        </mxCell>
        <mxCell id="OdRXh-BIDO6TWCTbir-k-40" value="定义结构体保持解析后的参数" style="shape=note;whiteSpace=wrap;html=1;backgroundOutline=1;darkOpacity=0.05;" vertex="1" parent="WIyWlLk6GJQsqaUBKTNV-1">
          <mxGeometry x="676.81" y="1602" width="120" height="100" as="geometry" />
        </mxCell>
        <mxCell id="OdRXh-BIDO6TWCTbir-k-68" value="" style="edgeStyle=orthogonalEdgeStyle;rounded=0;orthogonalLoop=1;jettySize=auto;html=1;fontFamily=Helvetica;fontSize=12;fontColor=default;" edge="1" parent="WIyWlLk6GJQsqaUBKTNV-1" source="OdRXh-BIDO6TWCTbir-k-42" target="OdRXh-BIDO6TWCTbir-k-67">
          <mxGeometry relative="1" as="geometry" />
        </mxCell>
        <mxCell id="OdRXh-BIDO6TWCTbir-k-79" style="edgeStyle=orthogonalEdgeStyle;rounded=0;orthogonalLoop=1;jettySize=auto;html=1;exitX=1;exitY=0.25;exitDx=0;exitDy=0;fontFamily=Helvetica;fontSize=12;fontColor=default;" edge="1" parent="WIyWlLk6GJQsqaUBKTNV-1" source="OdRXh-BIDO6TWCTbir-k-42" target="OdRXh-BIDO6TWCTbir-k-65">
          <mxGeometry relative="1" as="geometry" />
        </mxCell>
        <mxCell id="OdRXh-BIDO6TWCTbir-k-42" value="&lt;div style=&quot;background-color: rgb(30, 30, 30); font-family: Consolas, &amp;quot;Courier New&amp;quot;, monospace; font-size: 17px; line-height: 23px; color: rgb(212, 212, 212);&quot;&gt;&lt;div&gt;&lt;div style=&quot;line-height: 23px;&quot;&gt;&lt;div&gt;/* Parser */&lt;/div&gt;&lt;div&gt;&lt;span style=&quot;color: #569cd6;&quot;&gt;static&lt;/span&gt; &lt;span style=&quot;color: #4ec9b0;&quot;&gt;error_t&lt;/span&gt; &lt;span style=&quot;color: #dcdcaa;&quot;&gt;parse_opt&lt;/span&gt; (&lt;span style=&quot;color: #569cd6;&quot;&gt;int&lt;/span&gt; &lt;span style=&quot;color: #9cdcfe;&quot;&gt;key&lt;/span&gt;, &lt;span style=&quot;color: #569cd6;&quot;&gt;char&lt;/span&gt; &lt;span style=&quot;color: #569cd6;&quot;&gt;*&lt;/span&gt;&lt;span style=&quot;color: #9cdcfe;&quot;&gt;arg&lt;/span&gt;, &lt;span style=&quot;color: #569cd6;&quot;&gt;struct&lt;/span&gt; &lt;span style=&quot;color: #4ec9b0;&quot;&gt;argp_state&lt;/span&gt; &lt;span style=&quot;color: #569cd6;&quot;&gt;*&lt;/span&gt;&lt;span style=&quot;color: #9cdcfe;&quot;&gt;state&lt;/span&gt;)&lt;/div&gt;&lt;div&gt;{&lt;/div&gt;&lt;div&gt;&amp;nbsp; &amp;nbsp; &lt;span style=&quot;color: #569cd6;&quot;&gt;struct&lt;/span&gt; &lt;span style=&quot;color: #4ec9b0;&quot;&gt;arguments&lt;/span&gt; &lt;span style=&quot;color: #569cd6;&quot;&gt;*&lt;/span&gt;&lt;span style=&quot;color: #9cdcfe;&quot;&gt;args&lt;/span&gt; = (&lt;span style=&quot;color: #4ec9b0;&quot;&gt;arguments&lt;/span&gt; *)&lt;span style=&quot;color: #9cdcfe;&quot;&gt;state&lt;/span&gt;-&amp;gt;&lt;span style=&quot;color: #9cdcfe;&quot;&gt;input&lt;/span&gt;;&lt;/div&gt;&lt;br&gt;&lt;div&gt;&amp;nbsp; &amp;nbsp; &lt;span style=&quot;color: #c586c0;&quot;&gt;switch&lt;/span&gt;(&lt;span style=&quot;color: #9cdcfe;&quot;&gt;key&lt;/span&gt;) &lt;/div&gt;&lt;div&gt;&amp;nbsp; &amp;nbsp; {&lt;/div&gt;&lt;div&gt;&amp;nbsp; &amp;nbsp; &amp;nbsp; &amp;nbsp; &lt;span style=&quot;color: #c586c0;&quot;&gt;case&lt;/span&gt; &lt;span style=&quot;color: #ce9178;&quot;&gt;&#39;i&#39;&lt;/span&gt;:&lt;/div&gt;&lt;div&gt;&amp;nbsp; &amp;nbsp; &amp;nbsp; &amp;nbsp; &amp;nbsp; &amp;nbsp; &lt;span style=&quot;color: #9cdcfe;&quot;&gt;args&lt;/span&gt;-&amp;gt;&lt;span style=&quot;color: #9cdcfe;&quot;&gt;inFile&lt;/span&gt; &lt;span style=&quot;color: #dcdcaa;&quot;&gt;=&lt;/span&gt; &lt;span style=&quot;color: #9cdcfe;&quot;&gt;arg&lt;/span&gt;;&lt;/div&gt;&lt;div&gt;&amp;nbsp; &amp;nbsp; &amp;nbsp; &amp;nbsp; &amp;nbsp; &amp;nbsp; &lt;span style=&quot;color: #c586c0;&quot;&gt;break&lt;/span&gt;;&lt;/div&gt;&lt;div&gt;&amp;nbsp; &amp;nbsp; &amp;nbsp; &amp;nbsp; &lt;span style=&quot;color: #c586c0;&quot;&gt;case&lt;/span&gt; &lt;span style=&quot;color: #ce9178;&quot;&gt;&#39;o&#39;&lt;/span&gt;:&lt;/div&gt;&lt;div&gt;&amp;nbsp; &amp;nbsp; &amp;nbsp; &amp;nbsp; &amp;nbsp; &amp;nbsp; &lt;span style=&quot;color: #9cdcfe;&quot;&gt;args&lt;/span&gt;-&amp;gt;&lt;span style=&quot;color: #9cdcfe;&quot;&gt;outFile&lt;/span&gt; &lt;span style=&quot;color: #dcdcaa;&quot;&gt;=&lt;/span&gt; &lt;span style=&quot;color: #9cdcfe;&quot;&gt;arg&lt;/span&gt;;&lt;/div&gt;&lt;div&gt;&amp;nbsp; &amp;nbsp; &amp;nbsp; &amp;nbsp; &amp;nbsp; &amp;nbsp; &lt;span style=&quot;color: #c586c0;&quot;&gt;break&lt;/span&gt;;&lt;/div&gt;&lt;div&gt;&amp;nbsp; &amp;nbsp; &amp;nbsp; &amp;nbsp; &lt;span style=&quot;color: #c586c0;&quot;&gt;case&lt;/span&gt; &lt;span style=&quot;color: #ce9178;&quot;&gt;&#39;s&#39;&lt;/span&gt;:&lt;/div&gt;&lt;div&gt;&amp;nbsp; &amp;nbsp; &amp;nbsp; &amp;nbsp; &amp;nbsp; &amp;nbsp; &lt;span style=&quot;color: #9cdcfe;&quot;&gt;args&lt;/span&gt;-&amp;gt;&lt;span style=&quot;color: #9cdcfe;&quot;&gt;serial&lt;/span&gt; = &lt;span style=&quot;color: #569cd6;&quot;&gt;true&lt;/span&gt;;&lt;/div&gt;&lt;div&gt;&amp;nbsp; &amp;nbsp; &amp;nbsp; &amp;nbsp; &amp;nbsp; &amp;nbsp; &lt;span style=&quot;color: #c586c0;&quot;&gt;break&lt;/span&gt;;&lt;/div&gt;&lt;div&gt;&amp;nbsp; &amp;nbsp; &amp;nbsp; &amp;nbsp; &lt;span style=&quot;color: #c586c0;&quot;&gt;default&lt;/span&gt;:&lt;/div&gt;&lt;div&gt;&amp;nbsp; &amp;nbsp; &amp;nbsp; &amp;nbsp; &amp;nbsp; &amp;nbsp; &lt;span style=&quot;color: #c586c0;&quot;&gt;return&lt;/span&gt; ARGP_ERR_UNKNOWN;&lt;/div&gt;&lt;div&gt;&amp;nbsp; &amp;nbsp; }&lt;/div&gt;&lt;br&gt;&lt;div&gt;&amp;nbsp; &amp;nbsp; &lt;span style=&quot;color: #c586c0;&quot;&gt;return&lt;/span&gt; &lt;span style=&quot;color: #b5cea8;&quot;&gt;0&lt;/span&gt;;&lt;/div&gt;&lt;div&gt;}&lt;/div&gt;&lt;/div&gt;&lt;/div&gt;&lt;/div&gt;" style="whiteSpace=wrap;html=1;align=left;rounded=1;glass=0;strokeWidth=1;shadow=0;" vertex="1" parent="WIyWlLk6GJQsqaUBKTNV-1">
          <mxGeometry x="124.94999999999993" y="1820" width="685.75" height="666" as="geometry" />
        </mxCell>
        <mxCell id="OdRXh-BIDO6TWCTbir-k-47" value="" style="edgeStyle=orthogonalEdgeStyle;rounded=0;orthogonalLoop=1;jettySize=auto;html=1;fontFamily=Helvetica;fontSize=12;fontColor=default;" edge="1" parent="WIyWlLk6GJQsqaUBKTNV-1" source="OdRXh-BIDO6TWCTbir-k-44" target="OdRXh-BIDO6TWCTbir-k-46">
          <mxGeometry relative="1" as="geometry" />
        </mxCell>
        <mxCell id="OdRXh-BIDO6TWCTbir-k-44" value="定义回调函数，每次解析一个选项时，都会调用这函数，其中key 短横线选项的字符的ASCII 码值,比如：`-i` 那么就是`i` 的ASCII 码值， 而arg 是该选项的字符串,例如：`-i img/xx_in.jpg` ，那么 arg 就是：`img/xx_in.jpg`" style="shape=note;whiteSpace=wrap;html=1;backgroundOutline=1;darkOpacity=0.05;" vertex="1" parent="WIyWlLk6GJQsqaUBKTNV-1">
          <mxGeometry x="916.81" y="2103" width="310" height="100" as="geometry" />
        </mxCell>
        <mxCell id="OdRXh-BIDO6TWCTbir-k-49" value="" style="edgeStyle=orthogonalEdgeStyle;rounded=0;orthogonalLoop=1;jettySize=auto;html=1;fontFamily=Helvetica;fontSize=12;fontColor=default;" edge="1" parent="WIyWlLk6GJQsqaUBKTNV-1" source="OdRXh-BIDO6TWCTbir-k-46" target="OdRXh-BIDO6TWCTbir-k-48">
          <mxGeometry relative="1" as="geometry" />
        </mxCell>
        <mxCell id="OdRXh-BIDO6TWCTbir-k-50" value="在gdb 中展现，例如：" style="edgeLabel;html=1;align=center;verticalAlign=middle;resizable=0;points=[];fontSize=12;fontFamily=Helvetica;fontColor=default;" vertex="1" connectable="0" parent="OdRXh-BIDO6TWCTbir-k-49">
          <mxGeometry x="-0.3081" y="-1" relative="1" as="geometry">
            <mxPoint x="37" y="-1" as="offset" />
          </mxGeometry>
        </mxCell>
        <mxCell id="OdRXh-BIDO6TWCTbir-k-52" value="" style="edgeStyle=orthogonalEdgeStyle;rounded=0;orthogonalLoop=1;jettySize=auto;html=1;fontFamily=Helvetica;fontSize=12;fontColor=default;" edge="1" parent="WIyWlLk6GJQsqaUBKTNV-1" source="OdRXh-BIDO6TWCTbir-k-46" target="OdRXh-BIDO6TWCTbir-k-51">
          <mxGeometry relative="1" as="geometry" />
        </mxCell>
        <mxCell id="OdRXh-BIDO6TWCTbir-k-46" value="&lt;div style=&quot;text-align: left;&quot;&gt;&lt;span style=&quot;background-color: initial;&quot;&gt;struct&lt;/span&gt;&lt;span style=&quot;background-color: initial; font-family: Consolas, &amp;quot;Courier New&amp;quot;, monospace; font-size: 17px; text-align: left;&quot;&gt;&amp;nbsp;&lt;/span&gt;&lt;span style=&quot;background-color: initial; border-color: var(--border-color); font-family: Consolas, &amp;quot;Courier New&amp;quot;, monospace; font-size: 17px; text-align: left;&quot;&gt;argp_state&lt;/span&gt;&lt;span style=&quot;background-color: initial; font-family: Consolas, &amp;quot;Courier New&amp;quot;, monospace; font-size: 17px; text-align: left;&quot;&gt;&amp;nbsp;&lt;/span&gt;&lt;span style=&quot;background-color: initial; border-color: var(--border-color); font-family: Consolas, &amp;quot;Courier New&amp;quot;, monospace; font-size: 17px;&quot;&gt;*&lt;/span&gt;&lt;span style=&quot;background-color: initial; border-color: var(--border-color); font-size: 17px;&quot;&gt;&lt;font face=&quot;Consolas, Courier New, monospace&quot;&gt;state&lt;/font&gt;&lt;/span&gt;&lt;/div&gt;&lt;span style=&quot;border-color: var(--border-color); font-size: 17px;&quot;&gt;&lt;div style=&quot;text-align: left;&quot;&gt;&lt;font face=&quot;Consolas, Courier New, monospace&quot;&gt;&lt;span style=&quot;font-size: 17px;&quot;&gt;代表存储解析结果的状态&lt;/span&gt;&lt;/font&gt;&lt;/div&gt;&lt;div style=&quot;text-align: left;&quot;&gt;&lt;span style=&quot;background-color: initial;&quot;&gt;state&amp;nbsp;&lt;/span&gt;&lt;span style=&quot;background-color: initial;&quot;&gt;表示当前的解析状态，是一个指向&amp;nbsp;&lt;/span&gt;&lt;code style=&quot;background-color: initial; padding: 0px; font-family: Consolas, monaco, monospace;&quot;&gt;argp_state&lt;/code&gt;&lt;span style=&quot;background-color: initial; font-family: -apple-system, system-ui, BlinkMacSystemFont, &amp;quot;Segoe UI&amp;quot;, Roboto, Oxygen-Sans, Ubuntu, Cantarell, &amp;quot;Helvetica Neue&amp;quot;, sans-serif;&quot;&gt;&amp;nbsp;结构体的指针。这个结构体包含了一些关于当前解析状态的信息，例如当前已经解析的选项和参数的个数等。&lt;/span&gt;&lt;/div&gt;&lt;/span&gt;" style="shape=note;whiteSpace=wrap;html=1;backgroundOutline=1;darkOpacity=0.05;" vertex="1" parent="WIyWlLk6GJQsqaUBKTNV-1">
          <mxGeometry x="896.81" y="2280" width="350" height="140" as="geometry" />
        </mxCell>
        <mxCell id="OdRXh-BIDO6TWCTbir-k-48" value="&lt;div style=&quot;text-align: left;&quot;&gt;&lt;div&gt;(gdb) print(*state)&lt;/div&gt;&lt;div&gt;$5 = {root_argp = 0x7fffffffd8f0, argc = 6, argv = 0x7fffffffdd08, next = 0, flags = 0, arg_num = 0, quoted = 0, &lt;font color=&quot;#ff6666&quot;&gt;input&lt;/font&gt; = 0x7fffffffdbc0, child_inputs = 0x0,&amp;nbsp;&lt;/div&gt;&lt;div&gt;&amp;nbsp; hook = 0x0, name = 0x0, err_stream = 0x7ffff6bcb680 &amp;lt;_IO_2_1_stderr_&amp;gt;, out_stream = 0x7ffff6bcb760 &amp;lt;_IO_2_1_stdout_&amp;gt;, pstate = 0x7fffffffda40}&lt;/div&gt;&lt;/div&gt;" style="shape=note;whiteSpace=wrap;html=1;backgroundOutline=1;darkOpacity=0.05;" vertex="1" parent="WIyWlLk6GJQsqaUBKTNV-1">
          <mxGeometry x="1446.81" y="2280" width="350" height="140" as="geometry" />
        </mxCell>
        <mxCell id="OdRXh-BIDO6TWCTbir-k-55" value="" style="edgeStyle=orthogonalEdgeStyle;rounded=0;orthogonalLoop=1;jettySize=auto;html=1;fontFamily=Helvetica;fontSize=12;fontColor=default;" edge="1" parent="WIyWlLk6GJQsqaUBKTNV-1" source="OdRXh-BIDO6TWCTbir-k-51" target="OdRXh-BIDO6TWCTbir-k-54">
          <mxGeometry relative="1" as="geometry" />
        </mxCell>
        <mxCell id="OdRXh-BIDO6TWCTbir-k-51" value="&lt;div style=&quot;text-align: left; font-size: 15px;&quot;&gt;&lt;div style=&quot;color: rgb(212, 212, 212); background-color: rgb(30, 30, 30); font-family: Consolas, &amp;quot;Courier New&amp;quot;, monospace; line-height: 23px;&quot;&gt;//&amp;nbsp;state-&amp;gt;&lt;span style=&quot;background-color: initial; border-color: var(--border-color); color: rgb(156, 220, 254);&quot;&gt;input 转换为&amp;nbsp;&lt;/span&gt;arguments 类型的指针，&lt;/div&gt;&lt;div style=&quot;color: rgb(212, 212, 212); background-color: rgb(30, 30, 30); font-family: Consolas, &amp;quot;Courier New&amp;quot;, monospace; line-height: 23px;&quot;&gt;struct &lt;span style=&quot;color: #4ec9b0;&quot;&gt;arguments&lt;/span&gt; &lt;span style=&quot;color: #569cd6;&quot;&gt;*&lt;/span&gt;&lt;span style=&quot;color: #9cdcfe;&quot;&gt;args&lt;/span&gt; = (arguments *)&lt;span style=&quot;color: #9cdcfe;&quot;&gt;state&lt;/span&gt;-&amp;gt;&lt;span style=&quot;color: #9cdcfe;&quot;&gt;input&lt;/span&gt;;&lt;/div&gt;&lt;/div&gt;" style="shape=note;whiteSpace=wrap;html=1;backgroundOutline=1;darkOpacity=0.05;" vertex="1" parent="WIyWlLk6GJQsqaUBKTNV-1">
          <mxGeometry x="846.81" y="2486" width="450" height="140" as="geometry" />
        </mxCell>
        <mxCell id="OdRXh-BIDO6TWCTbir-k-57" value="" style="edgeStyle=orthogonalEdgeStyle;rounded=0;orthogonalLoop=1;jettySize=auto;html=1;fontFamily=Helvetica;fontSize=12;fontColor=default;" edge="1" parent="WIyWlLk6GJQsqaUBKTNV-1" source="OdRXh-BIDO6TWCTbir-k-54" target="OdRXh-BIDO6TWCTbir-k-56">
          <mxGeometry relative="1" as="geometry" />
        </mxCell>
        <mxCell id="OdRXh-BIDO6TWCTbir-k-58" value="该函数的签名是" style="edgeLabel;html=1;align=center;verticalAlign=middle;resizable=0;points=[];fontSize=12;fontFamily=Helvetica;fontColor=default;" vertex="1" connectable="0" parent="OdRXh-BIDO6TWCTbir-k-57">
          <mxGeometry x="-0.175" y="-1" relative="1" as="geometry">
            <mxPoint as="offset" />
          </mxGeometry>
        </mxCell>
        <mxCell id="OdRXh-BIDO6TWCTbir-k-54" value="&lt;div style=&quot;text-align: left; font-size: 15px;&quot;&gt;&lt;div style=&quot;color: rgb(212, 212, 212); background-color: rgb(30, 30, 30); font-family: Consolas, &amp;quot;Courier New&amp;quot;, monospace; line-height: 23px;&quot;&gt;这说明state-&amp;gt;&lt;span style=&quot;background-color: initial; border-color: var(--border-color); color: rgb(156, 220, 254);&quot;&gt;input原本指向的也这种类型，&lt;/span&gt;&lt;/div&gt;&lt;div style=&quot;color: rgb(212, 212, 212); background-color: rgb(30, 30, 30); font-family: Consolas, &amp;quot;Courier New&amp;quot;, monospace; line-height: 23px;&quot;&gt;&lt;span style=&quot;background-color: initial; border-color: var(--border-color); color: rgb(156, 220, 254);&quot;&gt;后面会看到，这个类似在main函数arp_parse中传递进来的,&lt;/span&gt;&lt;/div&gt;&lt;div style=&quot;background-color: rgb(30, 30, 30); font-family: Consolas, &amp;quot;Courier New&amp;quot;, monospace; line-height: 23px;&quot;&gt;&lt;font color=&quot;#9cdcfe&quot;&gt;而且state-&amp;gt;input 是一个void 类型的指针，所以这里使用时&lt;/font&gt;&lt;/div&gt;&lt;div style=&quot;background-color: rgb(30, 30, 30); font-family: Consolas, &amp;quot;Courier New&amp;quot;, monospace; line-height: 23px;&quot;&gt;&lt;font color=&quot;#9cdcfe&quot;&gt;需要进行强制转换，这样的好处是可以在mian函数那边传递任意&lt;/font&gt;&lt;/div&gt;&lt;div style=&quot;background-color: rgb(30, 30, 30); font-family: Consolas, &amp;quot;Courier New&amp;quot;, monospace; line-height: 23px;&quot;&gt;&lt;font color=&quot;#9cdcfe&quot;&gt;类型的数据结构，然后在当前函数中访问该类型的成员。&lt;/font&gt;&lt;/div&gt;&lt;/div&gt;" style="shape=note;whiteSpace=wrap;html=1;backgroundOutline=1;darkOpacity=0.05;" vertex="1" parent="WIyWlLk6GJQsqaUBKTNV-1">
          <mxGeometry x="1376.81" y="2486" width="460" height="140" as="geometry" />
        </mxCell>
        <mxCell id="OdRXh-BIDO6TWCTbir-k-56" value="&lt;div style=&quot;text-align: left; font-size: 15px;&quot;&gt;&lt;div style=&quot;color: rgb(212, 212, 212); background-color: rgb(30, 30, 30); font-family: Consolas, &amp;quot;Courier New&amp;quot;, monospace; line-height: 23px;&quot;&gt;&lt;pre style=&quot;margin-top: 0px; margin-bottom: 0px; border-radius: 0 0 var(--border-radius-medium) var(--border-radius-medium); font-size: 14px; padding: 0.5em; background: rgb(43, 43, 43); overflow-x: auto; color: rgb(248, 248, 242);&quot; class=&quot;MarkdownCodeBlock_preTag__dDgT9&quot;&gt;&lt;code style=&quot;background-color: transparent; padding: 0px; font-family: Consolas, monaco, monospace; word-break: break-all;&quot; class=&quot;MarkdownCodeBlock_codeTag__ipdCC&quot;&gt;error_t&lt;span class=&quot;hljs-function&quot;&gt; &lt;/span&gt;&lt;span style=&quot;color: rgb(0, 224, 224);&quot; class=&quot;hljs-function&quot;&gt;argp_parse&lt;/span&gt;&lt;span class=&quot;hljs-function&quot;&gt; &lt;/span&gt;&lt;span style=&quot;color: rgb(245, 171, 53);&quot; class=&quot;hljs-function&quot;&gt;(&lt;/span&gt;&lt;span style=&quot;color: rgb(220, 198, 224);&quot; class=&quot;hljs-function&quot;&gt;const&lt;/span&gt;&lt;span style=&quot;color: rgb(245, 171, 53);&quot; class=&quot;hljs-function&quot;&gt; struct argp *argp, &lt;/span&gt;&lt;span style=&quot;color: rgb(220, 198, 224);&quot; class=&quot;hljs-function&quot;&gt;int&lt;/span&gt;&lt;span style=&quot;color: rgb(245, 171, 53);&quot; class=&quot;hljs-function&quot;&gt; argc, &lt;/span&gt;&lt;span style=&quot;color: rgb(220, 198, 224);&quot; class=&quot;hljs-function&quot;&gt;char&lt;/span&gt;&lt;span style=&quot;color: rgb(245, 171, 53);&quot; class=&quot;hljs-function&quot;&gt; **argv,&lt;br/&gt;&lt;/span&gt;&lt;span style=&quot;color: rgb(245, 171, 53);&quot; class=&quot;hljs-function&quot;&gt;                    &lt;/span&gt;&lt;span style=&quot;color: rgb(220, 198, 224);&quot; class=&quot;hljs-function&quot;&gt;unsigned&lt;/span&gt;&lt;span style=&quot;color: rgb(245, 171, 53);&quot; class=&quot;hljs-function&quot;&gt; flags, &lt;/span&gt;&lt;span style=&quot;color: rgb(220, 198, 224);&quot; class=&quot;hljs-function&quot;&gt;int&lt;/span&gt;&lt;span style=&quot;color: rgb(245, 171, 53);&quot; class=&quot;hljs-function&quot;&gt; *arg_index, &lt;/span&gt;&lt;span style=&quot;color: rgb(220, 198, 224);&quot; class=&quot;hljs-function&quot;&gt;void&lt;/span&gt;&lt;span style=&quot;color: rgb(245, 171, 53);&quot; class=&quot;hljs-function&quot;&gt; *input)&lt;/span&gt;;&lt;/code&gt;&lt;/pre&gt;&lt;/div&gt;&lt;/div&gt;" style="shape=note;whiteSpace=wrap;html=1;backgroundOutline=1;darkOpacity=0.05;" vertex="1" parent="WIyWlLk6GJQsqaUBKTNV-1">
          <mxGeometry x="1966.81" y="2486" width="580" height="140" as="geometry" />
        </mxCell>
        <mxCell id="OdRXh-BIDO6TWCTbir-k-87" style="edgeStyle=orthogonalEdgeStyle;rounded=0;orthogonalLoop=1;jettySize=auto;html=1;exitX=0.5;exitY=1;exitDx=0;exitDy=0;exitPerimeter=0;fontFamily=Helvetica;fontSize=12;fontColor=default;" edge="1" parent="WIyWlLk6GJQsqaUBKTNV-1" source="OdRXh-BIDO6TWCTbir-k-59" target="OdRXh-BIDO6TWCTbir-k-61">
          <mxGeometry relative="1" as="geometry" />
        </mxCell>
        <mxCell id="OdRXh-BIDO6TWCTbir-k-59" value="&lt;font color=&quot;#ff33ff&quot; style=&quot;font-size: 16px;&quot;&gt;当我在命令行执行：`./bin/edge_detect&amp;nbsp; --help` 后的效果&lt;/font&gt;" style="shape=note;whiteSpace=wrap;html=1;backgroundOutline=1;darkOpacity=0.05;" vertex="1" parent="WIyWlLk6GJQsqaUBKTNV-1">
          <mxGeometry x="1512.5" y="280" width="415" height="120" as="geometry" />
        </mxCell>
        <mxCell id="OdRXh-BIDO6TWCTbir-k-61" value="" style="shape=image;verticalLabelPosition=bottom;labelBackgroundColor=default;verticalAlign=top;aspect=fixed;imageAspect=0;image=data:image/png,iVBORw0KGgoAAAANSUhEUgAABQ4AAAJ1CAYAAACYZW24AAAgAElEQVR4nOzde3xTZbrw/V8Oq5SwJYwEh7BteIcw0yCHbcumBcFNy8tBwIdBsagoMggeALeiyAiMCjIzVgfxNAOeYBwRFUUFeUUGcA9lDwitz7TzWNB2NmVeU7dlS3AIM0RoTs8fSXNokzbJSpsWru/n40fSrMN1r6x1Z60r90HTXYcfIYQQQgghhBBCCCGEiKDNdABCCCGEEEIIIYQQQojORxKHQgghhBBCZNjkhzex4dVNPDpFyXQoQgghhBAh+kwHkA7+GwbjGdMfnzEbP6Bxn0Zbdwzda3a0JzIdXfvzzzjE+Sk5wVf1ZM8bldF4xIWho84r/9jduG8ejE8BrX0fWY/Nbpf9tBnHXUc5X2AMvnKi/GowutqMhJIek8s4d8PAuG/r370c/a4OjCcN1HxGUk9e2C6467cNF1t5Lw42+poAGvnO5c50MCnIZ9G6xeQZwHHgYZZttIfemfzwJmZYgbq3mf+Lnar2oh8wlfsXXEsOdna98BS7jmfqWMUvb/uyceezKygwkpbj2fldbOUV6ZDOOicpuQtZu2wkxljvyfkruriunTjs/T08j/wbHqMu6s9+pRde27/iLR2I/rU/oi+LcVPR95/wlgzCN/T7eJWswN/cZ9E6vkK39S/oqrrKTVsJvoKc0CtNTVnwX/PwPv0Y7pg1F2jc59A4vkJXtRvde6XtH6ZIwBX4c3+Mv2gS3tzL0ewdmMHETrzzKt2exnvbYHzBVz5LMY2330rWbze3sV5nOlai8+uo81mIC0VXrGO7YsyRjBgUABeOhkzHkjx90SSGGAC+pGJreyXR8rlryY3kGgAGMWPBLexa+rt22lfrOqa8ot31HMr46eO4auhQvts3nzUfZTqgBHTFmIUQXV7XTRz2NuEp/Tc8rfbm6IVnzgg0dZ+gqw//1X/zcNwT+4eSFSFKD3zmXHz3DsRrryBrZRe4c8ubjdfU9OIc+o+XJ7SaX8nGbx6IzzwQ95QSlI0PoPtEHqYzavJ6zke0EMvoxZniedVhOtOxEp1fZz+fhehsumId2wVj7p47kdnTx5FrMWE0BH/Ephejl7zAgLpq9m//HR/XujIaY6KmFQ9CAdw1f+D9M+21l6bkapCikAtkorFtx5RXtDvz1UwuHo4RqMt0LInqijFfLGrXs2Tu+og/RLSYFaKL67JjHHqXjY5IGp5Gv3MP2XPfJ3vu+3R74X+jc3mD7/XFMyf0xIh/ypU0xkoaRtHhs4zi/MOmVpfqDHzj88NlaShDV5XKVi7DPW8DnvHSdU8EpOe8SsQD6DYdRRts4Ku170ugtaFIyK4isuddHv7v3WOZjihjOu58FkKIxIx94Hl+vexWCmz9IpKGQUoPzLaR3LTsQSZnJrzk5NxBgQXgLEf27GvHHe3jt29+hhOA0xzZvi0jScOOK68QQgjROXSFH2Rb8N88ArepqXvytyhry9AdCb+vqbCj1LnhqVF4Ab/1B4ADeprwTh+Av2lB99cob1ahKzsf2G6BBc/8f8UbTEj6rQV4ij5C31kb4vVch9cWfqnfuyr+ss5DZD9QElxwFP6hJfhmTMNtzg4ukI3nhlXoP57UbuGKLiKZ8yoNNPsnkbW/XXchLmYdfD4LIURbBt/9PLOH9gLAWbObLdt3c8S6kF+XDATHYV7f6SR3TCF51gwHmqArp+djAnBUsq6df5g5VfYUSzJ8X96R5RVCCCE6g66XONR/D29x01hV59BvPRiVNAw51YC+8ize/B5APzxTQGfNi2il+C3K84dbJhydOvzL8oKtU7LxFJvRl3XOLsv+GwKJUQBclej3f5XYip5DaKoOoavagWbFBhqtweShMhj3jFEo7x1qj3BFF5HyeSVEJyTnsxCiU+k5kxmFgaShu+ZVljwZaLGWOybYy8V5jP1le9hf9kamIkyOvpgJQ3sAYC9/J8PBdICLrbxCCCEE6Uoc5hjxTv8RPlsffIbsYIu+RrQuJxr739EYLsFnBt3aP6KdOIHz+ZcEV2xE/9qH8Vv0FfyIxgVDQl3MdAd2oncODCf/GqrQfxR/EhNNdQOa/IH40eGzGNDYLgm/2VAbO+FY+1f09mE0WoItGi3fB2InDgfc/CiLJw7EwGmOvLaaZ8sccWNJO/1yfHmXhV7qql5PYSNlaF8/hG5VcejB2ps3r2XiMPdpvNOK8Fovw9d07N3nAhPJlG1A93EbXUv7Lsc7Y1qz8wM0zm/Q1Zahf+mBiIWfxrNxJp7gK23FSrJe2hi1uZizSbKVxp+Owgfo3x2Jzr0R9w2BmXo1rnr0L5WgqynCd/9y3DYjflqZwbf7rfhum493yOUR8Z5D2/AVur3r0O3f2myFyJiD8TgW4p09H68tfMy0jmPof7sQbe3nweMajjkWzw1f4bmh2R8jW45GavqMLD3xRx5jlxNtzSF0O55GW/95nD1FSOq8ugL/2OV4J+TjNRvDLXljOkb2vCKg+ecXI4RYs/2m81jlLMc7Lcb5mMh8SAlfC9PwPrked/A5MNZ53ELkLMiOfWQ/dDK18yqdUrr2r8A/YhG+0fn4rNHHGM6hdZ5Be2Q3+t+2Ms6gms8oUir1ZFL1FaRe3hTrDRXr+hcd43x+dmgr+k0j4ydSR+yg8e5wF2/dwftRftu87ktR0nVshJTPjdTqq7TErIaaayGZmNNZx6o9Voleg+3xHZpEXRf1XRbabhG+u0rx5OUEtuM+h85+COXxiHuNfCvm4D/t1eFurn1NhsCmHF1roo2e08eRqwDuL9i/3ZnQOt1zZ3LXnDHkmnuhALjP0lCzj80vvEPtd80WVjFLadPMqs7yx1nyYg19R9/B3OmFWExZwf2epqFmN488nfhMp0mVt7uFsbN+wuRCC6bQRIyNOOyVfLy1jfEru1sYMX0m0wptmIzBeAG36yzuVsd3h55DZjK7pJAh5j4orS3rPMyaxeuju3uriVkNFeVNKuZWzidrySY2xKge4p5nao9Vdxvj51zHWJsVs7FpuIJG3I4GjlRuY91blemP+SIVqHOKyTX3CF379sp3WP3igVZW6throUV9lXcLN5UUJlZPCtEBVCcOfXePxF3YL8ZNeBY+Qx+w9Qm+/hYdoNleiy7/X4OJqiw8Y0zo4yTcfMU/irghrEfZeB7f402tDRvR72kIxjACT2EOPkDjPonWacBnOo9+wzG0gBfI2vd9GgvD29bVxE/yaepOgqVv8NX38RaArqLZQj1ncuvEgQRu83oxZM59XF/5SIcNkOz/8TTchqZX9ak/0NVvResoDk8cYMqJeLMI3+J1uIfGeMhSsvGZB+K7+Qk8E35Mt4difWsFb6ALcmLe2PuNl+EpmImPo20nVZLgH7IRty08U6/fkIP79o3gsOK2hh+afZZizi9dRbc1EV0X87bivieihVJIsLy3PYN3wjSyHo6RcGwyZCvuKS234TMNpPGnW1GemYTuSLpaPbXyGQF+gxFv/jV4rcbYD0vNl0/0vNLfiu9nq2i0ZMd+v1MqwnfX07gLLot9rFq9MU32WtiBxrkegteVr/fgNqPzm3qGXzhPtlygs5xXbV37zSYoiJaNz5iNb/RsPHmjyP73ZskZVZ9RjOWTqidTrK9UlTeCms83wXU1Ow6hyw//UOQZ/QD6/c0TocF1i/Kjv3/TlTRMuY5VcW6ora/S8b2QNJXXQkZiVrvfTNwzqL3PiYiPIvyRvTiC2/Bai/G+WEb23cHr3+XCDSiA2VoIlAPQN5g4cNhr0lGwDjOjsD8Arurd7Pe0sTAweN5a7h/TJ/qPSg/MQ69laamJZx5cz9EEtpMcE2MfeoHZth7N9tsL89Ab2bCmD/MTnJ050fLqB9zCiiWTsBiavaFkYbKO5KZl+Yzd9xyPbKpuue6Qn7BywTjMzdcFFEMPWrv8Yx7fBKmJWQ015c1YzCr327voQVbMGRYjGZiFYupP3sTFLHfeRqnMmKxa7DqnF5bCO3nBZGRBjARrps6rgHj1VXvXk0K0TlXi0H93EY2Flya3Ur0dnT0Pb1OLvqbxB1tE9j181vBg0ZqaY9DTjLfpZ1rXX9CXge/hKVE3aX6lTzAJ9j9oDp5DMz/4hsUYcSPqRdPQSktFR+QvCD3wx5ojxWxqVtkbMZqBDkkcluArCCf4NDVqBnuJTnCgdAu941u6gUZb2w9aftMozj35OtkPRT8I+O9aR2MGppHy2mIkaYyDcccIxW+LeJDP3UrjPfFbLzTxmYs5v+Jpuj0e64HbiHtKa5PMGHHPLkX3UHoe1vyzn6ZxaLqOceLnlf+25V0saajufEzlWtCccoI1uL+I6youQ3gZ7amjQOR53LHnldprPyGGgZxbuY7sxxaFt5fWOiO5erLd66sY5Q1T8/kmsW79enT2YryW4FvWOOvpS/FFjK2m7jsmgoo6Vs3no6q+Ssv3QvJUnY8ZilntfjNxz5DOus5/U2l00jCSMpDGRQvJWrceKg9T6xpOngEM+Xfw87sV1m1wYjQAnOZUF2pwqC+4jzwTwEmqtle2vYLlOu6xZgFncVQf4L2df+SEwca0kpnkmbPAOJK7Fhzm3l9HbKt2PWse/TAieWRh2pI7yUviVDEW3kngkzuLvXwbO3bW8J35aq6fMwmrATCNYWnRG6wpa70pb8Ll7TmRpcsmYVEA99dUvPkKL5cF5r/tnTeT2+dcS64xC3PxfSy1L4jeb+9bWLlkXLBV6lkaKvexY89hTrjAYLZxZf7VjC7sT4wcG/qi5dwTTJC4Gw6zZcMb7D8eaBV55Q2PcvvUYIMH5x9Zs/iV6JaGamJWQ0V5U4q5+flkuY7F8wMzFNv3PMyrsRqguZo9p6o8VvqiB1k5Z1ioTM66wxzc8wc+bXCBycqIocPJKxwWXiEdMV+srDdyvxUC59Y23ttewynTSG6dfy1WAyjW61hatCf6M8rUtRAUWV8lXE8K0QFSTxzmWPBEJQ3Pott3GGVTuNm+79/H0Zjfq8Wq2n1/RTNnYPDX3X64b9CivBt9q+mfHtElmb+j3/M3yB8WuiHV2E9CnhVPvJs0lwtN5GtFF/HCiaa1G7M6J1oIt1gzKUCzSqF2PRUNI5kQTGS663bzamtTu+Wuw3P7JLym7GA32UPoX7of7YkUWgjlzQ63EMSJfkcrXf4SEJXgoA/eXNAZduCJvJl2f4PyVmmwi9EV+EcsxzOvODSRDKZiPGMvD3d7G7EDd9QDwDl0FVvRv/s6mlOfByZosRbhL5qEL731bYDzEN1+thL/T/fQaAn/WVuxkqx3R+H+1TXBFhHB8tYW4Zsd8cATVV7wDyjFd3tJaDIZv7UIbw7o6uMFcA5dxWaUl1ZB31I8P5uNp+kOwRRsnVRbQta8iFUiu6oSp8tulGn4hoS7YeI6RtYzy9EeD3Y1716E3zIKf9EkvH3PtbahgITPq+X4Iu7YNQ2HUF5aGegKrR+F/8eluKcMDB7LYDfKiGtD89Jgsl+K2Fyzcsek9ljlvI6n+flYthHl9dLAy+5F+G5fR2N+jCeRvBSvBftJaNqn8bLmW23B3zu8b619I/B0jKUSOK/USrW8EV1etQ3H0B05hPbgbjT1TUmnK/DnPYDnrmvC61ryw/tR8xnFLEcS9aTK+iql8sak5vNNZN1DaMuOorltcPD7NyfmuLb+HxdFfP+eQ/+xuu+YABV1rKpzQ019le7vhQSpKm+KMav+PlJ5rFK5BtXGnIa6LuxyvKNzAnHvXYWyZTP+EVtx3x0+Jj7LKGA9eMp56YXhPLlkJEayMBfeyS9CPWJcOLtQ4nDa1OGB5Ie9nFcTOe+VLBT31xx8YTWvVjX9SG9nXZWdO59dQYERDEMnMVZfGdWa70R95EExNL8jT4z7a8qef4TNR4Jr179BaR38/KlJmMkiZ2g+lJW3uolEyztiznVYFYCv2bt8GW+fCr93quod1lR/yaLnFpFnyCJ36i1QFm7tOHlBcTCJdpqKtUt4+UhEaevt1FbYMdpWECvHPmHMoGCXxi/Y8uj6qGP453dX85jyBE9O7AfGfMYXQG1Ebyo1Mauhprypxhx1PhnC+3M77dQncB6rOlb6Yu6f1ZQ0PE3F88t4uSqiwUq9nfqqfby/KXqfamO+uJ2k4vlHwse53k7po0rcaz9T10KUFOpJIdqbNtUV/dNzI7qieNHt+UNU0hBA447zu3PZZ+hDdaQOb/73W24/P6LLrKMWXRX4bZeGupJoq/+Gf8zA0A2Ztvo/yJ77n+FMqDv6tsJvuYRU+Q2xG8m/veI2nnntQz567fGYzZxDcrfS+NMf4zGFx+rxWUbR+MsdeIdcHr2vu45ybuNXnNt4FG9u7M35xkd0IbOXRSVl0iVqH5xD2TgtYlyiz9F8OhtlY2XUCeQZ3dR6YBS+KdHr6zdNQ3lpeeABAAITtNSWon2pCP1v09dNORTvW/ej+e5zNCcizknnoUD3plOH0DYfliZnXrg1K6B/a1rUOEya48vR/aqMcPr5MnxF0+LuX7d3VeABHuDEcnRHInfYM+5nm5yeRPXfMPTB3zeiKf53ZaFjrMQay7GZxM+rPvhDP/060W8pCY+f6DmE5r3X0YWKa8RbNK/lJjqYf1p01znd3vnhh3AIHKs4X74pXwvHT4b/Zgh3Q/bPrgxe41/RuGhh8K+jIOKYao7HiqRjzit11z6wq4ish4vQbVkekUQLrls1H31V7JjVfEZtlqPV81llfZVieVtS8/kmse7+DyK+fwPj2kYbhT8v8vv3ELp0zBqqoo5Vd26oqK/S+r2QOFXlzVDM6vabmXsG1XVdJGMOXgNoK0pRtgTGQ9R8+kHEuQUo4SSl58h6Hlr+MhUNZ5ttqB9Fqx/lzglDUy5Xh8m5gwILQCO1+7YluNJpKp5/JOJhuEkNW8q/DvxTsTCkrd9YkhbY7+YjzVKOp/5EffAzMhhjdS+KkGh59cUUBSdPcVVui0o6hHjK2VEeHJLEZOPGpluEnrdwVbC3lePAU9FJtDbZyGkqgv2zmAmFU5V2AsXtQc/I4qqJWQ015c1UzCr3GxojE3Dseyo6aXgBy8mxtPKfud3WDSSkl7U8zvGu/UydV81jzkg9KUTrUm5x6LNGJOLcf0V5K7nf/7SVJ6FpvAHzD/DmNIR/ec6xRNyAetGVB37d9ZuaWjh+i7auG76JTX3/T6Db6oTcH4RvAh1/j25xqKJVm8Yev1I/WvYOR1tdexS+m+J13bkM9z2b0ay6NdTyMLLVUUw91+G1hV/qy0rjL5uSM+hqox8AcFah+zTGL+yffoDu5nx8TSGHxkcswRfRyo+GMvT722HihnjixKut/X3cVfyjB0Y9qHluO4znttZ3480pQmFHyzcaykIPDu1rM9q6VRCa7MCIe956PDevQnekEm3FZrRVCXYxTOq8OkNogCaMeGZsQNvwdOABr3sR/imz8UacxhpnB372Md2KL7JlsvsoypZEu17Ow5/qtVD3TbgOUpruKkbhzw23PvTZrgHWA1dEJDfOxE5ydch5paK8Ua7AP+IBfFNG4TUbw5MNxKXmM4ohqfM5HfVVsuWNQc3nm9S669FWzYfRwfPQnB/d8itnYVT9r6tY32ILbU1wBC1be6Vex/ZUeW6kXl+l43sh+WOl7lpI63dZEtTtNxP3DOmq6yK4m4+9uBndA5vRxVncc+IAL684wOs5hUyb8xMmWAP3tIpxIAWzllIw/Wsq3nyKlw92zi6HV07PD4xy46pmb6Jd9ep2x00Onam245zYD2PzpFY6tLLfRCVcXtsg+ga/Axpq4rdgrHc4gT6AEZMNqAAKraHWd8fLk216WkO9M9jRwTKMsfqdLZKHvfMtwWGWznIm8rRSE7MaasqbqZhV7jfP2lTxfMn+N7tQ82I1pjzKypLWek2cpuKJe3k51r2vmnUh+Ws/U+dVpEzVk0K0IfWuypEPRg3/k/Tqmq3H0I3pE7zR7ItvYjd0G88D4J86IHwD6v5rqBuzP3TvfRpN7SXhGznn/wQeegrCQWmd54Dwzbem4TTQlHi8FL8ViFfJRI2HSHQCMlk954XHk3IfCwyOnfc67ruC3V+UgTSu2oryzDx0zkXhZTkZM3ngvyGiJYKrMv6MmEmITlaeBwZHHGvAEa8N/EY0jscIDfZoDCaCc6MHNtfWH2q+YudjTOPPRa4OmiEH0LxUivLLx0Kz9wL4DZfhKbgGCq4BzqGrLkO/ZRWaVrrFJ3derUJXVRLqSue3XMP5X10TZ9l6lC2Z/vxzmtVXx5JYV8W14KlE6wKvAZpafOkamiXlDVfgzQNdVcR+XDEmRoEOOq9UXvsAvYPdZJMaqkzNZ9RSUuez2voqpfLGoObzTXJdzbuH0I3+cfAYXYZvQgm64OQn/in5Ed+/R1t0Y05ZynWs2nNDRX2Vzu+FhKksb0ZiVrnfjNwzpKGua0Z3cENKkXxXX86uuusCiUPnl9RhxmrMAkM/CuY/QW/jMko/6mTJQ30xE4Ktcuz7fsef07HNiOdko8kCdKKkSjLltYTHQLfO2sSGWW1tPJwAyDGHbgRS6rK+d98XTJszCEUZxE2rF0LzMQ4n9gss6Kzm48hEh4qY1VBV3gzFrHa/TZMg4WzguHQz7XwydV4lqjPXk+KCl2Li0BTROgZwt5w/r01nGtDVNOK1BSpQr+37KMGT3zc0PHaitjqiz17TzXSLLtDB1yZDxPg6Psi9JPza5UMDoa7CMcctbHovalqvb9HUJVqoGCzhmfo0dcFWA1WzUX6zFf/9wZaISg7un+6JikZTE+PGWb8Kb0G4tZKu6nUVgTWZFz35S9yb5zgiH3Dc59MQT9ehjTXzbUfzbET30CG04x/DOyEvNIZmWDbeodfgHToq/qysKZxXmk270efNjBgHLZZz6N9Nx9hoavVpVl+103na4lo4Ci6CXZCN+PuCf8jgQFLGfQ6Nko2fbLxXLURX3S38ubma96PvpGJe+/PwppRES+Nn1C71ZDypljfDzixCV/PjUKtMb+40FLYCC/ENiRhrs/qDzMTXtH/nSdJxbnRkfaX+e6GD6qsImfou6xTfoYlI6D7HibYi9ZnHcwIzo+CseYPSF2voO/o+ls4fjpEsrNN/wlUfPcUnKW89/ULdLd1fsH97+r+zXI6GtG9TjfYtbyOeYMcmQ2hoJDdnUujB6in7kKrpgygwgmIeyexHRtJioBr3l+x9/pW4bScSE45ZDbXlTU56Yla3XxuGmLO8XOA+Ws38VGeHVrNuh8jUedX56klx4UsxcehA4yTiF9h4M9K1PoSids8XaG3/EkiemXLx5tnRKT8KttABOIFu+z9aruj6e8xWgH5zeCIWrd0F1oiWg5Un0c4Jd6Xx2kwoxL7g/La+4Rfub9WNIZjTJzyhy5mIpNyRErJ+E28Gwm/Qb2n5AOP/8aSIB596lN+mfpMaMuLHUd20tPZDgBFNKOFBK7+wL49OOja1eqmtR0vEgOA5o4D0jWPo757ADLWqfIOyKl/9APcd5nM0H5eg/xj03YvwD7kV35RReCKS1q3NyprKeeW7Z1pwnXPo7Gfwmy8Ldc/UuJ1oaw612cqx4xxtVl/FbzHS0kkV18IONI6IGcsNl+PPDXZzs5ehN1yD2xzoruy3ng//wOBQ80uFWmrKC4ydGZ1Ecx4l6/XSqC7zsbtuqvmMoiV9Pqupr1Iub+ZpP65EawuO8WYaFWj5qr8m4vv3G3Q7WnZThhgTHCUtmTp2nupzIz31VWrfC8kfq/RdC5n7Lktyv+18zxCbyrouzSymwP2rw14DwImDz7El/wXuyu8RGMsqFz5ph/GsUzWjsD8Arurd6Ruc36gEc7SNfOdqj1nzUpdUeV3u4OgIjdS+Np81SYysUGd3QmEvwEhO3J5R8X8ByZ13R6CrsvMYVQ4jQyx9UIKLu10nsVfv5v3X9lD7XfpiVkNVeTMUs7r91nDCQaB+NxjpS/zObyJDMnVeJSpUT4Lb3bnqSXHhS3lyFE1kdt0UY2DSIT/AXdhyRuUoVXXoQtu5BM9EE77iH4UTbTVfJHjjqcXf/Z/wDQ0/nPlR8BU2TTxyFq+tAW1kTw9zLt4hMTY1xIonojiautYDGFw0k+uLbPEX2FVE9rzLyZ53ebOxb4CqErJ+9jpKw7lQIlTbcJSsX06LUe4SfAXhsXU0NbtbjSsh3RfivTlycPCmB8WywINLE1N+i0lcABhbFJ61E9DW7Qv+62j0+uYiPJOLUgrR13tw1Gv/5DLcQ+MlqlOnqfkqIhl9Gd4pnWBCD+Oo5Ff6rgzNp/PRPTaYbs8cir7AY47NlMJ5lfM63qaZKJ1VKI/lk3X35aHzvNvdg1Gend+hScPWj9XnzeqrGGOlDNnabEbPJuquBc2piFnmLaWhcbx0xzeirf0m8MJgxTc64geGU+q66aqjrrx+6+URyWonym8nNRtnswh/z1iJfzWfUaRU6snU66vUy9sJVP0+4vs3G8/4UnxF+RHfv7vTmnBKvY5VeW6oqK8y872grrztFXNb30fq9pu+e4ZIrces9j4nnZomtYged+5MBzwU9p1wHz9/9gXWPv4gkwckODhr3n3kmQBOUrW9Mm2xXFloC+ZxG6hL32bVS7a8lXYCH2MWfW2tPB/E4HG5gr2PetHbGvvzGHz3HTFnGIZipgWfu+r2lLLuF0tYcOdtzJ8b+G/BoiWUvhgjaagyZjVUlbcdYlZaScqma7/HHaeDO7NSUJTKgMjREopZJC5D10KiwvXkl9S2Pgm8EGmXeuKw5kTEqxzOPxa+4fLfcCWNS/LiTAjSLIDKcFcVv60Ad3B2Lfg7+j1/i72S4RI0OMI318Z/4fz6ibiN4SGovSX/i0ZLcFuuY+gqQFse+RR0Ke57R+ItCj/U+Yt+gPvef4mI+wT6N+PEANz4+Cbun3MtU+as4IWHpyZQ2hhOLEf38EC6NSUXH56E9niMhEvebLyhX72/Qb9lVWr7A+g5Cf/4Hbh/tQJ35KDwNdpYT1EAACAASURBVDuCD4qH0FRFHisj7nt24B1bEnipH4V/7FbcNw+OeGiObJ2yEe2RbyLWz8Zzwwbcd5Xi731FeBu5y/EuOkTj0qcjlj0T3YPcMgpfzhWB5W86hPuGgc264qbJwUPoIvbrK3iMxqUb8A2IePDoOQl/Xineu8pw/6Iduj86zkRdkN7Rq6L338I8vE8exb3odXwjbg0fWwgcr97NxpyK1cUqlfNqSE54DDRjHu6bFuLPmYY/R/2DXsKSOlaH0NRGno85nF+5AX/PywPHaUYZjffHm8BI3bWgaQjXb74ho4KtnALjqGnKjgYHzTfiHRJu7aJt6IiJdeJRW94zUet6xzdNSnIF/hEb8Dy9mUZbrMS/ms8oQkr1ZOr1Verl7QzWo60Kl9tvK8FtbXp1Dv3HaR5mIOU6VuW5oaa+ysj3gsrypivmZL+PVO1XzT1DqjGrvc9JJwuBoaZdOJs6wuiHMtYW/PHd3UBtezREz7uPFbOGYzb2wGgexoxlDzI2gX5IYycODTy42st5NV0/LvSeyrTgGILumj/wfscNFd2mpMt75g2qgsOOGQsXcueQJBI7Bz4LjVhmHTOzxdsDbv4598RrlJE7MDSpQ9LUxKyGmvKmK+a6L2n6DcFcOLHt5VXut3ZndSgxlTtrOZN7J7V6QLIxi8Rl6lpIRCeuJ8XFIeXJUTTb/4J+TN9QlzC/pYBzrxYkv52oSVKy8Tddn45adFVxVlICt4bamr9DfsTszvwdresSfFHjR5xDv/2vgX29+ynKmH7hBKPSD/ecfrjnxNqJF235n+O3uMi9g4KIlomKdRJzc3fyaju1OfeNj2gZaD+UfEsQ4yjObYzfAkzjOES3NeGHbM17G1BGPxZOLCqX4b7tGdy3PRNzfW3FuqiYNJvWoQyJWJ9svAWz8Ra07CpLXeR4jqvQ2udD0wOskkPjqj1tlU49zyp0HxThjUhM+mzX0PizOIPoO0+m/ze+qqNo3fnhGVkNg2n8WbNuls5DZD9QEn6tGPHmF+PNL25z89rqlu3tUzqvjtSju2Fg6Jr1TliBd0LLxQJdAMtQnl0U8den8WycSWs9fTw3fIXnhvDr5rOzAkkfK80HZehHz4yor67h/DPxJkhoVg4118Lxk2gZGDjGhuzA/x3BFoX1O9A6ivGawGcMzfSE5njzLaZiHt6nH4v6YaC5eMdZVXmPHEN3QzhR4xs6m3MbY1zzMaj5jJqkWk+mXF+pKG9nED1JSuT376H437+pUlHHqjo31NRXGfpeUFXedMWc7PeRyv2mfs+Qesxq73NSlXv38yzNd2OvruZIzRccdQwM9kx34TYUMv62qxlfOAxT8F7WWb4tfd2BI+MotBJ1u6yYybXC/tbuY3vOZKwtC2ikdt+25HdqGsb1BXV8UlPHiTOBTPOVE+5jRslwzArgPsaODdGtOvU9zZiNkWeLKXzuKL3IyYmYktvtpP5EGscgTLG8O7YeZvSSkRjpRcGS5xlQU01V+WE+qQukjHpbRzJk6FBybWYM1U+x5MVAF3U8O/mk5jqstiwwT+L5xxRef/MPnDDYmFZyHXnmHsDXNDT0w9y8s1ftlzi4GiNgLVnLUtMB6lwAp6mvruGEC8BNfX3sYZpSjlkNNeVNV8yenRyx34jFAorlRp5/fCBl23fzaUNE02+Xg/pT4deq9lv/CrtqCpltywJlIDOeep4ry8v5pPyPHHcABjO5hSO5Kn847j23URprfL8UYhaJU/P5pqW+SqGeFKIjpD6r8hkHujeP4ZszMM4v32fR2V14LW2Mz9NskpQAL7ryGN2GmsaF4FK8Q0D3670oj03AY7kEv/tb9FsPom/4Pu4Fw/EadGhcJ9Bv/xTd3nCEup//J/7V/4bHoGux/ej9/wfKi61UuA1OIochAmf4l+J067kuNIg9gL6sNP6yKdDWfEDWmkXN/roR3S8H4k9g4H9d5QaU5t2wPRvR/TIHfjo/asbfhOJ5bx+6nxYTe8odJ/q9n+OfMCrO+6nT7Coiy3gI94SchFrLpp1nOboPRkU9eKWL1v57stY1O29SPa/qZ6M/WIlv9GWtxulXjHiH/hjvi6NQfjMt9sQsqUr2WJ15AN1bg/HdNjjOZ+tEv+kQ3HZNjKSmimuh7psW47FqjzclcLeiPb4KTJEbPaNuTNW0UFHe+tnoK47ibaVLsa76KAwd3PL6VfUZoa6eTLW+UlPezqDZJClNdBXt0apKRR2r5txQWV9l5HtB5bWQlphT+D5StV8V9wzhbSQbs8r7HDWUPljyx2HJH8eU0B/7M2FZ9L2Yo/Jllm1MQ4ImhrqaBtyFvSISuE7aGms/p6QQC4Crmr1lKXSlNg5iyoJBEWWO4PqashdK2XUq+s/WWctZGq/VmWUSK1dPCr92HmbN4vVpGzcu1fJ6jqzn8a0mVpYMxEAPTLaRTLCNJMZvFjibbXb/C+9QUHoruQYwWMZx17JxEe+e5ODaRzgxfSMzWmxpD+/vGcfiif1Q6EVu8bXkNr3VrFOU2/EFezc8x/u14eccNTGrkXp50xfzjq1/pGDJ1ZgAg3k4UxYMjz5H695m/i92pm2/+5+cj/LQC9xk6wH0wlo4CWvhpBbLtdbQONmYReLUfL5pqa9SqCeF6Agpd1UG0JR9RtYTB9E3nA4/HLvPoqurIuuJ3Sjlf08siD1fRAfi/ivKuy1vOzWOb4P/6oWvMNDFWLdyL93mvk/2nWXo97rhyFcoiz4ge+77dFv0Cbq9za7oU39Dv+gDsg58ia7FbNCNaBtqyXriA5QXY0zKEunMO2zec4zAV+5pjrz2XLs1GfbfEJEkc1Wi3682AXMOrfMb9BUf0O1nI2MkDYNOLUf/wES6vXUIveNcVAJE43aiqzlE1q8moqyL0x3w1Cp0D02k24u/R7E70UZ9FE0xvEO33zTrdlQ7G+WXr6PYnRHn1Tl0dfvI+tkk9FvqY06Okw6aLaPI+tk6lMp6dK7mZT6Hzn4Mpex1uv1yZfvsf1cR3X71QYzjFctGdKtWklVWia6h5fKhz+iZErIem99i7dTPqytaG5u7JeUy3DPSP7tycscKNPsnkfWrD9A3xDmv9rdyAad6LXgq0Ub9mOhEVxZ++NSUfR5d9zk7w2QyqLr2NS+V0O2joxHj5wWvnbrgOs8ejXv9qvmMVNeTKdZXasrbGWg/rmz2/XsU5b04LbrSINU6NvVzQ319lYnvBVX1VZpiTraOVb3fVO8Z1MSs9j4nBXXbf8eWfX/C3nCalnOANOJ2fo29cje/WT6PZb8+kLb9NucpK2VL9enA6DDuRO5j85mWH2gM4Kjcxp+T2Nfe5x/jpT1NZW6MeCdQ3iN7nmX+omVsPtKZBvtPvbwApz5azQPLn2Vv5Zc4XI1R77ldp2moOcyWtf/OkuaJ4TN7WPPg43xUc5LQMJfuszRU7+Y3y5fxaivHyNHgDI/24z6Ly3UWl6uR5msopkFMWfYEc3Oj/55yzGqoKG+6YvYceYWHl7/MwZqvE06Kqt3vx08u4IG1m6moO9msHmjE2fAFFW+uid3aUEXMInEZuRZCml+zjbgdX1LVKetJcTHRdNe1z5BxAP6bR3B+YtNA9d+iPFEWuzVNwY9oXDAk9Au17sBOlI0xxmMrGsb5OcFfkl3/h+xF6gd98T57faibirZyD1m/biNh2NH0pXh+MzvUZUl38P70zKYsLm4qziv/TYc4P6Hpunai/KYEXdXnEUtcgT/vATx3XYM39MB+jOx5HTgGori4SD2ZuhE7aLw73MX7Qjt2Ul+Jzi737udZWtgLZ/kalrxYnelw4tIXLefXcwah8CUf3ffIBT++Vpcrb+4drF0W6KrsrnubBTFam+l7Whk9ayE3FfZBAdw1r7LgSenyKERnMPnhTcywIq1FRaelqsVhm4w9ElrMO2tQuFuL+1jspCHAgfrw4NuGITTebYi9XJA/1iSyzWgc4VaHPlu/tlfoYP4fF4UehqH+gnqgE5mT+nk1L2rWWuxlzR7CAT5HUzUfXXt13ReiGaknU6Sfh/fmiHEh3UcvsGMn9ZXo/AaYAt3aXE57G0tm1rTiQcFk08UxKH9XK+/Y6YXB4ZO+puz52EkHz5k69r+4jdrgs5SitP4cJYQQQjRp38RhW3K+h/fxKRGzITei2/5F/OU9f0NX3dT9WYevcAKND30ff8SMVP5cI94HrqLx1evxDm07BE3d1+EXhkE0PhQeXMdf9APcj/8g4eKkX0nUQ4+2sh1m8hUXITXnVQ7+yPtMSxGe8QujlvD3XYhvUSXuiPF/sR9NKVIh2ib1ZEpySvGuWh41gY7ug/SOn5t5Ul+Jzs5GjgngLCfq0jipR7rl3EGBBeAsR/ZcBC3UumB5DUrTWPFuzrQ2J0bOoNDsyy6no73DEkIIcYFo367KdxdxvvDS4KtgV2XrlZwrGRA7mLr/pNsv2vgS038Pz/riiNYlrSy69X30rYwPkdj2vOj2/R5lU5xWkEJcVEbhW7mVRkvbS4Y5UZ6ZlN7JUYQQyZtcxrkbBsZ8S1P3Dt0ef6CDA2pvUl8JIS4OObetZWVxYExGd8OfeG/rNj6uCrdi7d7bxpCJ1zKjeBgmBeAkZY8uYbOKmcJ751hIvc2ii/p6SVwK0US6KovOLvVZldPKi9ZeQVZbSUMAz9/QP3EI/5ICvK3OjHwaTSJdjzx/Q/faEXzzh8SZBVCHN78fyqa/JrAxIS50h9D+5nX0q2bjSeRu0VWP8tZyeQgXohPT2n9P1gWXNASpr4QQF4v6N39Hme0+isxZKObh3HTvcG6Ku/RJqjaUqkoawlTuXH0j1pTXP8Z7c1ezS00IQgghOkzHJw5dPjQQbOZ4Dm3DV+h2foHuYBIzBB1vQFn0Abp5w/AOvRyfMTu8PcdJdJV/QfdW4l0+NAf/Qlbd/+CdMxivtQ8+RQd40ThPoiv/DP1bnWzCFCEy6dRy9PfvQFf0AN7RV+AzG/FFtNjVuM+hcXyFrmo3uvcutK6PQnRhLlp+/370NLpPdmQ2rvYk9ZUQ4mLgqWbzivnsL7iFaVPzyTUbI7ovA+5GXM4Gaiu3se6tyszFKYQQoktq167KQgghhBBCCCGEEEKIrimzk6MIIYQQQgghhBBCCCE6JUkcCiGEEEIIIYQQQgghWpDEoRBCCCGEEEIIIYQQogVJHAohhBBCCCGEEEIIIVqQxKEQQgghhBBCCCGEEKIFfaYDEEKIpOUuZO2ykRhjvec8zJrF66nt6JhEFzeV5a/eiDXme8d4b+5qdnVwREIIIYQQQgiRaZI4FCrYuPPZFRQYgbq3mf+LnZkOqJ1dbOUVQgghhBBCCCHExSzlxGHu3c+ztLAXbbbEiGgZ5Cx/nCUv1qS6SyEubD2HMn76OK4aOpTv9s1nzUeZDigBGY/5NBVP3MvLyTQv7G5j/JyZjM+3YFKyAn9zN+KwV/Lx1t/xca2r2QoRCeMY3K6TNNTV8cnO5uu2vl5cEUnpcD3btrj1a7LlnfIoG0oGBl+c5OCjS3i1PtYewy306rbeRmlXOF9btZPSuc1+DIg6FkIIIYQQQghx8ZExDoXoLMxXM7l4OBZTVtdpCtzFYu49+j6eWL+CmwoHhpNoAEoWJutIblr2Ik/cnZ/UNhVDHyxDg+v++5g0R6yO+vL2oWBWcbvHKYQQQgghhBCic+oKz/pCCKGafshCVswfHhwX8TR15R+ya2cNpzAxoHgS04oHYQRMhYt5wvUwyzbZW27E+Sd+u3YbTQ3wDGYbI8aMo2BoPwyAKf9O1s5zsGRjDVDDliceZpfSbBtj7mDlxP4A2Pc8zKsHmr3vcoT+WfdmKY/tVBJa1+1sSH95AcU2jut77uP9MzHfFkIIIYQQQghxAZPEoRDiImDj9vkjQ0m0irVLePmIO/ienfpNlRzcM5Wlq2/EqoCp+A6u3/5IjGSZm1P19lDikHo7tRV72NI3vK5xzC1cvzWw7pkTdlpswukOb81ppz5mN+AAz5kG6iM3kPC66SjvSRyOPphM/SkosfD+xtiJRSGEEEIIIYQQFy7pqiyEuODpi64jLzjWoGPfUxFJtDDPiZ28vO/r4Kv+FEy3JLx9z4mdbC4/GVo3t1BdvGqlp7xOqsq/BMBUeAtj5WcmIYQQQgghhLjoZP5RsGng/qEWTIaIMbjcjbhcDhyV77B6U2XL1XIKmTz1aoZYrZiNPVCU8HpORw0VW9/g7aqGFus16TlkJrNLChli7hNeNxbnYdYsXk/U3AvdLYyd9RMmFyY6uUJLA25+lMUTB2LgNEdeW82zZY4211FFTczdLYyYPpNphTZMxixCh9p1Fndrx47MH+eUqChvUjFHTBzUnLVkExtKYrwRbzZntcequ43xc65jrM2K2dh0HTbidjRwpHIb696qTH/MHWjCmEHBz/EY+9+M33Lu1Nbd1BbPJVcBk+1q4I2E91Ffbcc1pg8GgLbOk3aWrvKe2f4HaifOJVcZxNjpRva/62zPsIUQQgghhBBCdDIZTRzqh9zBL5ZcjSnWm0oWBmM/LBZzjDensnh1YDbPWOsZzcOYcO8wCsrXsOTF6haLDJ63lvvH9Ekt5gG3sGLJJCyGlvsNTDaQz9h9z/HIppb7Dek5k1snDgwkGOjFkDn3cX1lrG6R6aEmZv2Qn7BywTjMzdcFFEOPVvMjGT/OqexXRXkzFrPK/fYuepAVc4bFSAZmoZj6kzdxMcudXXnW3EIGNFUjDXXs8rSyqGcfdsdccs2AycJYYH+iuzEYMp0vDEpjeT372Fs9k9z8HlgKZ8K7r7RX0EIIIYQQQgghOqEMJg7HcM+9waSh+yRHDuzmYHkNJ1wAJgYUDiTHbGWAO15LqUZcDQ3U1lRzpPowxx3B9SIG/TcWLmRR+QLWVYXX0hct555gMsvdcJgtG95g//FAK5orb3iU26cGE3rOP7Jm8SvRLeB6TmTpsklYFMD9NRVvvsLLZXUA9M6bye1zriXXmIW5+D6W2hewpqxl90AAzKZmSRojRjO0HAwtDdTE3PsWVi4ZRyAHcZaGyn3s2HOYE67ApBBX5l/N6ML+xMixdY7jnCwV5U0p5tr1rHn0w3CyyXIdi4OTWcScNAOiJs5Ieb8R9EUPsnLOsFCZnHWHObjnD3za4AKTlRFDh5NXOCy8Qjpi7mg9B9I3WECn/bM2Fz/ecBbMPUAx0rcnCV+XuTZz8LicpD69ueHkqC1vM3/eXokj/2pMpkKWFv0ufdebEEIIIYQQQohOL3OJw9xh5ASzD/bty3j2o8iHUTv19S27J4ftpHRurK6PwUH/a+7j6QXDMdCDAYU2qKoJLRHqwuf+gi2Prmd/RGucP7+7mseUJ3hyYj8w5jO+AGorwu+PmHMdVgXga/YuX8bbp8Lvnap6hzXVX7LouUXkGbLInXoLlP0udvi166loGMmEYKsgd91uXq2NvahaamKevKA4mERrPrkCwUkh7BhtKyiI0W+1UxznJKkpb6oxn6iP6EZqSHzSDLX7BUBfzP2zmpKGp6l4fhkvV0Uk6uvt1Fft4/1N0ftUG3OHMxsjkr1tJ73OuJuWMSSc0NcPWcidhb0CLxoq2ZzJ46C2vM3Vv0KF/WqmWLLILb4Oyt5JT5xCCCGEEEIIITq9DE6OEn6gNVqHpnXLnorDNA3pZjRFdmi2kdPUL9r+WVQyq8mpSjuBdnE96BnZh1pfTNHQHgC4KrdFJWjCOy5nR9MECSYbN8ZovdPk7RW38cxrH/LRa4+zoL3Gf1MTc89buMoaGOvOcSD25ArxdZ7jnDA15c1UzCr323P6OHKDyXvHvqeik4YiDoXeORZygv/lFkzk1gfW8vSSpnEfT3LwtcTHRewqduz8Ey4ASyFzczIdjRBCCCGEEEKIjpK5xGHtK1QFezAa8xez4dlHuXNCfpo27sQdM+9TQ33T2P6WYTFnCe2dbwkmAM5yJrKHpW0QfYNJloaa8rh7rnc07cCIydZ6lEfL3uH9sprWF1JDTcyF1lDru+Pl8SdXiK1zHeeEqClvpmJWud88a1Pzsi9bnUBDRDAO5/bVv2Bl8L+lC26laGhwQhTXl+z9+bJ2az2cSZ6K54L1dR8KZhVnOhwhhBBCCCGEEB0ko5OjbH7iZYzL7iTPBBgHUjBrMQWzwO34kiOVH7LurfjJEIArb76Pafm26FmV27B33xdMmzMIRRnETasXQvOx9yb2CyzorObjiO6zWMLjElpnbWLDrLb21KwlXSaoiDnH3LSmC2cKOaWudpxVlTdT54bK/fZtmj3Z2cDx1ibQ6Opcroj2zW1XFD1DlYmT+rq2lm7E5bBzZM82Xt6byYENI6gtb8xZp+C98i8ZPbU/im0c1/fc126TOQkhhBBCCCGE6Dw6NHHodjXrCnnqAOuWHqBv3kymTS0kz9oHBYIzuS5iw8RbOPJmKc/ubYher/dUlq++EWvMWSpa5yn7kKrpgygwgmIeyexHRjK7RaBfsvf5ZhN2JK0RT5fr+RmO2WBoSia4OZNCObracVZb3uRk6tyI3K8NQwrXT5dU/zVOwAQYzRag9QTfAHOg+zcuB47mCVXnYdYsXq/ynG1n6SxvhDPbP6SqeBF5hv4UlFh4f2O6AhZCCCGEEEII0VmlnDh0uZratJjIyYW4T9IRDV6cjthNuU5UvcPLVYEB93vnFTN54nWMtvVCoRdDZi3nTvu9vByx/evvbUoaNtJQ/gabt5ZTeyoyE2PjzmdjT2KRO++OwN+dx6hyGBli6RNqreh2ncRevZv3X9tD7XfNC+zGDSg0UvvafNaUxSlvZ6Ii5jq7Ewp7AUZyrMT5fOO3Zupqx1lVeTN1bqjabw0nHIARMBjpS/xLuOvbQ73jVqwmwDyMsfqdMcfdBKDnTHKbJi2yf8anHRViWrVTeT3l7KicSd6YPpjyr+PKjcfSG7YQQgghhBBCiE4n5cRhvd2Bmz4o9KK3VYHa2JNJ5BRag90pT3OizW5/cKpqH5ur9rGloGlm5F7kjrFBbXAsQP1UhlgC/3RV/45HXjyQRNTFTAvOfFq3p5R1HyUxAUalHcecQZjJoq/NBmkYm3Bw0Uxy+az9xjlUEbMn2N2xtc938N13xEzOdrbjnAhV5W2HmBUU2pwRV+V+jztOg7UXKFYKihT2lyUzAU5LCcWcIftrTlI0pg8ogxg73cj+d50xl8spKSRQvTRyvDyZuqVzaa/y1m8txz7mWiyGoUwoSixx2HfCfSyaasPgquPjDc+x63ji50im1hVCCCGEEEIIEZD65CiVdTR1ILZOvIPBsVKQvadya2GfwL8d1UlNGuCpcRB61I1s6GXtFxrXLc4MKFx190/Ii5XgyR0YmkwiaWfeoCrYYNJYuJA7h6S6oYAbH9/E/XOuZcqcFbzw8FRV24pLTcwHPqOpfah1zMwWbw+4+efcE0wOttCJjnPC1JQ3XTHXfRk6582FE9teXuV+a3dWE5iXJovcWcuZ3Dup1QOSjTlD6rdXhuory8T7YpZVP2Qhi8c01VcHWKMykZpJ7VbeM++wq/IskEVu8Uja7O2edx8rZg3HbOyB0TyMGcsejDlZUqdaVwghhBBCCCFEiE7RsiqlNc8fxWWZyL+asyD7ckaNHUrffzrHP/6uw2C0kjf9FhbM/n+5PBvgLFWvlfLpf/tCq+fOe4IVJWP54T/3Ied73fiHV8FoNGI0Wsmbeh2zZhdhyQY4zWebX+dPp4IrnjLyL1PzMOlAMQ9msNHFP771oVjzmTz9Nm6/cx6jLJega9rR346y4z//K7iuieHTh3EpcOngseQaL6HvDwcz6Ip/5p+8bnQGI0ajgTNn/hGzyP/lMHP1VZeTTTb/fNV4rrL1p7fi5Uww9gH5kxj/v26iZM4tXGv5C3v+tyPmdsi9g9sn9ye76UO49HJ61+ziz6diL65GyjH7/gudbSr/YtLBJQMZn2/E0fAtOkshs+99kJlX9kHH1zQ0XMIll9A5j3My1JQ3XTH7/ove+dfxQyPojEMYX2ih+9+d/ENrCF4bRoyKmzPfudOz3zOVuJvKrLuUKyYWM9h8KTqvE59ixGi2UTD1Bm6du4irtNs48F8tQ04l5rQwjWDSmMvJ5hz/fWBXuH6I57tqvjYVM9qSHSprrvEcrm99KGYb42f9O3fNGMQlAJym4oWn+NM3TfWVieHXXM0/ZwPnv+KT33+Kqkv1h2OZNvhSAP72eZzjGqTvaeafL7s0fCx/NIIiayCB/Y///hPHncbQewZc/OO8T315Q/F9yxcf7Kd5u8KvG/pxVXF/DMZewfXjlyN3+i0UXZ4d/oNO4fznCXxeGVw3ShvHQgghhBBCCCEudKraYHz6wnpyV99HkTkrMCvy1IEUtGg8d5a6ratZV9EscaAYMJp7kWfuTx4wJeYezmLf81zU+Iawjy17xrFian8UemAtnss9xc1Wc35BnXtQYIyvKHt4f884Fk/sh0IvcouvJbfprWZxux1fsHfDc7xfGx470XNkPY9vNbGyZCAGemCyjWSCbSQTYkTubC1P0uDECeGWkzhxNsRfXA01Me9/4R0KSm8l1wAGyzjuWjYu4t2THFz7CCemb2RGiy11kuOcpNTLm76Yd2z9IwVLrsYEGMzDmbJgePS1Ufc283+xM2373f/kfJSHXuAmWw+gF9bCSVgLJ7VYrrVRBpKNOVNqN97Lbw1ruT2/D9CL3OK55DavOzhJxfOP8PKRztHa0DprOUvjtHS1TPwFKyMaeTrLH2fJi+Hu6u1W3vpXqLBfzRRL24vW1TTgLuwV0WjciSPBui5T6wohhBBCCCGECEu9xSGA7xs++48d1LrMmEz/hPGS7FBLP7f7NN98vp/Xnn2Kd6tajq/l1n6ff/5+N7opWnRKVriFIIHJM/67+gCvP/8Ubx9u2TLrzOf7+JPDRH+LmUsMuuC6jbgcf6Vq+4usXL+dSwqv44pLadEyDNMIrr4yMHsz7rO46myEOwAAIABJREFUzrsDPZ4VXVQMOkMffjhmTIuWgN/91372ln9Jt0vNGI0GDEp4LbfrNN/U/Zmdrz3Ji7v/O/5xO3+UesNQhlsvReE0R177Fa/Wtt80uynHfL6OT/Z9gd5q4/8x9kCnA9xnafh8H689+xy/P+7mh//WiY9zstSUN00x+76ppKz8JN+73IzReAnZumYLtMN+jx/cSVndWb73fTPfu6QH4dUbcTb8hc/+v9/x3O5v0hqzasm2OAyqr9hDWZ3CZZd/D5Mh+BkDbufXHPs/H/Dq4y+wp755Ei1zLQ5N/zqZ0ZEt51px/r//2KIla0rlTaCV3RdOC+ML+4USc/HK4fv/D/APazFXfD8bnfs0RzYnXtdlat0o0uJQCCGEEEIIcZHTdNfhz3QQHSb3DtYuuxoj4K57mwUxWkHpe1oZPWshNxUGkl7umldZ8OS+Dg+1S5PjLNpb7kLWLhuJkdNUPHFvs1bJQqTJlEfZUDIQOMZ7c1ezK9PxCCGEEEIIIUQHS31ylC5o7PTCYPfgryl7PnbXSc+ZOva/uC00qa6itDn8v2hGjrMQQgghhBBCCCFE13dRJQ4NSlbwX27OtNZrLWdQaFZglzMNE29cZOQ4CyGEEEIIIYQQQnR9qiZH6WqO2E8yw9oH6M+01ffh3rqNj6vsofe797YxZOK1zCgeRmBelZNUbC/PULRdVyaOc+8cC6m3WXRRXy+JSyGEEEIIIYQQQohIF9cYh/qh3No0C3SbTlK1oZR1ByWhlLQOP85TWf7qjVhTXl/GL+tyQmMcxuA8zJrF65FhD0VyWqtHpI4QQgghhBBCXJwuqhaHeKrZvGI++wtuYdrUfHLNxohutYC7EZezgdrKbax7qzJzcXZ1cpyFEEIIIYQQQgghuryLq8WhEEIIIYQQQgghhBAiIRfV5ChCCCGEEEIIIYQQQojESOJQCCGEEEIIIYQQQgjRgiQOhRBCCCGEEEIIIYQQLUjiUAghhBBCCCGEEEII0YIkDoUQQgghhBBCCCGEEC1I4lAIIYQQQgghhBBCCNGCPtMBiEyzceezKygwAnVvM/8XOzMdUDu72MorOhv9gKncv+BacrCz64Wn2HXcnemQLkhynIUQQgghhBBCvfQlDrtbGDF9JtMKbZiMWSjBP7vdp3HU1VC1ZxvvVzWkbXdCdEo9hzJ++jiuGjqU7/bNZ81HmQ4oAV0x5i4rn7uW3EiuAWAQMxbcwq6lv2t7NTWf0UX5+aZ4nDNJvkOFEEIIIYQQnVBaEod9JzzI0lnDMMZ4T1F6YbaNxGyzYXriXl6uTcceheikzFczuXg4RqAu07EkqivG3GUZMSgRLxWFXKDNalHNZ3RRfr4pHucMke9QIYQQQgghRGelOnHYe8qjrCwZGGodgetraqurqXO4AQWTxUaO1YzZoHZPQgjR1e3jt28OZ8WcYRg5zZHt2zptMqtr6zrHWb5DhRBCCCGEEJ2ZusRhzk9YGnrgOUvtm6tZszd2V6ruOUMxO1XtTQghurxTZU+xpCzTUVz4usRxTvN3aE6OBXBTX598l2Y16wohhBBCCCEuXKoSh2NnjcEEQCN1Wx9hzV5H3GW/q6/muJqdCSGEEBeQtH6HBlsuwmkqku3SrGZdIYQQQgghxAUt9cRhz5mMtWUF/t2wj9KP4j/wxNM9p5DJU69miNWK2dgDJTQafCNORw0VW9/g7RiDwU9+eBMzrOAsf5wlL9bQd/QdzJ1eiMUUHFDefZqGmt088nTLGXNTWzefResWk2cA3F/w+sJS9nviFEpfzNL1c8lVAPuHzF/5TtLHJa7uFsbO+gmTCy2YlOCxdzfisFfy8dbf8XGtq9V1Yw687zqLW4m/GkDPITOZXVLIEHOf8GcUi/Mwaxavj+4SqCZmNVSUN6mYcxeydtnImGOTWUs2saEkxhvxZnNWe6y62xg/5zrG2qyYjcH1acTtaOBI5TbWvVWZ9pj1ffOZMWsmBTYTxsiYG6qp2v5OzOs3vP9wkiJ3wkKun5iP1dS0jZPUlW+jdOOB1sucgJ43P8HTE/sBx3hv7mp2tbWCfiqPvnIjFsC+dR6rP3Kri7mV4x33XFDzGWX4nFRTP6uSynHOZMxp+A4VQgghhBBCiPaWcuJQP8aGJfjvhuoPU9jCVBavvhFrrLeULIzmYUy4dxgF5WtY8mJ1nG2YGPvQC8y29Wi2fi/MQ29kw5o+zI87k2Yy61ayo/IkeWP6gGKlYIzC/jJ3zK3qJ14dSBoCdeXb4uw7efoBt7BiySQszce5UrIwWUdy07J8xu57jkc2tTxW+iE/YeWCcTHHyFIMPWgtjzZ43lruH9Onw2NWQ015Mxazyv32LnowOJ5bc1kopv7kTVzMcudtlKZxRt0BN/+cxRP70+IwK1mYLMOZcO9wRte8yr1P7ou/EUM+cx9fyGhzVvTflT5Yx9zJC2YjC1pJ+CTiTF0DLvphwETfRGbIsPYPHsfTnLDHuM47IObOQP21oKZ+zpSOi1n9d6gQQgghhBBCtL+UE4e5FlPwX6c5Xpnq4IWNuBoaqK2p5kj1YY47AEwMKJ7EtOJBGAFj4UIWlS9gXVXLtY2FdzIbgLPYy7exY2cN35mv5vo5k7AaANMYlha9wZoYSb5k163fWo59zLVYyCK3+Dooi92ScFrhwMA/3F/wyZ7YycWk9ZzI0mWTsCiA+2sq3nyFl8sC86P2zpvJ7XOuJdeYhbn4PpbaF0SXt/ctrFwyDnOwrA2V+9ix5zAnXGAw27gy/2pGF8ZI/gD6ouXcE0wauhsOs2XDG+w/Hvisr7zhUW6fOjCwnvOPrFn8SnQ+Rk3Maqgob0ox165nzaMfhpORlutYPD8wg619z8O8GqvBnKtZyyKVx0pf9CAr5wwLlclZd5iDe/7Apw0uMFkZMXQ4eYXDwiukIebeUx5l6cT+gW24TnKk/EPK9tVxChMDiscxuXAYJgMYbHNZO6+BJRtrYmzUQN6CxYFWrBHbiLwOFeu1LMrbGfP6T1iDExdgwIDJTNuJQ4spmDh04bSnIebmxxsL05bcSV7MpnFx1knmM+oE5ySoq59TkspxzmDM6fkOFUIIIYQQQoj2lXLi0GLqFfyXgxMpjYe0k9K5sVrl2KnfVMnBmvt4esFwDPRgQKENqmIlHgD315Q9/wibjwQf5OrfoLQOfv7UJMxkkTM0H8rK1a975h3210xkti0LLIXcmvMOm+ubba/nLeQFm5C4qnfH786cpBFzrvu/7N17bFN3/v/55/c3cSSMFmd/GAkjxexiVjZqgkjQxKgFQVAJoqkQlC+XwrSUTqAN9Ad0UjQBFfqbtGqogJnCDJel9NuWlg6F6WVRAXHRJGxpRVJNUjUZ4WhrJByJIOHsYrR49Iuj/e4fthMndkLi40tCXg8JKdg+Pp/P53zO+Zzz9ueCwwRwhys7q/mis/e9zuYz7Gu5zZaDWygy5+IsXwf1vT1illSWRoJo92k8UMXx1pgH3nYfbY0+LK5dlCR4uF40d0ZkmN5NTu850ic/P/2thj+Y9vJe2RSwFPN0CbQ1pibNRhjJb7JpvtseE10y9+4vFPDR3r+OJGCorHJKeX1tNGh4n8ZD1Rxvjhk+2u6jvbmOr0723aehNOeU8vKyyIIOwZt8uqeWaz1pDp+/186XsqNmA04zWOau47mzu/nqQf8vysVkgqDvElvfOhWT5lPUBiyRYafjyS+0Q3NcBG/o2u8QAKzkMs5sAiL5zX+JvTULsfILX26s4WKkfk+wRkKwoQB3U5TmPuWNmaGEnYwco6zWyVhGrs9JSKac42QozcbbUBERERERkfT7L9lOwEC6G28QnT7LYk04oJlwoCTmAS+q8x+0RzpwmC3W+M2S3Pba5RbCSZpEQZmd/vKXFff0dGu73jTAfocpp5QFheFhc8Gmr/s8wPfobuBcw73w31YXqydEXp+wjicd4eGU/uv7+wbRHslFfjT7vp8TBkE7m3yEi2o8E2KLykiajTCS32yl2eB+Jyxb2DM03l+3v2/QME16h+N30XZ2f0zQMEZnHX86ezMSuJlKwdzEA8QDTe/3DcBFtd0m2gfOZE7YP3QYfHRGzmmLvfdakl9aGFmYYjqzynrTZ7NE9hfo4FrW0pxFKTsXjFyfs2V0pHnCZDv5+f3+WXrrsMma4P3JFsPbioiIiIjI2GNoVeX0ChB6VNzHe2mYwTCD2zZfojUwmxILWIuXM+vDg/wU8/bThZG5AP1NxoZWxnLNYHLkma7DM3Avl3Z/AJgEWLC6gEbA7ejpfXerYbg9tjy0Bwj3zLPPZH7O+bjg4cRie2RI50MexI50NJJmI4zkN1tpNrjfIoct8onbXPvcQK+8Yejdp4/mQYZsdl//mY71M7ADFrsLiJ8Lz+8dKMA+UI/kZHho94frcvhHiHDv5SddvXN3OtzL4UJ4+oFp0Z5ggTsJvy0zac6iVJ0LRq7P2TIq0uxiTXXiXtNheRRVvENR/5cDN6jY/vekt41b+EpERERERMaEpAOHvY9WQ1xwYACznt/G0mJX31WVRywPF1vuUTJ3EpgLWbQAfqqPvJW/EWekI0pHUwpXUu6Zbw0ca09yYu2jNujt/Zdvi26ZaK62R7tSd5Ol62dgMs1gTc1m6D/HYdmU8AcDLVyNDRoYSLMRhvKbpTQb3e/k6OrJgQ5upWho/KNYLZGFIwJ+Bh312u3jbgDsFrBY7SQKHGbKLf99cOSBJRIsnLCOAhsQfEjQPB6zvZDnJpzhqwcwMXJAAv7MBGJHnGydC2NMqtpQERERERGRdEo6cNjeEXkQJ4/JDhO0DbOXxsRydtasDk84P4rELpIyzV0K9eEVY53l0WGPt2k+n82J7rvojoxWNZujkdgQD5IYwdpd/y3Ny2ZQYgGTbQ4v7J4TWTggRug2Vw59YPCZtzfNRhjN7/CkJs3G9utiNI+IzSSvLwDuPDBb+DXQVubCBoR8dTRan2WBdSoFZRa++pudaDXy+waYV1X6yda5MLol34Z6OL79RY73f/mZPZxYOR24T+PerRwf4KJsZFsRERERERl7kg4ctrV4Cc6djZm+w/yG6rmt0aBhFx0Np/jsbANtnbFPny42vT/YkKosiVkkxeRayHMT6vjqQTFPF4aHN4Y8f0+wCIQBwRAhwEQXbZ9UsK/+kVv06AmWYCHfwQA9Wgbu5un87cZw+Qd+odlvocA+qadXaCh4D1/LJb765DJt/0pdmo0wlN8spdnYfj3c9QMWwGxhMpnptNQT3rBYyR9snzl2Jvf03vOmPV2D6fb7CTIVs9mCFRNW11Sgi1sNZ7jmcLNg7iTshYuZ8LeHkR6H9+nMbpKzJ1vnwhhjtA0VERERERHJhOQXR2n8rmfxEuxz2VQwjHHGOeUU9Kw+/DG7j9X1CxqObL2LpEylqNwCJfNwRoKgtxqup3ZnTb7Iggu5THa5hrVpdzAYCfLkMdGR+Pg88erGAYKzpSx1h4Oh3su1HH6nispNL1KxIfyvcksVtccSBA0NptkIQ/lNQ5pNgwRlU7XfW/77kZ05KFlgfKz/UNLc5ossioGdokH2OWHZHMKneRd3PVnuvefxRxbysZJfUMYsBxDy0ngd2i97wsfAXsjTRVMiPYcDtI/QwOGQ6pWRbbN0/o45RtrQEWTyom28/f5RDrz7Bkumjc48iIiIiIjIwAysqtzUu6omeZRsfZsNRQOPmxyXX8i06Mqbjik9c2gNtALKk6++RNFI620Y1XyQ5shiILbCZ1lSWogZINjClUEWi0jKg1M0R6Zas7g3D+/h8vrPRGdpc8xdFff2tOff5rVIcDCOc3rPAgnDZiTNRhjJb6rS7L1NdKC6zV326M8b3G/b+ZaeII9z7U6WTBzW5mHDTHN7XRMd0X0u28iscQk+NLGcLWVTw38HW7iS7V5rD+7wIARgxlI2EzsQ8t4IL/jT/gFtfgiv/hy56AT9+DM0Z+SQDLdeGdk2W+fvmGOgDR0piraxa+1sbJbxWGwzWVH9BvNH8JJrIiIiIiIyfIZu8dtPVvGl/QQrHLlgmsJTW49RErhNm8eDzx8e7Ga1u8h32LCZg+G5kx4Abb9wNzQPiwnMxS+x80UzF+u8dFodPOmeR0nxdCwj/Fn1y4bbPFU+FWylLLWGF6gItFzqs8pyqpw7e4OnquZgIY+SqkNM87TQ3HCDH7zhkNFExxwKCgtxumyYW/ZTdSzSu6v7PD94luNw5YJtMYf+YOLTz//OXbOLpSuXU2QbD9yho2MKNlu/nbbdxs88LIBj5QF2WK/jDQLcp73Fw90gQIj29o7UptkII/lNVZq7z9PqW43dDib7ag69O536by7xY0dMj9qgn/aYHraG9tv+ARc9bl5w5YJpOiv2H2JWQwM/NHzHLT9gtuF0z+HJ4tmELr9I7YXE5TasNLef4nSDm9fdeWCZw2v7HbQ2fEt9nZdOrEwrXczS0hmRHwe6aDt7JC3nxfB04A+C05LLNJcjPAw3pnfwVc89npo7CXvxzPALAT8/pmjPORNs2Ppc0Ky9/f5MeeTn23vfCgVov5tgjtQk6pWRbbNy/hqUknLOsKTb0BHC6XbQJ9RpsuF0wDXNkSgiIiIi8tgw3Dfg4t5aqNrGCle4J5fJMpUC91QK4j4Z+0Bbx+nLC9lVPhUT43GUbuC10n4fD9zEG5qBY4Su1vngmxt4y6fiIDcy7989Ws+n5+G5u/UI75618tbK6ZgZj9U1h0WuOSxK8NlAvw6P146eoaT2NzjNYLYv5JXqhTHv3uP7A7u5u+xDVsR902W+uryQ7WVTMJGHs/RZnNG3yvt+MuS/yZUTB/mqrfcYG0mzEcnnN3VpPnf2O0qq5mEFzLbZPFM5m2diP+D9gop3zqdsv9feq8D0+6OscY0H8nC4F+NwL4773GAjb4eb5n8e28qX1qOscIwH8yQKSjdQ0P8c5iHeszXsS3Uv3KR4aI/MB2ky5ULoJo3Xe9PVftmDf+4kopebUOBOyvbsWLuTHQP1dLUv5q2amGMVuMG+7UcSzhs53GNkZNtsnb9GpKqcMy25NnRk8Ho6CLnzYgbAB/An/i1JRERERERGKeODirq9XHxvK/XOMl5YthCnw4rFlNvzdih4jw6vlx8un+JqzFNa+99284eOjWxY5sZuzY08eHQR9PtovXyG41c8LHnz5IgNHPbp3Qbga+Cj9vTtrvNCDb9rKmbFyuUUuWxYzbFlfB+/z8O186e42tqvF82Dy+x7w8dzWzeyyBFZ3CT0kA7Pdb78/Aw/3Q2xZFniffo7AoSYEj42oYcEQwAmTObcPjOlmawzeKZ6L5a9W/ko5hgnnWYjDOQ3VWnubv2AN3fe5IX1z1LgmDKk3rNG93v1vUoaC8pYs2wxBfZJPSsDQxeBDi9tdd9y/MrA+08mzRffqaS5aB1rVrpxWvN6F84J3aOjpYlzZ8PlPVK0+6Or2MYMU+558wPa/POwRq43wREY/UjmGBnZNivn71iUZBsa50INFYl6FA9Fktt219dyuvgQawrzMIXu0/r5wdQuDiYiIiIiIln3b+N+xX9mOxGj1fzfnwgPEaWLtk8qR0jPqhRxbuRAdXiocsj7BZUJejLlTHDw1NrNrHFPwgSEPB9R+V5dxpMqIiIiIiIiIiKpZ2BxlLEtp2AzS6O9Df3XH6+gITB/mTsyR90d6g8lHv7Y/cDLtWNf0xbJusk08MT+IiIiIiIiIiIyuihwmIxxxbxcMScSWLtP4yenspyg1DP3DJUL8WCwqbXyZ/SsvhwM+NOdLBERERERERERyRDjcxyOEZPz7ZgwM9m9mKWls7FFOtcFGj7geOvj1dsQoNV3jxWOScBUltZsI3T2a642+3reHzfRRUHZs6wonRlZUOIejd80ZCm1IiIiIiIiIiKSaprjcCicmzlQHe1hGNVFx/Uj7P6wKUuJSrOcQn5Ts40FttxHf5Z7NJ+o5fD36nEoIiIiIiIiIvK4UI/D4Qp14fc1cfXsx1xtG2wM7yjX3cJnuyq4VrKOpeXFOG2WmOHLQKiLYKCDtqavOfzXxzR4KiIiIiIiIiIyhqnHoYiIiIiIiIiIiMTR4igiIiIiIiIiIiISR4FDERERERERERERiaPAoYiIiIiIiIiIiMRR4FBERERERERERETiKHAoIiIiIiIiIiIicRQ4FBERSZMlbx5i5zPWbCdjRJn4zB4OvFme7WSIiIiIiMgQ/Mr0X/jv2U6ESCznq4d4b8vzLF1WSOj/uMYv2U6QPFLOtHKqdv2ONWUzwdvAL//P/5ftJD0Wlrx5kuoNy1la2MW5//P/MvRdOkaZt+TNE6xwjOe/PuEip6GOm/9vKr87dXUjowo28k5FEZb/WsCSwi7OZyHtOhfGGheb3v8jlatH4fkiY47a/dFH5SwiY0FOthMgI5GLTe/vosQyzM28X1Dxzvm0pEhGsmJeqVqN0wwwgxWV67i44+NsJyo9JhTy9LKFPFlYyL/qKth3IdsJGqokj9GozW/2PfHqIVY4coGHeM8e5Ku72U7RCNH6Ae+etfHOyumYHKs58KqPqmMtGUzAGLpeyeNtNF6fR2OaRy21+5mhNkVExgYNVRYRgyyYTTH/NZlwZi0taWabx5LS2dituaPsV5ckj9GozW92TXxmD6+58wDw19VSe8Gf5RSNLJ0XavhLw30ALO5tGR7KPYauV/J4G43X59GY5lFL7X5mqE0RkbFBbYIk4OH03je5aOr38tyNvFU2FQDf5Tf56Hq/94N6OB6b6viPz2eza/1MLNyn9Zuvact2kqQfHaOMmVjOpmXTMQEh7xdUn/RlO0Uj0j+PbaXecZIF1lwcyzazpKGGi52Z2LPOBREZC3StywyVs4iMDQocSkIP7vp40P/FQKjnz1DAR3t7RpMkI1hn/X6q6rOdChmMjlFmzK9YjsMEhG5z7qimbhjMZ4f+TkHNQqym6SytKOXie3UZ2a/OBREZC3StywyVs4iMBRqqLCIikgr5G1niygXA3/BBhnrQjWLtH/Nl00MATK5n2ZCf5fSIiIiIiEgc9TiUtBmX72ZJ+TwKHA5slvGYokOfQ10E/B4az57ii+aOYX9vTsFLvLV1ITYTwD2+P1DNR62hvh8aZ2f+2pdY4rZjNeX27Nfva+Lq2Y+52hYcJOEunl6/iqcL7VjNub2vh7oIBv34m85Qc7Jp2OkeTLJlteTNk6xwQKDhXaqOeZj81EY2LHNjt+ZiAgjdp8Nzid1/THHPJ+dmDlTPIeH6OY9YJMdImuO2LVrHmpVunLa8yLYP6fDU8dnRM7T9K/G2A6cvZlGg6GcGyadj5UlOrBx+/o0Y51zFK+vnDim/SR0jg/kNl/F9Gvdu5VPzRnZUzMNuhlDgZ06/vZ9rnTD/d4dYU5iHiS78TR9T/ee+cx6k7FwYRt1IlVnLirEChG5y8ZPMDlEeat0weoxSXc4/ftPEiuJ5WJlE0bJiPvpzaq+tQNLXq2zW56gJBat4YaWbAtuk3m0TCdxg3/YjfYfIGWkHk5TVtmycnV8vW8VStwurJbIdEAo+JDRY2RmUM7mYFWtXUeKyYokt544Wmr85M2h+M90ejeo2dBTdm6U0DWr3R167rzYlY22KiIwcChxKmpSzvWY1jkRvmXKx2GayaOtMShr2DWtFzT5Bw9Ad6g/t5rN+QcOcaevYVbUYuzl+v1bHHNZUFzO/7iC7T8bvN6dgI+9UzSPhVP2mXMyWKdjttiGnd2hSUVZW5v/+KC+4xvfbPg9b4WpO7JtExYhb5c1Imgfadjy2wmfZUWvlT28c4Z/daUl4Vjzx2wO8PndS3xdHan6t69hVMY/omWKyzGRNRSn+wHJeKMyLvJqLtfgldixoYF999BxO57mQ7rIqZVFheJ8h7w2uZfBYJFU3kj5GPV+QmnJu/4BG3zyesYO5cDHzaeLakHOeIVmqzwmP6xAZaQeTl722LKfgJd6qXIitf34Bk3k86YobTnv+bbaXTSVut6ZcrPbZLNo6m6c8H7E1Q8Pwh250taGj997MGLX7I73dT5LaFBEZhRQ4lDTqItjRQZunhdaWG9zyA1iZVrqYpaUzsAAW92a2NFRyuPnR39Y3aHibK3tr+OJWv4fZCWXsqF6MPRJYbPz8A47XewGYWLSKl9c/i9OSi610Gzt8lf0ehufy2tbIjWnoHq3XL/F9g4e7wUi63dPJtzmYFkrHL2rGysri3sQLADzE1/A15857+JdtHs+tX4zDDFjnsmPBqQQP/0lqO8K+Pd/GPIzZWVq1iaKEP78mZiTNsdv6W67z5fnvuGt2sXTlKopsuWCZwyuVN9hqtPdS/3zal7O9YjYWBlggCNKzSJB9Oa85chlWfpM5RinJbx5F60sxcZ/mT47QWLiZV4rzMFmf5QVXHgT+wadHf6Zo6wYKzLnkFxZDfUPM9qk7F9JaN/ormUm+KZz+Ww0ZDBIkUzcMH6PUlvNVzx2esU8Bk52CErjWmMLyAYPXq+zU55wFO3kt8oAX6rjB6ROnuHYrAMCsf9/Dy+XTw8GqwHfs2/5B314hhtpBo7LQlk1cx1tVCyMP4Q/paKrj3OUb3A2C2eZiVvE8nnInCO4ZNPGZPewomxquV8F7tDZ8S32dl06sTCtdyBL3TKxmMLs2cOC3HVR96DG2wxS2R6OrDR2992aGqN0fue2+2pQMtikiMlIocChpcp7aDYm66vtoP9nE955t/LFyNmbGM83tgubBb6j7/Noc+oUv99Ry8W58w/Tr9ZGFCbjDlZ3VfBEzx1hn8xn2tdxmy8EtFJlzcZavg/qYngvO6IM/+L6p5v0Lsd/vo709DUPogJSVVf8emO2nqPXC2/sXYyPxw78Rd9tjh2KaSeo2wUiaQ3f4/mgNHzVHHxZ8HG729QyVMhcuZn5Ok+GeX33yac7SAkGmXExJ5DeZY5SK/JpMuQQaDnK43gMdHtYUz8FinYSVO1x5+yDXOsHcUOwWAAAgAElEQVTcsYECB5gtsX1IUncuZKJuxHIWOiKBCT++dF0qEkmybiR/jGKkqJwfNHkJlE3BwnjyXXZoTP0wbyPXq2zU50VzZ0SG2t3k9J4jfcrwp7/V8AfTXt4rmwKWYp4ugbaYYKuhdtCQ7LRlSypLI0HD+zQeqOJ47CiEdh9tjT4srsgQ2lTJKeXlyOrpBG/y6Z5arvWUczi/186XsqNmA04zWOau47mzu/kqbtW54UlpezRa2tDRfm+WLLX7I7rdV5sSlt42RURGEi2OIlnR3XiD6FQYFmvCTvc9+gQNgzf5dGdNwqAhOaUsiAwVDDZ93adh691xA+ca7oX/trpYPSH2zd7vtDgKh5qVtBtaWd2nMcGwbTr/QXv4B8WBH/6zxkiaw9v23iBGeTjdcCf8p8lOQXEq05tNoyy/oZucOxE/XCXYdCbxeTlEwzkXMl1W+bbI8KJgB7cMBgeGJ8n8Gj5GKSzntjtE+69YbIO3B1mR8frsIj966fP9nPBBt7PJR/gyOZ4JsZdJw+1g+qSlLZuwjicdkQWJru/vGzRMo5yyeTgjPYzbzu6PCRrG6KzjT2dvRu4splIwN40TLQ7baGpTRvO9mRGj6RgxJtv9pKlNEZFRSIFDyZIAoaHc3xds5r1o0DDwD/6jz6/6/bhmMDlyX97hGbhnXbs/8vSBBasr5o22D2iOPL1airdz4v09bFo0Eu4yhlBW3ksZe2BKGSNpHmTbBy0D3PyMZqMsv4GmbxPcmN6n9bLRniHGzoV0llVPSCAUIqNxwyTza/gYpbScvXRGLssmU6oHlBqX+frs6QmSYZ/J/ARjQyYW2yMT8z/kQeyoQaPtYFqloS1zO3p6G95qyNyCREWO6OxkPpoHGZbXff1nossUWOwZK+hHG01tymi+NzNiNB0jxma7nyy1KSIyGmmosqTVrOe3sbTY1XflryGzMn/99J6GrPnzI/ww2C9xdmvPCmeOtSc5sfZR3x9/E/HZ3uNYqjdRZAUs0ylZu52StRDy36a16VsO/zV1Q337M1ZW0iPmpslitQOZXd0240Zkfo09TaXtXBiRZZVGg+Y3jU+8j105Z74+X6m7ydL1MzCZZrCmZjP0n4+qbEr4g4EWrsbOCZmCdtCoTLZl+bZoboMEMljNrJbIIgwBP4OO5Oz2cTcAdkv0XBgFCweMwPNX92b9jMBjpHZ/ONSmiMjoo8ChpMfEcnbWrA5PZp40P9f2XmJW7WocpvEUVexhtT/BgihJ66K7/6iGzusc3nGdyUWrWFrupsgxCRNgsk6lqGwLJ8rW0fp5Le9f6Uj0hclJSVlJIkF/Co/TKDDq85vBc2HUl9UwZSu/Y62c+zBQn7vrv6V52QxKLGCyzeGF3XMik//HCN3myqF+k9gPW4J2MFlZaMvM5uhTc4gH6VgbY4wbMeev7s0GNGKOUbLU7g/dWGtTRGREUeBQ0uK5rdGGrYuOhlN8draBts7YlsTVM2HxoDrPs+/QVN6rmoPFNJVF1Tt5sLOGi4l6HgZDhAATXbR9UsG++uTTf7f5DMebzwAwsaiUJWXLecqVh4k8CtbuZJNvK8eNtaw9UlZWEmYx9QwbDaV1HNEI0ZPfLv4VHN35Tfu5kIm6YTIxYqb3yVbdGHY525kYOabBQBpWJc8SI/XZ+duN4dcDv9Dst1Bgn9TTsyQUvIev5RJffXKZtn/12zCF7eBwZaMt8/oC4M4DLOQ7IPETb+q7ifXUaouV/IF2C5BjZ3IkvwG/N+XpSIsR3Ibq3ixC7f7QjeD6PFxjrU0RkZFFgUNJvZxyCuzhP4MtH7P72HVDX9fdeoR3T5jYVTEbi2k6K3ZvI/D2wfhhy00+/OtnYCOXyS4X1KdmhbvO5jo+a67jdEl0tbI8nHNd0JaC709xWQnMcrsiq9vepi3R6CXrFJzEP+jlFCzEOYwb0/CtaPZvQnvz24E3jav5pj2/GTgXHlk3DLjVcR8ceWC2MW0C/JjERIeTF21jS7kLc9DL1RMHuWiwd3Wm6sbA+x1iOedP6RkKFfCneGXSbDFUn0tZ6g4vtuO9XMvhC8OoB2lqBx8pS21ZdzAYeajNY6LDBG3xZfXEqxtTHtxp890DxyTATtECE1cHmOdwwrI5hIuli7ueBMdiBLZHo6UNHcv3Zmr3hy6d7X5GjbU2RURGHC2OIqnn6H0IHGhG4ydffYmiYdxgdn5/kHfP/hK+fbHM5uXdm3mif9j7wSmaI1OXWNyb2VSQ2l4G3R4/0al/U9aBIQ1lNaZNLGdpZPW3kOfvfBUTvAmGusJ/WBzMmth3s3FFm3mnag6PLGbv7Z46YHOXpSLFxgyS35TIZH7TfS6kuazavB2Rx6spTEtm9dSibexaOxubZTwW20xWVL+RcALzIUt33UjhfnMKHeEFsLhPe1PgEZ8eJYzUZ+f0nsnohy3N7eCAstWWXf+5Z8Yyx9xVcW9Pe/5tXos8MKdSe11TZNGTXJzLNjJrXIIPTSxnS9nU8N/BFq7E9NQZse3RKGxDx9y9mdr9octWO5gOY61NEZERRz0OJfXafuFuaB4WE5iLX2Lni2Yu1nnptDp40j2PkuLpWJJodzov1PAX+yFed+eBZQ6v1QT5y56P+WfMymTnzt7gqao5WMijpOoQ0zwtNDfc4AdvePjbRMccCgoLcbpsmFv2U3Ws95cz52/3sskR4panhQ7fL/zojQ6ZszJt7hyedM/pWb2xrS5Fv7ilqazSLWeCDVufhFl779dNeeTn23vfCgVov5viYIB1Js+VePnB4+Xug/AN1KxF21ixcjY2ExD6hXMn6vps0uzt4AXXVGAKi3a/QecnZ2jzW3EuW8XS4ikMacqY7vO0+lZjt4PJvppD706n/ptL/NgRM1Qk6Ke9M8UTvCSR35Qco0zmN1XnQhJllRLXf8a3fgYOwF44Fy4Mbx9Ot6NvHTTZcDrg2qOG3WUrvync76LiaHDFS3OKhhnGysr1ykh9bruNn3lYAMfKA+ywXscbBLhPe4uHu0GAEO3tiefrMtIOZiW/RnSf5wfPchyuXLAt5tAfTHz6+d+5a3axdOVyimzjgTt0dEzBZnvktw1d+ylON7h770f2O2ht+Jb6Oi+dWJlWupilpTMiD/pdtJ09wk8xm2e9PRpFbeiYvTdTuz9i2321KRloU0RkxFHgUNKgjtOXF7KrfComxuMo3cBrpf0+EriJNzQDxzBX3vrnsa18aT3BCkcuJttCXqu+R+U753ve7249wrtnrby1cjpmxmN1zWGRaw6LEnxXoP8PdiYzFlseRbapFAHPJEzBQ3yXD6ZsDp10llU6OdbuZMdAvTjsi3mrZnHv/wM32Lf9iMHJlvuxzOCZyhmJj1HwDvVHa+PmwXzwt1N8P3cXT1kAy0zWbJ3Z5/1Ay0d8GVzOy4/onXLu7HeUVM3DCphts3mmcnbfdHi/oCKmTqZEEvlN1THKXH5TdC4kUVYpERPAMLkW8tyEumH1bvB6Ogi582I6zAQY0jzu2cpvqvY7YRW/dkQ283zHjylMYlR2rldG6vNlvrq8kO1lUzCRh7P0WZzRt8r7fjLkv8mVEwf5qq33Id5QO5i07LVl146eoaT2NzjNYLYv5JXqhTHv3uP7A7u5u+xDVqR2t5H7kaOscIwH8yQKSjdQ0D/PPMR7toZ9/YYyZ709Gk1t6Fi9N1O7H0nnyGv31aZkok0RkZFGQ5UlLdr/tps/nPgOr78rZnaULoL+X2j8/F0qttfyU5I/wF3ce5DvIz84mxyrOfT7vi1n54Uafrfzfa403cYf7OrzXih4nw7PDU4f+G9Ufdj3F7GOpiZafXcIBB/GzegSCt7D13SJv+zcSs1fUzvBeTrL6vHV1e8YdRHy36b58vtUbKnms9ZEdy4ePtr5Lhda7tA7l3hX+Cbp0O+p+mMdQ7mv7G79gDd3Hud7z5203yBdOfQH/vfL/8DXcb93mBgAXYQCd2gdNL+pkcn8puZcSKZupMa1yy2Eb7Wn8tRa17C27a6v5XTL/XDaQ/dp/eTgoIHH7NeN1JTzrPWlkTng7tH4TQYnYswAI/XZ3xHo3Sb0kGDwIcFg/zIHk3UGz1TvZYOz7+vJtoNGZK0te3CZfW+8ywXPvd4RfKGHdLRc4i87q/kojef8xXcqefPQJVo77vcZPRgK9d4z1F5I9AtAttuj0dOGjrV7s+xf29Xuj1RjrU0RkZHl38b9iv/MdiJERIZiyZsnWeEgPb36ZFQbKXVjyZvhHtFwhytvVPNFOnr7ZVFKy3niOt7evxgbEGw6zNY/j+aZ61PIuZED1eFhZSHvF3161UflTHDw1NrNrHFPCi9f4PmIyvfSMCRdHisj5Topkgqqz0OkNkVEUkA9DkVERFLk4tG6yKIJU1hUtS7LqRnZVleFg4aEfuHcJwoaRs1f5o7MjXeH+kOJH4a7H3i5duzrnkWETaYhzTAnIiJjjNoUEUkFBQ5FRERSpfMU70dXgLct5sCrhdlO0Yj0xKuHWGQD6KLt81qujubVLlPMbMqN/BXiwWDrD+TP6FkpMxjwD/JBEREZq9SmiEgqKHAoIiKSQp0XajjnDc8BZHFvY+czI2hloxFg4jN7eC0ysXyg4WDcwhFjXavvXuSvqSyt2cbTRfY+74+b6OLXz7/B3t3hxQvC80Oqx6aIiMRTmyIiqaBVlUVERFLs4jsVEJnv0LHyDX7jqeazW9lO1Qgw7SV2rJyOCQh6v6DqWEu2UzTitH/+MfWubSyw5WKyzWbN1tmsGfDT92g+Uctn7RlMoIiIjBpqU0QkFRQ4FBERSYOLe2uZsHsz9rr9ChpG3fqY98/a2VH8D6o0mX1i3S18tquCayXrWFpejNNmiRlqBoS6CAY6aGv6msN/fbxWohYRkRRTmyIiKaBVlUVERERERERERCSO5jgUERERERERERGROAocioiIiIiIiIiISBwFDkVERERERERERCSOAociIiIiIiIiIiISR4FDERERERERERERiaPAoYiIiIiIiIiIiMTJyXYCRB5HOdPKeb3yWfLxcfHofi7eCj3W+xXJDBeb3t9FiQXwfkHFO+eznaCxx7mZA9VzsCR6T8dEREREROSxox6H8niaUMjTL25jz74T7Hgm0zsv5pWq1Tit4zFbZ7Cict1jvt9RJqt1Q0RERERERGT0UI9DeTzZ5rGkdDYWwJvxnVswm2L+azLhBNoe2/2OMlmtGyKjXNsRqjYciXkhpheoiIiIiIg8dtTjUCTl6viPz38mAMB9Wr/5OkPBu2ztV0REREREREQeR+pxKJIGnfX7qaofO/sVERERERERkcePehyKiIiIiIiIiIhIHPU4lKEZ5+Lp9cuZ73Jgs+RGXuwi5O+gtelrDv+1KeFmOZOLWbF2FSUuKxZTZLtQF/6OFpq/OcMXzR1x2yx58yQrHBBoeJeqYx4mP7WRDcvc2K25mABC9+nwXGL3H2NW7xxkpU/HypOcWJngjQQrgI7Ld7OkfB4FDgc2y3hM0TkDQ10E/B4az55KmGYjK40mld9s7zdiQsEqXljppsA2qbesEgncYN/2I6kbOj3OxdPrV/F0oR2rObf39VAXwaAff9MZak5G6mQq6kbPd9ynce9WjreBc9FmnisrxmGN1ut7eBu+pvbD6wmTnLFzoZ/sHSM789e+xBK3HWtsfn1NXD37MVfbgoNu++tlq1jqdmG1RPIKhIIPCQ2WBwzm11Cah1EnUyhb9Wp4itlyeDtFZiB0k08313Kte6AMlbLjyAacJsD3LRVvnUlRGkREREREJBkKHMojTVzwBrvWz0wQeMnFZJ1KUdl2dgZepPZC33enPf8228umYu6/mSkXq302i7bO5inPR2x9r26APVuZ//ujvOAa32/7PGyFqzmxbxIVOz5ONlsJlLO9ZjWORG+ZcrHYZrJo60xKGvZRdawlhfuNynR+je33id8e4PW5k9KQnsHlFGzknap5WBO9acrFbJmC3W5LXwLMxWx4dzNP2XL7vm6ahGPuJo7aLFT2C9hm61zI2jGato5dVYux98+wKRerYw5rqouZX3eQ3Sfjz6Ocgpd4q3IhtrjCApN5PIPFAo3k11ias1MnR881tolzTfcomjsJTA5K5pq4Vh9K+MmcsnnhoCHgbfg6BfsWEREREREjFDiUQeUseIO31s/seTANeG/w/eW/82NHEKwOfl04myL3zLjtJj6zhx1lU8MP+cF7tDZ8S32dl06sTCtdyBL3TKxmMLs2cOC3HVR96In7Dot7Ey8A8BBfw9ecO+/hX7Z5PLd+MQ4zYJ3LjgWn2FcfgrYj7NvzbW9Qwb6c7RXhlXN9l9/ko0SdwIL+BC92EezooM3TQmvLDW75AaxMK13M0tIZWACLezNbGio53ByzWf/9Y2dp1SaKhrHS6LDym+X95izYyWuRAE2o4wanT5zi2q3wsiyz/n0PL5dPD9eZwHfs2/5BChdpmctrWyMBmtA9Wq9f4vsGD3eDAFamuaeTb3MwLRTTMyxldQPATFHl9nBPtph6HVteJsezbCk631M/Mn4uRGTtGE0oY0f1YuwmIHSHxs8/4Hh9eP3qiUWreHn9szgtudhKt7HDV9m3Pk9cx1tVC7FF8trRVMe5yze4GwSzzcWs4nk85U4QKDOaXyNpTqZOpkC26lWy2s824Jv7LHZycZYuh/rEPQmXuqeH/wjd5IfLxvcrIiIiIiLGKHAoA8sp5fW10aDhfRoPVXO8Oebht91He3MdX52M3+7lZdMjD7Q3+XRPLdc6o2/6aD/ZxLXzpeyo2YDTDJa563ju7G6+epAgDaE71B/azWetkQfI9lPUeuHt/YuxkUt+YTHUNwBwt93Xu52594EzFPDR3j6UDJ+ndkOioXnhNH/v2cYfK2djZjzT3C5o7vsg3mf/mEnqkXcY+c3mfhfNnREZ0niT03uO9Bl2+NPfaviDaS/vlU0BSzFPl0BbYzKJSsA5k/xIBND3TTXvX4jNrY/29sRDQY3XjahcTCYI+i6x9a1TvS+3n6I2YIkMZx5PfqEdmn1ZOxcge8fo1+uX4zAB3OHKzmq+6Ox9r7P5DPtabrPl4BaKzLk4y9dBfW+PtiWVpZGg4X0aD1RxvDXm+Lb7aGv0YXHtoiRBYNxIfo2kOdk6aUgW61XSHpzhmqeMF1y5YHfzm/wzfNb/3JuwjiJ7+M9gy6WBhzOLiIiIiEjGaHEUGdCEZQt7hoz56/b3DRoOoneoWRdtZ/fHPNDG6KzjT2dvRoJcUymYm2gA4n0aYx9oe7b9B+3hjkSYLQkHB6ZFd+MNolOcWawJBzQblK38Dne/LvKj//X9nPDhvrPJR3jT8UxIaZJ702hxFKbyi4cs0PR+36BhVNttov0UTeZwuD1750KWjlFOKQsKw8Neg01f9wnA9ehu4FzDvfDfVherJ0Ren7COJx3h4d/+6/v7Bg0fyUB+jaQZyEadHK3X2GuXWwhfQidRUGaPez9/WXFPb9O262kIuIqIiIiIyLApcCgDKnJE5+S6zbXPfYN+NvF2PpoHGeLWff1notP2W+yu+A94Lw0zeJBuAULpTE628jvs/Xp6ggrYZzI/Qb/licX2yJyYD3kw0KjfZLR9QHPk+yzF2znx/h42LSpO4Q4eze8dKKBxntoNL1Kx4UWqjoV7o2bvXMjSMXLNYHIkPtXhGbiXWrs/mjgL1mh23Y6e3oa3GoZ+vQkzkF8jaYas1MlRe41tvkRrpBitxcuZ1e/tpwsj81P6m/pOBSEiIiIiIlmjocoyoMnR1ZMDHdwaxpAxqyUy0X7Az6CjQLt93A2A3QIWqx1Ix4Ijwzfr+W0sLXb1XVVZ+rhSd5Ol62dgMs1gTc1m6D+fXNmU8AcDLVxN1TDliM/2HsdSvYkiK2CZTsna7ZSshZD/Nq1N33L4rykYVpki2TwXsnKM7NaeRZQca09yYu2jNujt/Zdvi24ZJDDcuCEG8msgzVGZrpOj9xrr4WLLPUrmTgJzIYsWwE/1kbfyN+KMlGtHk1ZSFhEREREZKRQ4lAG4MCdageBxNrGcnTWrw4sCyKC667+ledkMSixgss3hhd1zIossxAjd5sqhVC6MEtF5ncM7rjO5aBVLy90UOSZhgsgK31s4UbaO1s9ref9KxyO/6nGW1WM0ZF10R4b/m83RKH2IB0msI5K5/PamuYfq5JDFLpIyzV0K9eEVn53lhZFVqW/TfD4w2FeIiIiIiEgGKXAoA/Bw1w9YALOFyTDkh+2egW8WK/mDbZdjZ3Kkq0/A7006pany3NZo0LCLjoZTfHa2gbbO2AiBi03vJ16YYaxx/nZjuBwCv9Dst1Bgn9TTOzMUvIev5RJffXKZtn+lLw13m89wvDncM2liUSlLypbzlCsPE3kUrN3JJt9WjmcvIgZk91zIyjEKhggBJrpo+6SCffWP3KKH1xcAdx5gId/BAIU1cBfgpPNrIM39ZapOjtZrLNBnkRSTayHPTajjqwfFPF2YB0DI8/fEi7iIiIiIiEhWKHAoA7rlvw+OPDA5KFlg4togc2nFavPdA8ckwE7RAhNXB9huwrI5hKfH7+Kux5PwM6lgwgSPWms4p5yCntU8P2b3setpS8/oV8pSd/gh33u5lsMXsj8PZWdzHZ8113G6JLrydR7OuS5oG7xeDaluGJC9cyFLx6jJh3/9DGzkMtnlgvqh56U7GIwE8PKY6DBBW3yan3h14wCBewP5NZDmwSRbJ4dipF1jh+va5RZWuGZjZipF5Ra+8s7DGfnR5lbD0K69kxdtY0u5C3PQy9UTB7l4K/vXIRERERGRx5EWR5EBtZ1viawSm4tz7U6WTBzadu11TZEJ+XNxLtvIrHEJPjSxnC1lU8N/B1u4YqCXT0Le20QHu9ncZY/+vGNKzzxnA62A8uSrL1Gk3obgnN6zmMRI0+3x9xz3ATunDbduGJC1cyFbx+jBKZoj8xNa3JvZVDCMRFz/mejUho65q+Lenvb827wWCQ7GMZJfI2kegiHVyWEaEddYI5oP9iwoYyt8liWlhZghks4hBACLtrFr7WxslvFYbDNZUf1GwgVxRERERETEON1qy8DaP+Cix80LrlwwTWfF/kPMamjgh4bvuOUHzDac7jk8WTyb0OUXqb0Q3e4UpxvcvO7OA8scXtvvoLXhW+rrvHRiZVrpYpaWzogE6rpoO3uEn1Kd9u7ztPpWY7eDyb6aQ+9Op/6bS/zYETP0OOinPToUue0X7obmYTGBufgldr5o5mKdl06rgyfd8ygpno5lkIf+nAk2bH0+YO2NEZjyyM+3974VCtB+NzVzeGVlv2238TMPC+BYeYAd1ut4gwD3aW/xcDcIEKK9PfXzuTl/u5dNjhC3PC10+H7hR290eVwr0+bO4Un3nJ6VedvqBuhhNdy6YUS2zoUsHqNzZ2/wVNUcLORRUnWIaZ4Wmhtu8EPkWE10zKGgsBCny4a5ZX/PCtR0n+cHz3IcrlywLebQH0x8+vnfuWt2sXTlcops44E7dHRMwWbrt1OD+U06zaSoTg5XFq+xqbrmfNlwm6fKp4KtlKXW8EJcgZZLQ0qn0+2gz1S0JhtOB1zL8tQEIiIiIiKPIwUOZVDX3qvA9PujrHGNB/JwuBfjcC+O+1z/2bP+eWwrX1qPssIxHsyTKCjdQEFp/60e4j1bw74hDoEernNnv6Okah5WwGybzTOVs3mmT6K/oOKd85H/1HH68kJ2lU/FxHgcpRt4rX96Azfxhmbg6LeiKoBj7U52DNQbyr6Yt2piyixwg33bj6RkQYrs7PcyX11eyPayKZjIw1n6LM7oW+V9Pxny3+TKiYN81ZaCIByAyYzFlkeRbSpF0Pd49niI7/LBQeeSG17dMCY750L2jlF36xHePWvlrZXTMTMeq2sOi1xzWJTgs4F+2b129Awltb/BaQazfSGvVC+Mefce3x/Yzd1lH7Ii7puM5ddImlNVJ4crW9fYVF1zHnxzA2/5VBzkRuaivEfr+aEFVr2eDkLuvJgOnAH8WndGRERERCQtNFRZHunqe5X87sBnNHrvEezz/NlFoOMmjZ/v6+1tGOPiO5W8eegSrR33+4z+DYXu4Wu6xF92bqX2Qvqe9rpbP+DNncf53nMn/mE/gfa/7eYPJ77D6++KmfWui6D/Fxo/f5eK7bX8pMU+AfB3BHrLKPSQYPAhwWBX3GyBJusMnqneywYnKdHR1ESr7w6B4MO4fYWCvfWq5q+DLwQx3LphVDbOhWwdI4DOCzX8buf7XGm6jT/Y1ee9UPA+HZ4bnD7w36j6sF+g6MFl9r3xLhc893rLKfSQjpZL/GVnNR+1DnywjOY32TSnqk4mI9vXWEO6z/ODJ6acfQ181D7ETetrOd1yP1zeofu0fnJQC6qIiIiIiKTJv437Ff+Z7USIyCji3MiB6vCw0JD3CyoT9MzLmeDgqbWbWeOeFF5+xPMRle/VZTypY9ZYO0ZjLb+Pifm/PxGeCoMu2j6pTFvvcxERERERSZ56HIrIsMxf5o7MnXaH+kOJh/N2P/By7djXPQvjmkzmhJ+T9Bhrx2is5fdxkFOwmaWu8NyG+K8raCgiIiIiMkIpcCgiw2I2RR72CfFgsGnx8mf0rHQbDPgH+aCk2lg7RmMtv6PeuGJerpgTCfbep/GTU1lOkIiIiIiIDORXpv/Cf892IkRk9Pgf/8tcFvyv4cVy/rdf2/kf/3cHt2JWTh030UXRspfYur4E668A7vH90f/gZ81BljFj7RiNtfyORpPz7fzPFhvOsnVUvvIcrv8p/Hqg4c8jdx5GERERERHRHIciMkw5hfymZhsLbLmP/iz3aD5Ry+Hv1bsro8baMRpr+R1tnJs5UB3tYRjVRcf1I+z+sClLiRIRERERkaFQ4FBEkpJfso6l5cU4bZaYoaJAqItgoIO2pq85/FcFBbJprB2jsZbfUSM2cBjqwu9r4urZj7naNti4chERERERGZR4QB8AACAASURBVAkUOBQREREREREREZE4WhxFRERERERERERE4ihwKCIiIiIiIiIiInEUOBQREREREREREZE4ChyKiIiIiIiIiIhIHAUORUREREREREREJI4ChyIiIiIiIiIiIhJHgUMRERERERERERGJo8ChiIiIiIiIiIiIxFHgUEREREREREREROIocCgiIiIiIiIiIiJxFDgUERERERERERGROAocioiIiIiIiIiISBwFDkVERERERERERCSOAociIiIiIiIiIiISR4FDERERERERERERiaPAoYiIiIiIiIiIiMRR4FBERERERERERETiKHAoIiIiIiIiIiIicRQ4FBERERERERERkTgKHIqIiIiIiIiIiEgcBQ5FREREREREREQkjgKHIiIiIiIiIiIiEkeBQxEREREREREREYmjwKGIiIiIiIiIiIjEUeBQRERERERERERE4ihwKCIiIiIiIiIiInEUOBQREREREREREZE4ChyKiIiIiIiIiIhIHAUORUREREREREREJI4ChyIiIiIiIiIiIhJHgUMRERERERERERGJo8ChiIiIiIiIiIiIxFHgUEREREREREREROIocCgiIiIiIiIiIiJxFDgUERERERERERGROAocioiIiIiIiIiISBwFDkVERERERERERCSOAociIiIiIiIiIiISR4FDERERERERERERiZOT7QSIiGRDzrRyXq98lnx8XDy6n4u3QunZkXMzB6rnYEn0nvcLKt45n579jlguNr2/ixILYzT/KWKkXmWrTupcGFMydo19jMx6/g1WuF1YLbmYoi+GHhLw1VH1zplsJo0lb55khYOxc66O8etVps7fMVevRERGKQUO5ZFyJhezYuVyilw2rObcntdDoYeEAn7afTfY92c19oZNKOTpZQt5srCQf9VVsO9CthP0OCvmlarVOM0AM1hRuY6LOz7OdqJEREYGw+2RrrHDMnEuW3ZvoihRlMo0HovVihNoS9X+dL8hg0ry/FW9EhF5bClwKIN64sW9vFI6BXOC90ym8Zis43FaQyzhPBcznrrHjG0eS0pnYwG82U7LY8+C2RTzX5MptQ9lsdqOULXhSMwLMT3uRJJlpF5lq07qXBg9DLdHGbzGPgbmV7zUEzQMdvyD+m8u8WNHELAyzT2dfPP91Jad7jcebUxfr5I8f1WvREQeWwocyoAmPvM2r5VOCQ+XCd6jteES3zd4uBuMvO+Yg9Nlx+mAYDYTKjJsdfzH57PZtX4mFu7T+s3XeqAVEUkZXWOHbMIq5rvCozlCvi/Y+lbsCA4f7e1N2UmXjGE6f0VEpC8FDmUAxawpnxoOGgZu8Kc3jvDP7r6faG/38VN9NtImYlxn/X6qVH9FRNJC19ghctmwRv70Xde0LzIy6PwVEZFYWlVZEnPOYVpkfHLA8/e4oKGIiIiIGGS1RKaDuU+nL8tpEREREUlAPQ7lkUym4U/o8uhV0gZeWTW6baDhXaqOeZhctI41K904bXnhHpChh3R46vjs6Bna/pV4v8lsG5UzuZgVa1dR4rJiMUUWgwl14e9oofmbM3zR3BG/Uc/qe/dp3LuV423gXLSZ58qKcVij33EPb8PX1H54vd828RwrT3JiZYI3BirPcS6eXr+KpwvtfRawIdRFMOjH33SGmpNpGO5kZL/j7Mxf+xJL3HasseXsa+Lq2Y+52pZgAHwy5Ry3bQJDWM1vXL6bJeXzKHA4sFnGY4rO/xPqIuD30Hj2VOK6kUXJpjnuPHpqIxuWubFbIyt9hu7T4bnE7j8OUmbj7Px62SqW9lshNBR8SMg08GbJMnruJ318jdRJI/vNtmTO32wbZponPrOHd1ZOD9efjktU7DqV8GufePUQr7vzAAg07KPqWIuh/can28XT65cz3+XAZoleZ7sI+Ttobfqaw3/te41Nqv1NRXuUglVok2l/U3K9MiCpe4ZMS+X9RsQ45ypeWV+K0za+p5x9TWeoORZ/nevdKPPXjWxeYycUrOKFlW4KbJN695tI4Ab7th/pMxw4Y/eicdsmMFBdyGK9Cp/34Xx+at7Ijop52M0QCvzM6bf3c60T5v/uEGsK8zDRhb/pY6r/PEjdFBGRQSlwKIl5b3I3NAeLCczF69hU1MLx5kw/CFqZ//ujvOAa3/dl03hshc+yo9aacAi1kW2nPf8228umxi8GY8rFap/Noq2zecrzEVvfqxs42eZiNry7madsuX1fN03CMXcTR20WKofwADVUOQUbeadqXs9Qp/7pNlumYLfbUra/VOw3Z9o6dlUtxt6/oE25WB1zWFNdzPy6g+w+2ZJweyDD5VzO9prVOBK9ZcrFYpvJoq0zKUkUNMiaVKR5oPMoD1vhak7sm0RFgpUWcwpe4q3KhdgSrKpkMo8nDXHDGMmc+yk6vsOuk6OxXqXo/M2wZNLceaGGc8UnWOHIBdti9r74HdUn+3YJyynYzMuRoGHI+0XccTJaVhMXvBGZZ6y/XEzWqRSVbWdn4EVqH4PVS423v8ldrzKd5gmT7VhiL4Ix/zFZ7eQnuNUKBTq4+yCU0rQb8cRvD/D63El9XzTlYXdv4qg1cdubnetG9q6xCctoiEbjvWgqJFOvsK5jV8U8onebJstM1lSU4g8s54XCvMiruViLX2LHggb21Y+c80hEZDRR4FAS667jXMNydszNA/Io2XoMp+cSpz//mh/bMxNAtLg38QIAD/G3XOfL899x1+xi6cpVFNlywTKHVypvsPXP8T3aktl24jN72FE2NWYxmG+pr/PSiZVppQtZ4p6J1Qxm1wYO/LaDqg89CVJtpqhye/iX5Zjv+JdtHs+tX4zDDCbHs2wpOs/h5iPs2/NtbxDFvpztFeHV6HyX3+SjRD+MBv39XpjLa1sjwbvQPVqvxy5gE1mN0eZgWijVx8zAfieUsaN6MXYTELpD4+cfcLw+vP7exKJVvLz+WZyWXGyl29jhqxzgJm845RzZpK1feWNnadWmnpUsH62LYEcHbZ4WWltucMsfyWvpYpaWzsACWNyb2dJQ2bvPrDOW5tjzyNfwNefOe/qUMda57Fhwqu8xmriOt6oWRm7iH9LRVMe5yze4GwSzzcWs4nk85U7wQJQiyV83jB7fJOpkSvabYSk5fzPMQJov7j1I/v4dlFjAWrqN39RV8Vl75M2cQl6uiPS2Cf3CuaPnU7ZfgJwFb/DW+pk950rAe4PvL/89vNqu1cGvC2dT5J6ZmjLqf31Mpj0ycI1NRfub1PXKgOTS7GJN9UAr8+ZRVPEORQneifamTFoqjm+UYzWvOyB8ff+aL7/x0Gmdw28qno1c55azY8HlvuWc1etG5q+xOQt28lokABbquMHpE6e4disAwKx/38PL5dPD53XgO/Zt/6BPT8PM34tGNknm/M12vSKPovWlmLhP8ydHaCzczCvFeZisz/KCKw8C/+DToz9TtHUDBeZc8guLob5hkAyJiMhAFDiUAbV9uJW/sJdX5oZXVra4FvNKzWJeDvxC8/kzHL9i4CZ2qEJ3+P5oDR/19Hb0cbjZ1zPMyly4mPk5TVxL1OtwONvmlPLyssiQtOBNPt1Ty7VOerZrP9nEtfOl7KjZgNMMlrnreO7sbr560H+nuZhMEPRdYutbMcPa2k9RG7BEhnSMJ7/QDs0+7rbH9F4x994MhQI+2tt5NOdM8iN3bL5vqnn/QuwNVRpXYzSw31+vX47DBHCHKzur+aKz973O5jPsa7nNloNbKDLn4ixfB/WJeogMr5yj+pQ3Zob+aHKe2g2JfpkP143vPdv4Y+VszIxnmtsFzRk4Nx4pRWkO3aH+0G4+a42UVvspar3w9v7F2Ii/EV9SWRoJGt6n8UAVx1tjSrndR1ujD4troAfnFBn2dSMVZZVMnRx99So1529mGUpzdwvHj36Hs3oeFiaxoGojP0Ye9J+o2Bipx/dpPFTLxc4+uzW235xSXl87s2fuu8ZD1X17/bf7aG+u46uTqSihMMPtUf/vGOo1NmXtL8O+XiUtlWnOkFQc3173aDy0u7dOtvuo3WMasJyzd93IzjV20dwZkWG2Nzm950ife9Sf/lbDH0x7ea9sCliKeboE2hojb2bpXjQqmfM3m/UKwGTKJdBwkMP1HujwsKZ4DhbrJKzc4crbB7nWCeaODRQ4wGxJOEZGRESGQIujyKB++rCa3+39jGbfw57XTJbplKzdxYnDB9j+76407v0+jYd2xzz8R3k43XAnkhg7BcXGt80pm4fTBNBF29n9MTdqMTrr+NPZm5EbqakUzE084DLQ9H7fG7WotttEf2c1mVPV36r3Js3iKEzRd6ZxvzmlLCgMDyMLNn3d5+GhR3cD5xruhf+2ulg9IfFXZbacB9fdeIPo1EwWa8JBUSPO0NIcPo8+a+33+ND5D9rDnSf63ohPWMeTjvCwKP/1/X2Dhhlj5LqR2FCPb6rr5IirVyk8fzMmFWlu+4B3z/4SvupZ5rHp1ULGxQxRDlw/El/XDe53wrKFkTYJ/HX7szBVSOakrv0d5vUqK2n2cHz7i1RsiPl39pfe9O/t917kn6Hehil3n8YD1fF1cqByHsHXjfRcY13k9yyT/XPCH7Y7m3yEi2o8E2KLatTei6bCMOtVVOgm507EDzMPNp1JXNdERCQpChzKI/2r7TKH36rk1W37ON3wC4HoPbl5EgXluzj0Znl6duy9NGDg4UFL4puuZLctckRnR/HRPMgQme7rPxOdjtpiTxw09XsH6m13ntpUPwS0fUBz5A7QUrydE+/vYdOiYUREMr1f1wwmR+5xOzwD9/po90fuErFgHSA2ndFyfqQAoREwInN4hpDmQc6jhNyOnt6GtxqytDyokevGgIZ2fFNfJ0dYvUrh+ZsxKUpz54UavvR2hT/h3sx7leEhyiHvF4mHChrcb2+bdJtrnz/eS+2mrP0d7vXKgFTeM4w6wy3nEX3dSMc11tMT6MI+k/kJxnZNLLZH5i19yIOYkbuj9l40FZI8fwNN3yYIzt6n9XKaRtyIiIxRGqosQ9b9oIWrx1q4Cjj/fSebysNzw5gdqznwW+8A86ykScy9hcVqB4bxYJVgW6slMpl6wM+gIyu6fdwNgN0S3Tb7k/9/tvc4lupNFFkBy3RK1m6nZC2E/LdpbfqWw39Nz3wuSe3Xbu2Z5N+x9iQn1j5qL8MN8KTXrOe3sbTY1XdlxhEuk2nOt0WPbpDASIx1POK6ka3jO2rq1Wg8f1OY5qt7DzJt/w5KLOMxmwkPQ9w7wOICBvc7Obp6cqCDWwkXAHt8jMb2dzSmOWtGwHUj09fYK3U3Wbp+BibTDNbUbIb+cxyWTQl/MNDC1cbe7VSvkjGSfl0TEXl8KXAoSWn7Wy1VdeXsrF2NwwQW93Lmf1jLtSyk5f9n7+2DmzrTRM+fwcczyLuW9/owg9iyvBdRKzFtU9hsLG8wA6aCWTDFQmg+GpIACZAAGUOaUA25gVQ72Zgs0BPoBjJADwkN6YCTQLEBCpOKTYVksLmxs233INcgqpDuINcg32tRizLXMrB/6FiSbckfkmzJ8PyqXCXrfLyvzvv1vM95PrxuV/8nDcG1SUPbNQ5uu8a4/KUsKLOSbxqLAlrGzU0cK11J86eVfHglzr91WMrtoDMZPPSyythRscwfYH+kkIA663RdOzIf95Oh3fqg29hPVPuOxH41KJJk/A6Kvuqsog9tK6+HCGH+YyzXQlJ5EArCsBLHeSNBc2xn7Vc0LpxEoR4UQxEv7izSEveE4LvDlQPdE6MIgiAIQrIiikMhetou8HXTfEwF6aAYMJvh6nBJQHolkMXNN1g/kzDXBu6gV8mGyIJcqpFx2qtzj9s+uHKHmNbGMxxpPANAVn4Jc0sXMc2SiUImuSt2sN5RzpEhaJ9Blev14QMUOmj5ZC17auNfn6Hg+fKujUcHrrpTnKyqo6UtdGdjCSTeSBYSUWe7wwPWTEBPtokIAymBJnUR5o1Ete+I61cjcfzGsc5zt6/0xx/zPcCrpKPTF/H69jtseC+M1WFM5dpodYPfpF/POPpYk54ARuL6OxLrnDASOG8kao41v6IlTvLcotGtJ9c4NmDp6PPew9F0mS8/qablp+7XSb8SBEEQkhWJcSjECS+ecIZl6njMYb5OzZ2FOQZBbYrVomWbvEPLID1xw13b4tCCcmMkf2ZkxUbGwiKMAHTQahs612wlRuVKW2MNJz8o5+8O/4BfRM7EXDz0QYP6LbfBoVnopDHOMkLiPaWWketvdLxNH7Pzo5oeG48kJEF17vR6tY1PJlmm8H34Z6+tS5giLOy8kaj2HYn9aiSO3zjV+WevHWCxKQ3owH5uJ7+uuuNXhpiWse+1MAmiYiz3trvd/0ExUdjHmtQncVp/Y12P+iPZ1t+BMBLrHImhbt+EzRsJm2NLWKAlTrJXV3Lwva1sWB9MdLNh01YqP+qtNATpV4lk3OzNvPvhYfa9/yZzJ4ysuguCIAwHojgUoierjLlapjzcdk7fDx7y+vxB5NGbmJLV/bIx+Rt5b2sRUesOsspYoJXrs33Dl/f7OX8A1zprGrRA02mYF65jypjw124qzfF/9jZxJd5vze136IqnbbCWxuWWnTZ34J7DKcNFLPf+KRq1sHJ660bW544A4cw0PthXI1i3PvvaavKTxSoMElfna38KRA00FS/tdXjCL97ldW1DNexEmjcS9axGYr8aieM3DnXOmrcr0G999jNUXnTTdnEn5wPJUjazY16PoGwxlttyoSmgbDGv2MHcrH4uCCEu6+8QrEeRSIr1d5CMxDp3YxjbN2HzRqLmWPPEQDKYwSL9KkHkb+atFVMx6NPRGyazePubYZPaCIIgPM3ItCiExfzaPraYvNx22LG77nC7zk6bdkxnsDCloIhC60RNKOvAXn2m2/WNdhcvWnKA8cze+SZtn5yhxa1iXriUBQXjGVC4GXUyzxfa+d5mp/W+X+ibMnszi5dMxaAAvlucP1YTn2udp/iszsob1kzQF/H6XhPNdV9RW2OnDZUJJXNYUDIp8Htbqg7x44Ce5CDovECzYxlGIyjGZRx4fyK15y5zwxXyhtzrxhnyxtz8ym7Wm3zctjXhctzihr0r4pbKhOIinrUWBbLcttTE7610LOWer7rOtK1F6MmkcOsBJtiaaKy7zvfaPbJMReTm5WG2GNA17Y1b1r/UDAMGfag0rwZ1mkom2dnG4CGfB2erJv623KLVNx29ArqC1ex4ScelGjttqolnrdMpLJiIvo9NQtTlxkKMdY6azgt8b1uEyZIGhjkc+LXCHz79hladhQVLFpFvSAfu4nKNx2Do927RMdixn6hnlcB+Fcu1sYzfhIyFGOtMVhnrF07019N3k892VwcOXTpwhil7X8CkpGFa8ibL6rZzui1O5TqPcslm5UVLGigTWbz3AFPq6vi+7ltuuwGdAbO1iGcLpuKrfonKi8FL47L+RrEeRd2+ybD+DpaRWOdQomjfWEjIup+oObblDm6mowdMS/axTb2G3QvQjrPJRqsXwIfTGcZNJ4H9Ki7z8zD3q3hhtpq6z4uKAbNpGMMvCYIgjABEcShEQEFRczCrOX5Xp7JI57VrCTC6CxD3Pz/Fd8VvMU0P6CezvHxyt+OepuN84V3Ey31ZH+knMW/DJOaFO+a9S+3hSi61hTsY3bV//qicL9TDLDalg24suSVryC3pefED7FUV7Kkdmixu56u+pXDrdFRAZ5jKvA1Tu/8G+2nWhsbTUnToDZnkG3LIh/C/lwc4qvfHN75hDOV2Nh/i/SqVd5ZMREc6qqWI2ZYiZoe5gyeOj9m0YgfbIvU34xzeqZgTUvB19mw5pMUXquGz6lm8VZaDQjqmkjW83rNfeG5i903CFCYTZPTlxkJsdY6Fq4fPUFj5AmYd6IyzeHX7rJCj9/hu305aF/6exfEtNsigx36inlXi+lUs18YyfhMzFmKoc2oe63f6E4BBO/UH9nI1NMPx/Wr2fDqV366ahMJ4Zu/cSPObh/hzZ4zlalz9YC3Krw6z3JIOZGKyzsFkndPrvJ4RzuKy/jL49SiW9k2G9XewjMQ6hzJoeSMGErPuJ2qOrebL6llsKR2PQibmkvnBkAE9ZGmf+yZXju3ny5agIi1R/Spe8/Nw9qt4Ybe58FkzQxxkPDwJuRMFQRDiibgqC2FxXbtMfdMdXJ4HQbenLnwdeN13aKw5zp6N5RGy5to4vuN9LjbdxRuQazr8QtKBX7H1NzVE0vkF6cDX83/3HRqrP2Ttpu2cbO5LYIru2kvvbeDtA5dpdrV382zx+e7haLjM73aUU3lx6KSJzuajvL3jCN/Z7g5IeHY1NNDsuIvH+4Cep/u8wTpX/DG+wbNjLbftYgW/3PEhVxru4PZ29Li+HZftOp/t+zu2/j45Yvc4P9/Jr499i90d2q868LpvUf/p+6zdUsmP8TGOihsJq/P9ava8+T4XbfeCY8j3AFfTZX63YzvH+xy38WDwYz9Rz2ok9isYeeMXoqvz3O2bA/E4PXVHORKm73TWVvK7Oi0eob6I17d31wzE+qy+/mADv9x3knr7vZC1FKADj+sm9Z/u6WZt6Cce6+/g16NYSfT6Gw0jsc5dDHf7JmLeSNQc63Z5guX5HuD1PsDr7bk2gaJOYt723azpEYxU+tXw0llbyWdN7f728bXT/Mn+wYVBEgRBeApIGTOax4muhCCEMvftEyw2EdVbyViuFQRh5CJjXxAEQUg45nXs2+53VfbZT4fNup6aYWLaio0st45FAXy242z4IELoHUEQBEFIAsTiUBAEQRAEQRAEIUZmLLRqMQjvUnsg/Euszvt2rn50lhbNIk9RBhR5VBAEQRAShigOBUEQBEEQBEEQYkSnpGmffNzvKwdI9qRA9mWvx93HiYIgCIKQeERxKAiCIAiCIAiCECPNjnvapxwWVGzmuXxjt+Njsiw884s32b3Tn0AE7lF/rm6YaykIgiAIg0OyKguCIAiCIAiCIMSI89OPqbVsZqYhDcUwleXlU1ke8ex7NB6r5KRzGCsoCIIgCFEgikNBEARBEARBEIRY6Wzi5FtruVq4kgVlBZgN+hD3ZcDXgdfjoqXhLAf/2JC4egqCIAjCIJCsyoIgCIIgCIIgCIIgCIIg9EJiHAqCIAiCIAiCIAiCIAiC0AtRHAqCIAiCIAiCIAiCIAiC0AtRHAqCIAiCIAiCIAiCIAiC0AtRHAqCIAiCIAiCIAiCIAiC0AtRHAqCIAiCIAiCIAiCIAiC0AtRHAqCIAiCIAiCIAiCIAiC0IvURFdAEIaS1AllvLFhPtk4uHR4L5du+4amIPNG9m0vQh/umP00a9+7MDTlPuUMW/sKQpIx9+0TLDYxouaXkVhn4ckmnn1yUOvRUyYzyNgfAcTSJxPVn5+ycZQsiOwtCE8nojgU+iV1XAGLlywi32JA1aUFvvf5HuDzuHE6rrPnt8m4OBfw6tZlmHUAk1i8YSWXtn2c6EoJcUPaV3hCyMjjuYWzeDYvj59q1rLnYqIrJPQikW00xsgzC5eywGpB1aehaF/7fO247TYaq8/yZaNL+9bC+g/fojDsThp83nu47Ha+v/AxX7d4ux0zv3aAbdZM4BZfrKngUqT6hGzWPXXvs/UjW8w/ceTzFK1HMl8JwlPMUzTXCYLQDVEcCn3ys5d282rJeHRhjilKOoqajln1MZcLkTcZCUOPTgn5V1EwAy1DUVTLIbauORTyRd+bNyEeDGP7CsJQYpjO3JKp6AF7ousihCdBbTRu9ptsWzE5rEWNomRisBRhsFhQd5dzZACTn6IbizFvLMa8Ip5rOML2316Le52fTga5Ho1kmUHmqyeTWPpkovrzSB5HIxaRvQXhaUUUh0JEsua9y+sl4/3WDd57NNdd5rs6G62akUKWqQizxYjZBN6+bpQwavjHT6fy1qrJ6Gmn+dxZWdieKKR9BUF4csmat4t3lkwMWBjivUtLUxN2tw9QUI0Wsk0GDOHe7AF4fuAf953Fqf2rM1h4pngWhXn+l4FqwXr2veJm6+/FYjB2ZD0SBOFpQOY6QXhaEcWhEIEClpfl+Dcsnuv8/ZuH+HNn9zOcTgc/1iaibgOnrXYvW5O8jkL0SPsKgvBEkr2abQGl4QNaPq1gzxVX2FPHZOdh8IQ74qPN6QgoDnE6aKmv5rNxZWyrWIZJAX3xSp6v2smX94fiRzxdyHokCMLTgMx1gvB0IlmVhfCYi5igWTF4bN/0UhoKgiAIgjA0zFhRjApAB/aqnRGVhgA/OZu4PQjFX2frBU7W3dP+y8FsjaGigiAIgiAIwhOPWBwK/aIoMQQLGWNkxorVzLUaURUtsYqvA7ejga+regdnB0ICr7dTr8VtMs/eyPOlBZjUrnvcw153lsrfX4twbRgGkGFtTLaVuWXTyTWZMOjTUQJR6DvwuG3UV53idGPkDdzwUcCmg1vI1wG+m/xhfSVXI52aWsK2Q2swK4DjK9a+c6b78eFuo0C5Fp5btZTn8ozdku7g68DrdeNuOEPFiYYI5YZhgBn0UscVsHjFUgotKvrQ3+tqovHcmbDt25URsisRwLhp61iz0IpR1RIV+Npx2S6z8zdxThIUw3PuP4tlSCygHufE5fdG075xYES0bx/92LTkBMeWhDnQT/8eY17Kq6tKMBvSA3V2NJyh4qM+YthFM/bjSDR1jqZ9gwUOok8OQRsNmIylzLBo9XPVUHnRHfs9e+BscuAtHuuPX6z0d3ZykvGL3fymdDz9JnPpIrWMXUeXYQQcVa9QcbF3JtBB9clEZ3QdrvH7lM5XvdaF/JUsX2LFbMjU6vwAl62Gk4fP0PJTmOpGK0/GKF+NHDm2BwlejwaGyN69eBJlb0EQwiKKQyE89pu0+orQK6ArWMn6/CaONA5u0U6dsJK3ts7B2DP+kpKGaipi+fYCZtTsZ+eJpsg30RWw5v2NTDOkdf9eGYupeD2HDXo2SyE+oAAAIABJREFUxE04L2NLxTJM4Q4paegNk5ldPpnCuj1s/aiPOg8LDZxvuEd+8VhQTBTOVLha23sTBJCxcJZfcKGDlpqz3Y4lqo1Sc9fx3tbpmkVN77J1+vEYjYbIZUbJhF+8y5bSnN7JfpQ0VONUZpdPZZrtOOUf1ES4g8qMXx3mRUt6j+szMeQt49iesawdquxywzoWuoju90r7Di8/e2UfbxSP7f6lkonRup7Davh+EZexP8x1jqV9E9UnoyG12IJR++xq+mpoCtHpRqq+MMB9uwsv49GhMm4g0flNOdrGt51WR+/1Mpo+mSgSPX5jYeTNV5HWhXQMefPZVqmGCecTJ3ly0Ov+SJJjg4yc/iyydzQ8rbKZIDxpiOJQCE9nDefrFrGtOBPIpLD8I8y2y3z26VluOAegQMwoZdv2ORgVwHeX+k+PcqTWn38vK38pL6+aj1mfhqFkM9scG9gTduHVkb9hi/9tqfcezXVfUVtj5yfDdJ5fNQeTDhTTfDblX+Bgo3ZJyyH27PoqZENkZMHW9eQP2GiyA6/LRYutieam69x2A6hMKJnDgpJJ6AG9dSOb6jYEy0wQzqo6HMXzMZKGuWQR1J4Je97cghz/B28TtaHPOVFtRDGvl2uCi+8ezddCk+6oTLBOJNtgYoIvTD+LoX2z5u1iW2lOSLIff13bUJlQMou51smoOtBZ1rDvFVfYhAF663peBOABjrqznL9g6/ZbUYvZNvNUhGcVC9E859iJ7vfG0L4xMKLat2c/Ni5iy1p/llJH9dscD2co4I1gdWZaxhsmf51dDWf54pyNNrWIF9bO1/rFIrbNrO5e57iM/RiIos6xtW8UfTKebTRIzMaubV07txvCBi+MvQyLQftt93Amei8eLS4PXkCHDtVA/4pDo6opDr14HD2ORTOOYpY3omS4x+9TPl+Frgvupmt8ceFbWnUWFixZSr4hDfRFvLrhOuW/7WlBH6s8Ge26P3LkWCDh7TtYRPaGp0f2FgQhFFEcChFp+X05v2M3rxb7MyvrLXN4tWIOL3tu0XjhDEeuRM7E+MyqRZgUgLtc2bGd023BY22NZ9jTdIdN+zeRr0vDXLYSasO9KUpDUcDruEz5O6eCXztPUenRa2bz6WTnGaExuAtodYbuCHQMfBm5QOWacBYFDpwnGvjOtpnfbJiKjnQmWC3QmOBMlPfP0OyYj9EIGPN4PuNM7wD32evI114eem3fciPkUMLayDyZbE36cJzbzofd3MUcOJ19u69G1b6pJby8UEs04L3JH3ZVcjXwe/3te/VCCdsq1mDW9ZMwwHeX2gM7OdnsC/5WO7y7dw4G0sjOK4DauoHUahBENxbiwmB/b4ztGxUjsH279WNd8Bn5PA6czjAX9Mk96g/sDFqFOx1U7lIi1jk+Yz9WBlHnWNs3yj4Z3zYaOEY1U/vkpnUI0lWm5m5kvVUrw9XAySH8LUOK8y4eQCWNMToFulaD7NXsrpiFyi2+WFfBJc0SLEPV7F18HlrDxoQc3DiCWOSN6EnE+H3q5yvfXb47XMHxgOeNg4ONjkC4D13eHGakNnA1YHUYD3kymnV/hMmxJEn7DgaRvXl6ZG9BEEKR5ChCn/z4++38cvdJGh0PAt8p+okUrniLYwf3seXnlt4XpZYwM89vTu5tONttUQzQWcf5ruDsqoVlGeHL9zR82H1R7KLlDl3vsxVdL+P3IaGz/jpdIUf0alhHkGHnfM1NbfHOoXChsdfx7FKL5pJwj8ZzIUJBQtsoKG7oTXnhbxpnUkunB11GqvaGCC4htNXw91XB55lbHM6Rr536UMElcO0PODXDIJ0+rBNIzCRmLETze6V9h5d26vdt7x1KIlKd4zj2h6vOsbfv8PfJ5EAhK9tItvZnLizlhV/u4zdbu2JV3eO7T8LMKSMGB21af9Ebg2tydkmetu5NZEppsB8Y9F0Z31xh4pINchwliqQYv7EwQuerAztDlIZd2Pis7q7/o2Ikt2DgdxyoPBnvdT/p5NikaN/BI7L3wHi6ZTNBePIQi0OhX35qqebgO9WkZuQxc8Ui5hZMRK8AurHklr3FActpykPjaFgmMU6b9122yG9/nG4PMBbQo1qA+t7nuO2R3oBFeqs6lHjwJZkVfGftZZqXTCJfB2reHOBoyNECFhRocYQcdRwPtQpIZBu1HKXRPZ2ZKugLtnDsw1vUX/iKI1eGwBJNI9/UFbPFQWMfrgyd1/6Ea9UkjIDeaAF6+PDZL3Okp+AyTCRkLETze6V9h5fB1jmOYz9qBlnnmNs3AX0yKdBP5eWKqeGPee9wZV8Fp28Pb5Xiiw2nGwr1XUoQv/XUs5Zg/DyTdRFc9LsSTuiy5PTc7X2rkTL2k2H8xsITNl/db3LgKR2PnnQyBqW3GJg8Gf91P8nk2GRo3ygQ2XtgPNWymSA8gYjiUBgwnfeb+PqjJr4GzD/fwfoyf6wUnWkZ+16xB+NSBOIIgWnFCY6t6O/OgxW4hpYpv9jMggJL92x0SUtIoGa1gE35BOOZFE7HrINwgZkT3UYndx9Bv309+Sqgn0jhii0UrgCf+w7NDV9x8I/xdTdQ9VpAZY+bPr2qOh20esCoB71qpJfwIgwIad8kZgTOz/Fo3+Huk7EQ3B4NMOnHgOnA63bQXH2WI1eejL5/290OpkzQaxv1jJXkGgDvA7y6dHQhroRZWsf3uOMczmE4GYHjNyaS/feG6DL8c073vpUoeXLEyLHJ3r4REdl7IIhsJghPFuKqLERFy+eVbH3zNHZNaNJbFzEj6rt10BnfPAnRkVXGjoMneL10KkY1yYWtEJxVDbgASMdcHPSVmVGS589g5rNTH3PA4Di3Uds1Dm57ibcPfEW9/V5A9lbUHPJLN3Hs+AG2zE6ODKdCFEj7PkEkyfwcKyOoTzpd7dqnTMaZYliIPNfZs+Yl1gb+1lK+rSKuSkOfN7Gdw+4I+KnxDJBRasEA+Bw11LsBcsgt1QN56LRH6XYkPq7b8PGEjN8Bk7jf63W7gv8kSp4coXLswEme/iyytyAITxticShET9sFvm6aj6kgHRQDZjNcbQG8PnyAQgctn6xlT22iKzowni9f5s/ORQeuulOcrKqjpS10xbYEAmEnFfdP0eiYg8EYEqCbEgpNaQB4my73jueUJG3U2niGI41+N7Ks/BLmli5imiUThUxyV+xgvaOcI3GwtgmIbnqVbPow4Ek1Mi5glWKPveCnHGnfJCRJxv5giGf7DlefjIWWJjve4qno6O5qO9R4vV1PWiW7L0vHEGVEoq33Ot1uvOSg0+lRUVAtOUAHt+vOcNVkZWbxWIx5c8j4/IFmcdhO20ge+iNw/MZEsv9evRIYDr4QH+BEyZMjTo5N9vbtC5G9+0VkM0F4shCLQyFOePF0vWxtcGiBedMYZwmTPCUZSS0jV4tv7G36mJ0f1fQQtpKbQKBmxURhsULGwllaQOIegZm7SMI2amus4eQH5fzd4R/wP/lMzMXxqVuLQws0jZH8mZFfwWcsLMLfDTpotT0hVinqeMxhvk7NnYV5GDcP0r4DQ2GITUSScOz3x1C1b7R9csjbqP7bQAIDjMWszx0esyGnw61t9DLJ6sPSMdtq0tzt2mntY4+XmpHHjJ8vZUbuEE40Njd+m0OV7NxSppjwW/pcA2e1zd/XjXk8lz9eS1bgwTmS96VJNn6f9vlqitXity7jDi1dXp6JkidHohyb5O3bHyJ7982TJJsJgiCKQyEWssqYq2UHw23n9H3t+/unaNSMEPTWjcO26YkJ0/hA3JFIkaOffW01+cnylrYHnbWXafYCpDHBWsrcvBz/gZ6BmbtI4jbqDGwEIV57EmdNl0tJGuaF65gyJsxJWWVsKtWem7eJKyPpzXcYvL4O/we9iSlZ3Y+Nyd/Ie4HMqsOLtG8Y7HcCz8RgLR3aspJ47EdiqNt3QH1yONuIhmBWTTIpLH+XNfmRM6eOyc5jQjwyjTbY6Xr/Zypdx8/C+aRklfGCVYsn6G7ieCQTktQS3ti7jRfL5vPi1t+y77UhyuJ5/y73fQA69KWTMQI++3WudgLOo7R0uSsXa7Od1427c2iqMiwkw/iV+cpPVhkLNBnYZ/uGL7tk4ETJkyNRjk3m9h0AInv3zYiXzQRB6Ia4KgthMb+2jy0mL7cdduyuO9yus9OmHdMZLEwpKKLQOlETUjqwV3d3pTpfdZ1pW4vQk0nh1gNMsDXRWHed7+3+d21ZpiJy8/IwWwzomvay9aP4vGFKzTBg0IeueGpw/VMyyc42Bg/5PDhbtWWy5RatvunoFdAVrGbHSzou1dhpU008a51OYVcm6XiXGzeCgZoV0yL8L/bCBGYOIVFtZH5lN+tNPm7bmnA5bnFDKw9UJhQX8ay1CH+ElXZaarqXGfVzdp7iszorb1gzQV/E63tNNNd9RW2NnTZUJpTMYUHJpEB/bqk6xI9x+bWJo9Hu4kVLDjCe2TvfpO2TM7S4VcwLl7KgYDyR1RCxEUv7Rs1Ib9/OCzQ7lmE0gmJcxoH3J1J77jI3XCHWIl43zjhZjyRq7EdNjO0blz45zG3kPLGVL4zHWGxKA2U808o/otBzhxabDYfb7+ymGi1kmwwYdF7qd5dz5H6/t+2b+2e41FDCqwXpoC/ijb0q9dcuc7XOhReVCSWzmGudjKoAPKCx6uPI9zIFs4eCPw7y3GNNXIq70s6F2wtmfRoTLCa/C2DdtcDRr233mFY8FmPBZP8XHjc34lRyLOt+LNcmfPw+bfOVOpnnC+18b7PT6tdSM2X2ZhYvmYpBAXy3OH+sJnh+jPJk1CRQjk1UfxbZe+CI7C0IQqyI4lCIgIKi5mBWc/xujmWRzmun+dNKPrzSfTHubD7E+1Uq7yyZiI50VEsRsy1FzA5zB0+ssYNDMK3YwTZrZviDxjm8UzEnpODr7NlySIu5UcNn1bN4qywHhXRMJWt4vaRnRW9i903CFCbDWfTlxg9ntQ138VhUJc2/oPvs1F+L/HAT1UYoOvSGTPINOeQD88Ke9ABH9f5eMVZiec5//qicL9TDLDalg24suSVryO3ZxjzAXlXBnpgDWiee+5+f4rvit5imB/STWV4+udtxT9NxvvAu4uVIzzNaYmjfWBjp7Xu+6lsKt05HBXSGqczbMLX7s7OfZu17F+JSVsLGfgzE1L5x6pPD2UYAl3ZXwtbNLLb4x6iizyHXmkNurzPj54544/AhzBWbmWlI82fdLJtIYa/13/+cD9b30TnsP3DbW0TQUFIl20QcM0R3YcPpBvSgKGngu9lt3Qusi9r/Ps/duJUcy3oUy7XJMH6fqvlKP4l5GyaFnze8d6k9XMmlttAvY5Mnoydxcmyi+rPI3oNAZG9BEGJEFIdCWFzXLlOvKyLbqKLXKeiUtOBBXwdej4uWpm/4uqqGlp/C36PtYgW/bChg8ZJF5FsMqLrgPXzedtwOG1cvnOLr5ni/AYwO5+c7+bVrHWsWWjGqmgBAB163g+bqMxy5YmPu2yfiLOjFEedR6h3TmReIcXPZ767VB4loI1dDA80GC9mqHp0uvZtHhM97D5etgfNVZ/ixNf4CxKX3NtCYv5LlS6yY1cxAxkGf7x6upqErNzHYOL7jfTwbVjPTMl7LKNqBz22n9tOPOd3owvzaoriXKu0bHZ3NR3l7x01eXDWfXNP4obFICWGkzc8QffvGq08OdxvRaefSB+XUmkt5ceEszCYVvRLaTvdw2e18X32Kr+O1G+5s4uRba7kxeyMLSixMMGSGJH9ox22r44tPBzCOOuv4h8NT+WAYQiI43e1g8m9qA27KgYNHaXFPR9XW7W6Zb0cwiR6/T9d81YGPtJB5owOf20Vzw1kO/jFMHDsSJ0+OVDk20f05JkT27peRLJsJghAkZcxoHie6EoIgCIIgCMKTRB7rP9ymZXC9xRfrKobAVVkQhoa5b59gsYm4WxILgiAIwkhEkqMIgiAIgiAI8SW7iAmauaHP/oMoDQVBEARBEEYo4qosCIIgCIIgxI2u5BF+j8i71B4Wiy1BEARBEISRiigOBUEQBEEQhJgJuHd24b1L7eGdnG6LeIkgCIIgCIKQ5IjiUBAEQRAEQYgTHfg8blrqzvBhhOQRgiAIgiAIwshBFIeCIAiCIAhCzFx67yUuJboSgiAIgiAIQlyRrMqCIAiCIAiCIAiCIAiCIPRCsioLgiAIgiAIgiAIgiAIgtALURwKgiAIgiAIgiAIgiAIgtALURwKgiAIgiAIgiAIgiAIgtALURwKgiAIgiAIgiAIgiAIgtALURwKgiAIgiAIgiAIgiAIgtALURwKgiAIgiAIgiAIgiAIgtCL1ERXQBAEQRgYqRPKeGPDfLJxcOnwXi7d9iW6SoIgCDEz9+0TLDYB9tOsfe9CoqszopB1ITLSr4SngSm/eJPFVguqPg2l60vfAzyOGra+dyaRVRMGgfm1A2yzZgK3+GJNBZcSXSFB6IEoDgUhWcjI47mFs3g2L4+fatay52KiKyTElZjbt4BXty7DrAOYxOINK7m07eP411N4spm3i2NLJmr/3OO7XVs57gx3Yhk7ji/DBNirXsJZcoKZKsBdrmzezun7/RVUwrYjazArgOsya986FSIU94+n7n22fmQD6PM6n7cdt8NGY/VZvmx0hT0n2nJ7Y2XTwU3k67R/vT/wD5v2c2NAd46BMRaeW7WIGRZTr42h22WjueYyJ2u76mxh/YdvUagPfyuf9x4uu53vL3zM1y3ebscGvGkxb2Tf9iL09Pe8hKHnKVoXnkYZaYyRZxYuZUEPpZDP147b3n3ei2X8xjrHdidR8+TAn9UTQ1Yxm3auJz/cfK+ko1dVzEDLcNdLEIQnElEcCkKyYJjO3JKp6AF7ousixJ+Y21ePTgn5V1FEIBRiZCyFK0o4/kFNv2debbrHzJKxwHjMpXr43NP3BTOLmKD1V1fTV7FXNQKKLhODpQiDpYh57h/4x937+b5tiArLL9IUNBo6C4WFcKN+iMoDpryym5eLx6MLd1BJRzVOZeaqqWTrXqJyAIoURTcWY95YjHlFPNdwhO2/vRbvKgvDylO0LjxlMtK42W+ybcVkwuqElK55z4K6u5wjQ9jgg55jEzBPJsuzGm5mrF0dUBp6XT9Qe+4yN1xeQGWCdSLZuvYncy4QBCEhiOJQEARhRFDDP346lbdWTUZPO83nzopAKMSMYpnF8xk1fNmPBaGzxoa7ZCwqYLQUA327/T2TZ9QsPu7SfMGvZLR/WsmvL4RoOYrX8U5pDgCO6rc5HqLD8nnCWYbc4cquo3zf9a9q4pm8qeRbJ2PQAepUXq7chX5HBZdCNraxl+tnSrHFr8DzPsCrS0dHOmarFerr+nwW0fLs3x3g5YKgFZDPc4cWmw2H2wcoqEYL2UYDBn1a+Bt4fuAf952ly6BUZ7DwTPEsCvP8iki1YD37XnGz9fdiMThykXXhSSRr3i7eWTIxaF3svUtLUxP20LFvMvjnvbgS3RwbynDPk4l7VgkmYykzLP653+c4Tfk7oWuyA6ezITH1EgThiUUUh4IgCCOEttq9bK1NdC2EJ4N7uN1jUdUcCpcY+fL3jr5Pdx6lxT0dVQVMU5mbeoFLnZFOtlJoSfd/dDUF3Jo777twhiooPcFYbD6PA2dYl+lQfNx3OgKKMJwOnI01fHkiRMmmTGTBhjIuhcQzi71cAAuFJv9v8jm+4jv9MmYbQGcpYgp1/DiQWwyCrHnv8mKX0tB3l++OVXK8PryVZ2pGHqawrsk+2no8r5b6aj4bV8a2imWYFNAXr+T5qp39Ko6F5OVpWxfaOtuoN6SSsmIUjzMhJStynscryut881+AtIek7PzL4atkH6TceQTA4zuPeNz6GFoedj8hezXbAoqwB7R8WsGeK+FfaIzJzsPQj/H34Ihujg0yvPNkvJ9VdrYR8OF0Dt6lOZZro8JiQNU+Oq5J/E5BEIYeyaosCIIgCE8dHhrr7gCgWlcyYwCvEb+3t2ufjOQWK5FPDHFVG0o35VC+/205XftFxTSLNdlxLsA8C7MeoIPbdRf43nbP/73ORKE5zmWllvDywhxtM9xO/YGdEZWGAJ33m2gZkPJTO7/1AifrtPqTg9kaQ10FYbj4y5842XaUXa3v8G12KphG9ak0TFYe54zicc4o+NtUUpYqpKxPIyUn+DtmrCjWFEId2Kt2RlSEAfzkbOL2MCn9BzTHDuc8SZyf1bxdvFPxHu9U7GD9YOsay7XRouq1EBbttPXz3k8QBCEeiMWh0D9jLDy3ainP5RlRdSEuUb4OvF437oYzVJzobhLffya7kADuPc7purYraPO4/JUsX2LFbMj0b6R8D3DZajh5+AwtP3W/ayzXdpE6roDFK5ZSaFHRK2mB3+p2NdF47gynwwVXDgSbbqdei6Finr2R50sLMKld97iHve4slb+/1uOa3piWnODYkjAHIj3PKNooLowxMmPFauZajaihz8rRwNdVvYPvZ83bxXtdb4e1hAnh+NlrB3hDC9TtqdvD1o+aYiq3d72DyQaCbn4d+NwumhvOcvCPcejP8WjfPu4x0CyR0fTnXuNo2jrWLLRiVLWA4752XLbL7PzN0LzlHml1HpNtZW7ZdHJNJgz6dJRAVPYOPG4b9VWnkq7OAPfPfUNL6RrMyiRmLNRztZ+4hS01NjzWIvSkMcFaDLXhYyMGXNVC3JSHgy+qbzJz1SQUxmIuMcKJ+O2mzCUW/zj02am/Bk5Dl+t2JuYSC7TEz903Y+Esf1IZwH1tL0ea458l19nkwFs81t9OfeiAE8UY81JeXVXcz9pdwKaDW/xJGHw3+cPGSq5GsoJNLWHbIS1Zj+Mr1r4Te6bRWOScANGs3TGsC/GYczJyl/LiEiu5hrHBuS4cnuvs2XIoetfpkN9567//C4fbjvDPP/kbP2V0Gmmjw1zz+CEdvodhDvhJGTWa1NGjSUkJueRRJ77OR31UJIXRqamMHpXS/evHj3j4sJOHfV06EP56FKxQ4HwnOBcH3E9x1VB50R3jzeNLf3PscM6Toa66yfisko5o9ikhRCPn+Ocbf3l/0K1j29rpGHXg8/yJz97dy9U2mPHLAyzPy0ShA3fDx+Hj7g5C5s/4xW5+UzqeAWcmTi1j19FlGAFH1StUXAyut8O2Hxwgqbmread8FgYF4B7f7dvO8SGQDwQhEqI4FPokNXcd722dHjCH74aShk4/HqPRMESlq8z41WFe7HJ5C5SbjiFvPtsqVf7+zUP8OexGIbprJ/ziXbaU5vQORK+koRqnMrt8KtNsxynvK5mAroA1729kmqFH3CllLKbi9Rw26NkwAIXPQElUG6VOWMlbW+dg7PmwlDRUUxHLtxcwo2Y/O08ElX5tFys4X3CMxaY0MMxh90vfsr2H4Jmau5GXNaWhz366l9IwmnJDyZr5phYPqidpKGoO+aVb2OEZWKKBZCf2/hxpHGViyFvGsT1jWRvnDJ4jr85lbKnwZx/uhZKG3jCZ2eWTKQynAE9YnTU6a7jStBRzQTpG61L4/Gjf57d8Q4uniEI9KKYiZlDD1V4nBV3VQt2Uh4POa3/CtWoSRkA15gHxUhxamGHR3IYdf/Irp5zfctszHVUPessszNjiFltumiVH+3SH+qohMiXR6ZJRXwjAz17ZxxvFY7t/GXbtbuB8wz3yi8eCYqKwWOFqbfhNVGrp9IAy1l53dkjrP1CSU77qe84J2zZDzH/x/SuH247w748ivO0dIKNS00gNY6CYMiqVNCW8wjElJZVUZRQpvS+DlFGMTk1jVL+KxwGQmkLK8wqjWvQYta+Gy1p7MPQ9xw7vPJlabEnqZxVvMsYZ0YdO2iH/KKqR7DDvy30eF633w8yJg96nxCjnqCt5a+10umYzRT+Z5WtLcHsW8WJeVxzfNNSC1WybWceekHl8sDL/fbsLL+PRoTJuIJmiTDnafqCdVkew3GTbD3ZTGvruUntgJydFaSgMM6I4FPqgmNfLNaHWd4/ma5f5rs5GqxcCGbsMJib4+rHuihK9dT0vAvAAd9M1vrjwLa06CwuWLCXfkAb6Il7dcJ3y3/a2pIvm2qx5u9hWqrmHee/RXPcVtTV22lCZUDKLudbJqDrQWdaw7xVXhIDyOvI3bPG/iQu5x0+G6Ty/ag4mHSim+WzKv8DBxkPs2fVVcPNmXMSWtf6MgT0D9gfw9nyjmqA2yihl2/Y5GLUFrP7Toxyp9ec5zMpfysur5mPWp2Eo2cw2x4ZuQsCl3fvJ3ruNQj2oJZt5oWYrJ7vc7FLzeHmtZknhu8X5wxfiVi5A6sw3eWfV5IAg4LFf57vqb/xZ6EKCgMeFlji0b897YGTB1vWBLHp9EY/+HDqOHHVnOX/B1q0voxazbeapXs85WkZinf104HW5aLE10dx0ndtuAJUJJXNYUDIJPaC3bmRT3QYONva+OjF19vPjuQbcBdNRVSvbZn7cTxk2rtraKbRmgmIktxCu9syUGXBVS8BmrtNOqweMekDNiV922ezpTNB+k72hWvsy5FnoTTybzaDchSNjZULX7sptH7LYg2aLQZtX7uGMpM9OBMZFvG5KY6Brt7OqDkfxfIykYS5ZBLXhLQkXWCf6P/hu8n11Mmy2Yli7Y1gXuohmzkmduYPXNaWhz3Wdz46d4uptv0XxlJ/v4uWyif611fMte7YcjX3sab/zv/2f/w3ff+iElNEomubv8SMfnWENCx+Hv1fKaFI17d/jRw95+PARj1NGkZo62q8UTBmNMvoh3XSHKaNDlIaPefSwk86H/vunjBoduDZlVCrK6A76MHQcMH/xv14FpgPt3G4YPmvtAdPXHDus8ySYjV0q9yR9VnHFwvLtmvVyLzLJX/se+WGOdFkWd2cw+5TQ66KVczLJX1WCQjuNnxyiPm8jrxZkoqjzedGSCZ4f+MPhP5FfvoZcXRrZeQVQqyXSiUbmd3nwAjp0qAY1Hof5AAAgAElEQVT6FwKMqqY49OLR9ODDvx/su4rdlYZ3uLK7gtO3k2EdE542RHEoRMY8mWxNMnWc286HF0MnqWHK2OW7y3eHKzje2CU8OzjY6Ai4/+jy5jAjtSG8e9Jgrk0t4eWFmgut9yZ/2FXJ1UDGOAfOEw1cvVDCtoo1mHV9BZRPQ1HA67hM+TshbrjOU1R69Jr5ejrZeUZodNDqDHlbq4siYH+C2uiZVYswKQB3ubJjO6dDsuu1NZ5hT9MdNu3fRL4uDXPZSqgNsVzobOLI4W8xb5+OnrHM3LqOG9om42dr12mCUTv1Byp7Ze2LqdzUEt5YMTkQE6b+wHaONIZsykKCgMeLmNu35z3QMSBRIW79md5vNp2nqLTDu3vnYKCHkBcLI7HOAFygck24N8b+On9n28xvNkxFRzoTrBZojOCqNax1DsF5lHrHdOYZ+1a8dNFSZ8drnRoxU2Z2sUkTwofXTdmPDe8QyNLZpRbNKuwut68FC2hp6HoW8XSNVskIvNm41+toVraxtwUE4HQOvOzU3I2s16y6cTUEX9wkA0oaymDW7vtnuGor5UVLGhitvJB9pvfvyVhJvmaa5G26HNmdeTiJce2Oal3oySDnnNnFkzR35pt8tutQt+f44+cV/FrZzQel40FfwHOF0NLzpUIUtOr+lZT/SfHrA0PN/h4/5nEEHWFfPOrsIGAc+PghPl8KiqYcTEkZBQQtB0eNHh1UGvp8dIaU9/jRQ3wdj1HSUv3Xjk6Fh7F3rI60Vv753/+Zv/nLNFqTMj125Dl2eOdJMKpdlmruJH1Wycrg9il+YpNzFCUNT91+DtbawGVjeUERenUsKne58u5+rraBzrWGXBPo9EEb7KhkfuddPIBKGmN0CnTNjtmr2V0xC5VbfLGuIpDcLUPVVlSfh9b7JGw/GIlulum+W3yxq5JLraI0FBLDyIsqLAwjwYlJb8pLQPlaUPjGnm/cbXxWd9f/UTGSWxD7tUE3pg5aqvaGLBIhtNXw91U3taeSEzE5gKfhw+6LRBctd+iyJ1N04bZ+0ZCANkotYWae373J23C220IeoLOO813B91ULyzJ6HG85yvtVt/y1109n/Wt5jAlxUfZcO9Q7rleM5XaLG1azt7vS8Akjfv3ZP456uUO0/YBT0wmFCnlPW50HQmf9dbrC7+jVsI4+JLrO5y/8gBfAaO0/qUjjt4Hf48+U2Z0ZFs2NcZjdlLtoGwJd5XORflNI26p5s+Jersdt7/FNGesr3tOC8Hf/2zEv3B0UsrKNZGt/5sJSXvjlPn6ztSs+3j2++yR8nNnEMfh1/2p1k7//MpbcUiM9yV5YoLnIPaDl2jC88BwQySFfDXzOsZAdSOH6p7DK17YGB/5L08mI13Rljt82pZvSsIvHj4I2iqGBDxnN6K6iHz3spjQMuWPI/VICFo2x8p9/SpY+Gp5Ic2yi5sloyBgXnBcDfz1df3seH6eP+drosXFky0usXRPyV3VLO9ZO/e4ex7S/3taGfuK9T+lXzvHd5Pyx3qbt3oYz4WV5iEHmdwT6qN4YrEt2SZ6m2J7IlNJgexn02u/0uLhKcu0HuykNvTf5w44KURoKCUUsDoXItByl0T2dmSroC7Zw7MNb1F/4iiNXhkmosV+OGBT+fpMDT+l49JEE1EFem2/q8g1z0NiHq15ofBe90QL0Xgjd9kjPJ9IbuxhIRBtZJjFOWyNdtsgWUE63BxgL6FEtQA/rg7aLFXxRcIzlpjT01o18kJeODi2uYTiz/xjLDbbxHa5++mSnoItbf+5jHMWbkVjngeHB1191Elznzvr9NC45wTR1LIUrSjjeV8weGvjO9oD8gvRApswfu6w9sleTq82piYo5lRXr/qwn2asxa7/Jbfu2x8E6mh3ryLekgZrHC9nE1XpPpzcAMSQT0E/l5Yqp4Y9573BlXwWnb0d/+yEhmnW/8TLNnqn+8BcFi5jy+/38GHL4uTxNoeFu6NclbNhIYvkqPDacHvweAcbJzEi90Et5mFVg1BTSD7gfpzwVozJTIjkfD47HD3srDfssOCVg4Pj4ceQLHz/uMoVM8esd41DZW//9X4Ci2G80RISdYxM4Tw6evtx+IaLrr+c6a7d8E/W1MSUKijPx36f0Led4Gr4K87KhnebqPua7qGV+G063f67yKzH9a+izlmBsVpN1EVz0e1dM6LJc9fhfTCXNfjB3Ix90veTz/MA/vruf7yMpWQVhmBDFodAnJ3cfQb99PfkqoJ9I4YotFK4An/sOzQ1fcfCPQ+A6NxBC5nK9amRQQfDDXKvqtQDhHjd9yjOdjkB8F/+1iQ8ONextFIgHAqYVJzi2or8LIlsffL17PxP2bqNQn45Oy4z52e4Ii2mM5Y7ryp7scXE7GVzVhpCR2J9HYp1DmfKLzSwosHTPNjiC+KLuDtPKclAss3g+o6bP2Ho/1tnwFkxF1yNTZkZx0FVt+N2UAfLQBTI9euOySQtaKdyjuab3OnO1zs5yi5ZltFgPf4z1dwcXKEXpaYnQY7PRV3bdsHTgdTtorj7LkSvJMW4GRcR138alpnsUFo8FXR6zZ8KPtdqh7HUBhYarIfZMyvEkaeWrCFypucmCVZNQlEksr9gIPWMclo73n+hp4us4uCkDPNKnhE9MMtSEWB+mjE7jL3pmVAZeGr+amRNnAvCg4//j9WvrQj2duzMIw8m2zjYYaGKHYSf8HDv882TodJCsz+rJI3o5J4oXozHI/Lfd7WDKBL2mLMxYSa4B8D7Aq0tHZ8zj+YwzfHk/qAj3uP39NjlkUZUZqyYGXsQ0fnpIlIZCUiCKQ6Fv2q5xcNs1xuUvZUGZlXzTWBTQss9u4ljpSpo/reTDK2FS0g8TXnf0ZcdybdKQ9G3UQWdEr2AVfeje2OshToYKPcq1EDfvcEEIJauMHRXL/AkFRjD3z31FY8km8nU5FC4x8uXv+zi5/jotq6aSrwO9aTpdb/Tn5mmKgwS5KZMxmWxtE+Bz34nLLWd0Wav5vCjWpTxv7XmGT4unBIa8+fDHWF1//ZsRkx4wTOQZ4Ea0txoGKxefNzEhH3qu3aFJUiZYS6DWbzVrLutSaNyhMSHK7D5I+rW7O521X9G4cJI/q7qhiBd3FmkJVkLw3eHKgTgkRtFIyUyI2rBP3v6bXawqWUWWPivwXZunjcfhEp4NkoABI5mMMynQMrSW6IMevxHm2OGfJ8Hp0pRDg35WfrffIz2/nreLY0sm4nf9LedIhE4cy7UjlhEh5wRlfrvDA9ZM0Ol5BmgptWAAfI4a6tX5zFRzyC3V8+XnxoAi3O2Iwbo/7ri5uvsyUyqXYVLSyV+7i2VuSYgiJB5RHAoDorXxDEca/W/rs/JLmFu6iGmWTBQyyV2xg/WOYV4o9Uogo6CvXz/A/q8N3EGvkk0fLy5TjYwLvJ3qGX8qsQxbG3l9+ACFDlo+Wcue2n6viMjc7Sv9sUR8D/Aq6ej0Rby+/Q4b3gtjdRhTuTZa3YAe0OkZx5P9cnok9ueRWGeA58u7hOkOXHWnOFlVR0tb6GbMEkjqkNR01nG+YSn5xWM1d89bfZxcR71ttd9dWbX4Xc88SzFrHj4Jc1MuyyPgZNQUh118xsqAtRpKDtPKcvo+35DHsgxiVJraaLY/YFpBOugsFObDjWFyr/UGsh6oZPdlwRNiadJlpTEsBNbuDn7qmaEhJElK0Gq2gOfy/G5oPts3Q5ahOlaSTr6KgPkVLXmZ5xaNbj25xrEBqyOf9x6Opst8+Uk1LT8Nf922/Mdfkm/snVd21OhURqXAv9138UbdL8Nem/JIczN+RNBiMAUY7f/4+GEHHVp3q/o/vmDe/+4PKPrPt/+Zv5nwNwDsPL0zLlmVHz16BKP85omh7pQDYTjGb9g5NiHzJLQ02fEWT0XH4J+VMDgSIufEIPN3ut14yUGn06OioFpygA5u153hqsnKzOKxGPPmkPH5A83isJ02TZxMGlm07QJ7DuT43ZWVHGZv38H9HRW9kkYKwnAiyVGEQdPWWMPJD8r5u8NaQH0yMRdbwp+sjscc5uvU3FmYY1hgplgtWmbJO7QM0psn3LUtjq7slUbyZ0a2v89YWIQ/9HoHrbahezulEJuv46DaaLA0ODSrwDTGWaK/589eO8BiUxrQgf3cTn5ddccvJJiWse+1MMHiYyz3trvd/0ExUdhHG/dJnPpzrO3bH8nWnwfCSKwzqWXkBrK1fszOj2p6CNMjC2dVnd/5U3P37IsbTQ5NwPa7nqUWW7R2uUfLtQRYdmWUsr5Es3j03eT76tjfzGeEbJIHxnjMpbHvnG5cs2nzdjq5C8tivt9AcTrcWptmkmWKPAazrV2Zs9tpHUbdfXDtdhEudFQwSUoO+WV6KJyOWdvs3q6LgyI5EnGUc4Z07Y6JEhZoycvs1ZUcfG8rG9YHkzBs2LSVyo8SozQEyDfm8/OZP+/19/z0hSwsXsiMv+lnQuvJo8eBcIX+bMtwcNrhgNLw4P9zkL/6D38FwMV/usgn/3o8Pj/kUUiyFmMx63MHLisM+fiNMMcmap6kPpioa7DPShgEiZJzYpH5bW4tUZNKdm4pU0yAz079NXBW2/z3NebxXP54zSLdg1MbC8kki3Y2H+L9Yz/4f4sykcU7N/NsVn9X+Rk3ezPvfniYfe+/ydwJMjaE+CCKQyFqOgMTM/TUg3h9Hf4PehNTekxyY/I38t7WwcRl6kFWGQu0TFuDtiKIcK2zpgG/M1Aa5oXrmDIm/LWbSrU3qd4mrsRgaRcW+53A8zRYS+Nyy77aKGrun6JRe0mtt26MSljLmreL17VNiM9+hsqLbtou7uS8vUO772Z2zOsRGDHGclsuNAWEEPOKHcwd4OILcerPQ9C+kUiK/jxIRmKdMY0PtnsEy+dnX1tNfrJbG3Zx/wyXGh4AaZhLiujTK6n2Ol1eM4a8+czO03YW7qbhD3yfVcymihcwaZkQHeeOhs36OlgCrtfeH/iHMBkrA3+bL9PlTGq0FMdecON+Ljn8c45iXMa+v4vDPQdCgz3wO0yl6/hZOJ+UrDJesHYlG2ni+HBZwg1k3W/cT6MW68KQN5+5JXn+Puxt4kofQe6jZSjlnCFZu2PBPDGQqCBhhCrzRo2OeJq73c3ntZ/zee3nfPntOc5dO8fVfx7kYvG40+82DDAqlYXqAlaXrgbg89rPOf3n06iZfhnlu3/5bpA/pC9CMzVnUlj+LmvyI8/EY7LzmJCh/TOU47ePOTZh8yQNwYy6g31WwsBJlJwTi8x//y73fQA69KWTMQI++3V/n3UepcUN/mzIWqW9btxaf042WbTtu/28X3XL/1JAP5WXd24MP7ZDyd/MWyumYtCnozdMZvH2N5khPqZCHJBuJETE/Mpu1pt83LY14XLc4oa9K/qcyoTiIp61FmlvGdtpqen+tqXR7uJFSw4wntk736TtkzO0uFXMC5eyoGB83xvSLtTJPF9o53ubnVb/CsCU2ZtZvGQqBgXw3eL8sQjZPwd7rfMUn9VZecOaCfoiXt9rornuK2pr7LShMqFkDgtKJmmLZwctVYe6ZW2MC50XaHYsw2j0bxYPvD+R2nOXueEKebPndeMMedMXSxvFwvmq60zbWoSeTAq3HmCCrYnGuut8r5WfZSoiNy8Ps8WArmkvWz8KKTurjPULJ/r3Qr6bfLa7OnDo0oEzTNn7AiYlDdOSN1lWt53TbXEq13mUSzYrL1rS/G/u9h5gSl0d39d9y203oDNgthbxbMFUfNUvUXkxeGlc+nMU7ZuaYcCgDxWW1OAeUskkO9sYPOTz4GzVtprJ0J8Hy0isc8stWn3T0SugK1jNjpd0XKqx06aaeNY6ncKCiegTvdkeJDfONbC4YDqqMacfK5Ia6u0rMVvSwFDCAtWffMjd9E3EK3r155DPit5IdnbwkM/jCszdQRQyso10nZZlKiK3oIDCvOAY9NpOUXGxe6TUqMrtCqYOeG3X+44zeP8Uza45GAyAaSpzUy9wKUbF5aUDZ7X4RqAvWM+xg/NprvuG7+pstHoB1cQzVuPA5p6Bcv8MlxpKeLUgHfRFvLFXpf7aZa7WufCiMqFkFnOtk1EVgAc0Vn0cz9L9xLLuE0zyE9onPU2Xh2SuiGVdiGXtjnpdiIWWO7iZjh4wLdnHNvUadq+/fs4mrU/iw+kcyniMD3n8eLTfrThlNGlKCo8ePuLh48ekhCQz+bf/+m+sqvFHX0xV/oLRo4BHgx+QDx8+YlSq375iSf4vAt//tu63/O3//LeB/6+760hTRtHhG0za5sg87uzgC3uH3yNDGc+08o8o9NyhxWbD4fY7b6pGC9kmAwad1x9T7z5xGr+DnGMTPE86T2zlC+OxwT8rYeAkUM6JXuZ34faCWZ/GBIvJ7+4cYnX+te0e04rHYiyY7P/C4w723SSURdsuVvA744FgnSq8/G7Xx/w5wvgxW03d1x/FgNkEV5Mg5IUwshHFoRAZRYfekEm+IYd8YF7Ykx7gqN7fK/7O/c9P8V3xW0zTA/rJLC+f3O24p+k4X3gX8bJmdRYW/STmbZgUvlzvXWoPV0aO9RDFtX/+qJwv1MMsNqWDbiy5JWvILel58QPsVRXsGQLrBYDzVd9SuHU6KqAzTGXehqndf4P9NGtD4//F0Eax0Nl8iPerVN5ZMhEd6aiWImZbipgd5lxP6KNKzWP9zmXaW+t26g/s7W4ZdL+aPZ9O5berJqEwntk7N9L85qHA4hh1uRpXP1iL8qvDLLekA5mYrHMwWef0Oq+n905c+jODb1/Tih1si3RP4xzeqQipe49ECMnQnwfLyKtzDZ9Vz+KtshwU0jGVrOH1nvX13MTum4QpQmbxpMN5lHrHdOYZ+z81mCkzTYt1Fj6jZhd99Wdj6Xu8E2KI66l7v7viH4AcZle8F3a8QzstFw6x5/PeL0iiKTdDC6YOHTib+o+H8b3tHrMNY4GJTClVuHQxxv7ZdoHKHR42dWXd1Y0nt+SFMOMhvtw4fAhzxWZmGtL8mX7LJlLYy1vaPwYP1g/BGIxl3Qfun7uOvSwHU2ifvDA0bmQxrQsxrN2xrAvRU82X1bPYUjoehUzMJfOD7tk9+ofPfZMrx/bzZUv83RlDlXmkjGJU6ihGAaNHR7ZA7Mn//b/t5a//x78GoNHxI//kvs7ySUv4q/9hLO0/3efSzUt89V/P8/hRJ76HCsroFAomFgBQfaOapof/L8q9oKbkb8dPp+Ff/iluvxHg0u5K2LqZxRZ/Oyv6HHKtOeT2OrP7M459/A5ujk34PEn0z0oYKImTc6KX+W04tbjmipIGvpvUXwue4Ky24S4eS1d1fZ673e6VjLKov05+JblimMXr2++FjwcP2G0ufNbMEGN1D09CLlAh8YjiUIiIq6GBZoOFbFWPTpfezVvG572Hy9bA+aoz/NgabtK0cXzH+3g2rGamZbyWtaoDn9tO7acfc7rRhfm1Rf3UoAMfaSHlduBzu2huOMvBP4YJcBSHay+9t4HG/JUsX2LFrGYGA3/77uFq6uv3xofO5qO8veMmL66aT65pfL9v8WJro9hou1jBLxsKWLxkEfkWA6ouLaTsdtwOG1cvnOLr5qC1w9ztmwPBkz11RznS3LtenbWV/M4S8matR7KUaMoN5esPNlCfW8ryhXPINY4NZFSDDjwuOy01X3HkSs+r4tGfB9++sZLo/hwNI63Ozs938mvXOtYstGJU0wLJG7xuB83VZzhyxcbct0+MHMUh8OW5H5hZPrV/a7Zr17m9YpI/wREMv5uy7wEet4OWhm848vkgg932w3N5mhuSz079ANyQnDVNuEtmoQLGvGK4GNkqbsBoWXezC1eyoKwAs6H7fOX1uHHbbVytOcvV5tiLA6CziZNvreXG7I0sKLEwwRDcfPh87bhtdXzxafzH4JUDv8ZdNp+5eSZUVYdO6ZrXO/B53LTUneHDftd9oPMC39sWYbJo1zvqOD5kfTL6dSGRa3e0uF0efIzXvAUe4M/FoaDo0rrVX1EnMW/7bvS7y+Puyv74USc+3yhGp45mVEp0GZdLflYSSGqSY/tf+L8s73U7vrp0NRuPbOQT13EeP/ThezQK4zj/m5Tmf/UPtIZ//8+0edrI0mfxH7Ny6LgZH2vDAJ12Ln1QTq25lBcXzsJsUtErobLOPVx2O99Xn+Lr0Gcc7/HbzxybFPNktM+qJxcrWHuxj+N9Ecu1I4BEyjnRyvxOd1fW7RA35cDBo7S4p6Nq9fWG0aoloyx6afd+xlVuY5rqjwd/4Fdeyj/oPYY6ayv5rOAAy/MyUXztNH+6P2mTgwkji5Qxo4NxeAUhGZj79gkWm+htXTfE1wqCIAiCMLKZ8atj/pAUdNDyyYYksU4e4ZjXsW+731XZZz8d1tIlNcPEtBUbWW4diwL4bMfZEGZTOxhSdv7lgM77ZMYf+PnMnwP+GIe1P3bXYjU6GvnQ/hsAbqz6IaA4BLhhu8Gd1juB68GfMfmZP0wN/P/gHX/Wl/904j/9/+zdf2xTZ77v+3fPjqODkeJc4UgYKWYLI9moCZckpzEqcCCoBEG4CMrmx8C0lBaYArOBTsodqAq9Q6vSOUB3YU6hm9JNy0CnQH+g3gIqVJOwS0ckvSS9DXOaSDX7YF8RJJyrGF3crTh7ev+wk9ixHRLbie3485KqEq+1vNZ6vNbzeH39PM+3933+2385wJb/bQsA//WN/8qNnwYYqDvEGeV/fvXfh7aBiIjIMFOPQxERERHJenklm1nc09vQe01BwxSZvcQZmtPrDvWHY/8o233fxdV3PqOsfCMlBjAYUjoD56CZC80RQUAA6omeg4RggHDOn4LzFbruufjt8t8CRAQWw034Xyb0/vt//79e7O29ePLpkzx98umBg4ciIiJZTFmVRURERCS7jSnn2fU9mYw7afzgdJoPaPToGzoe4P5AU8UVT+nNvuz3eQdYcfiEZ1Xu+a/Z3Rxz3f/h/h+9/9578/+I+549PRgfLX404vXnzz7Pt63f8vcT/p5/3fmv/Lf/cgCAijGP8d/+ywE+qPoje0riv6+IiEi2UI9DEREREck644utGDAy3jmfxVUVWEKd3OLNoSuJuem+xzJbETCRxXu3ETj3GV819yVCGjPOQUn1IpZVTQ0lHLhH4/nUzjs6WOFZlVPlyvdXmDNtDnOmzWHR1cV88f9+DsCNn75lzp/+K9ttv2FJ5RK2/G9beocv96j/rh7+R6x3FRERyR4KHIqIiIhIdrFvZsfOnh6GPbpov3aE3e+1pOmgRifPh+9T7whm6zVYKli1tYJVcde+R/PxfSObKGmYveV6kyWtS3jM8Rgvzn+RL/70edTynrkPIXIexaNXj47osYqIiAwHDVUWERERkewV6MLrus5Hb2xl93uDyL4sQxPK1vu7o1/S7L6HP9AVuTzQhd97m+bLb7F+XS1vf5OeYcrDqfZ8Lf/zzv/kMcdjXFh6iYoxj8Vc78LSS71Bw7f/z7d7eyeKiIhkM2VVFhERERGRjJKqrMpA7/Dl8N6AH9d/HDGs+cHvfur999jfjenb+G/B/1WMeYx3VrwTERg889czAKx8dCU1FTX8/YS/ByIzMCursoiIZDsNVRYRERERkYzy87//zCP/+ZEhbRMzqzKkZN7DGz99y2MfVMSc09Db6eXf7v4bF25c4MxfzyjDsoiIjCoKHIqIiIiISEZ5xPczDCJw2OxuhuhOhjHV/bWuN5ty/2zLH9d/HHujfj0G3/q3N3nr396MvW6cbQbr504NBBMRkcyjocoiIiIiIpJRHqk2gPPv0n0YI+qR23/jbye7Hr6iiIjICFJyFBERERERySxt/5HuIxhxf/t//pbuQxAREYmiwKGIiIiIiGSUn2//jZ87ciiQ1v0zNOZesFRERDKfAociIiIiIpJxHrnQne5DGDn/+h/w/2kGKRERyTwKHIqIiIiISMb5+fbf4F9zIHh44z/4+ZscOE8REclKSo4iIiIiIiIZ65H/9e9gYR7kPTzLcjb5+d9/5pHL3fz8f2uIsoiIZC4FDkVEREREJLP950d4xPl3PDLxP/HzxCwfNOX6Gz+3/Qf89W/w73oUExGRzKbAoYiIiIiIiIiIiETJ8p/rREREREREREREZDgocCgiIiIiIiIiIiJRFDgUERERERERERGRKAocioiIiIiIiIiISBQFDkVERERERERERCSKAociIiIiIiIiIiISRYFDERERERERERERiaLAoYiIiIiIiIiIiERR4FBERERERERERESiKHAoIiIiIiIiIiIiURQ4FBERERERERERkSgKHIqIiIiIiIiIiEgUBQ5FREREREREREQkigKHIiIiIiIiIiIiEkWBQxEREREREREREYmiwKGIiIiIiIiIiIhEUeBQREREREREREREoihwKCIiIiIiIiIiIlEUOBQREREREREREZEoChyKiIiIiIiIiIhIFAUORUREREREREREJIoChyIiIiIiIiIiIhJFgUMRERERERERERGJosChiIiIiIiIiIiIRFHgUERERERERERERKIocCgiIiIiIiIiIiJRFDgUERERERERERGRKAocioiIiIiIiIiISBQFDkVERERERERERCRKXroPIN3yJtXwwqZFFOPm0tEDXLoVSPchZSyV1cia9osXWeZ0YDblY+h5MfAAn7uO2tfOxtxmSJ+RfTMHd07HFGuZ6wzrX7uQ5BmIiMSnNmVkqU0RERERkUTkeOCwnF/VrsRuBJjCsk1ruLTj/XQfVIbKobIqKOWJJXN5vLSUn+rWs//iCO9/3Ey27N5IWaynL8NYTGYzdqAtamEOfEYDPZj24zr3NPvCPjv784fZ4Swc1G58Da9T+05rxGsLXj7JMhvgu87+7UdilH+Kj3nhHo4vnxz64x7f7KnlhCfWVjXsOrESW//tIzjZ8vYWyoyhP/03+Octh/g21uE+d5gdM0Pl5LR28iAAACAASURBVP0z62NeQ5HvF7HfJD6jdEn22shaaa3rcqC+yhRqU0REREQkCTkeODRhNIT9aTDE+fIsOVVWllksqKrABLjSsPvZ65/pfcDzt9+g/vyXfNvuB8xMck6m2NgZp9yH+Bm1HaF23ZGwFxxsfOslKgcT8ZERVkTl6ipO/L4usc3Lpoce/kOMDior4dvGGOuGX0PmUn5ZDKf6ByznzKUk7P3MFgcwSoJpuSStdV0OtSlppjZFRERERJKR44HDOv7lwwpeWjsVE53cPP+ZHlriUlmNiIIVzHbkAxBwn2HrK+FDu9x4PE0DbJxbn5Gv6RhvnXfHXe7pF+xyfbiP310IewqeuYFXqicC4L78Mieu9S0K+NpTeai9+u+nv/7HHM7gmMuTBXV8en/o+50204ERwP8Av3EsRsZidzqhseEhWxZRUm2F9yLLebbThoEuAoF8DAYig41hkjnfkZQJ10buya36Km3UpoiIiIhIknI8cAgd9QeorU/3UWQHldUIcFgwh/7pvjb0+aBy6jMKePF44gcO++u+344nPOjm65urK+Bzj0gQK7H93MPrLcJsnkjlciufvjf4cw5yUGkbG9y/+wu+Ma1kngWMjulMo4Hv+q3d0yj4vPcwmoswO+YD74atUEWlLR/4EXf7ZGzW+HseqXJNViZcG7kop+qrdFGbIiIiIiJJUlZlkUxiNgV7htFJx1DjQzJK+WhuuA2A2bmG2UP9ucc+F7sJoItbDRf4S+u94OtGG5X26NWt5tBcfy4XbgCzg3XFfcvzqmdhNwCuG3zXG1+L0+VQRNJLbYqIiIiIJCn3ehwq69/gJVFWPYkkehIJjJ+xgXVLnFjNoWyOgU7aW79k95vR7xG1bdkaVi13YrcUhrZ9QHtrHaeOnqXtp9jbxj++sDmXetYZ4Dxty09yfPnQz3/EpPt6HmNl9upnWOC0YjYEh8MR6MLrbuKrc+/zVZt/ePefI+6f/zNt1euwG6Ywe4mJqx/7Br2tvcoRvD4CLhqvgcfSireqCDOF2Ksc0BZvbsIb3Gqfjs1ShD1suPJiZzBhi6vpMpSvBMBktgItiZ9gFlNdNwQJ1lfBc+2k8Y2t/NG4gR3rZ2E1QsD3PR+9eoCrHTD7N4dZVVqIgS68Te+z8w+RY+THFDtZUDOLEpsNi2lscIg9QKALn7eVxnOnOdMcfxh6QckKnlrupMRS1LdtLLGSJ2VTPZmFbUoy9yAkdm2k4ppM9HxFRERERlruBQ5lhJmZ/dujPOUYG/myoRBL6UqO7y+Kk7V1oG3HYildxI59Zv7pxSP8tXtYDnxEFIy3Ygp/CA37w2C2UhzjmSHga+fu/UD0ghGWN2kNL9XOx2rst8CQj9k2nVU7y5ldd4jdJ3MzoJRS3XVcaVmBvXwsVucK+Pjdh28DgIPZjlAPQvf3XO0GPF9zyzcLswlMjrnYaY05b5nf18qlptvMq5mIuXQRdo7QVrCCEivAj3x3OQDlKTm7UUJ13bAzr+Gl9bOwhP40mKayan0VXt9SnirtyYqdj7n8GXbMaWB/fU89WcP2vcHM41EM+ZgsU5m3dSqVDfupfSe6vnr0uYO8MLMooUMe6Xoyt9uURO7B5K6NxK9JtaEiIiKSPXIvcNh2hP17vggbWGdlce3G3oyDEiYFZWVybuQpAB7gbviMzy+08pNlFk+unY/NCJhnsmPO6Ygv07G29bZc45MLX3PX6GDx8hWUWfLBNJ1fbbrO1j8MNLn7IPQ/T+tStq8PZhqNm9zB701unwA4WLUzXsbJQsrWv0ZZjCU9vSpiHvtIXc8F1ezYOR+rAQjcofHDdzlWH8zLOq5sBc+uXYTdlI+lahs73JsiPt/xxdYhDGz14/Gkoqwzg8Fkpbg43tKBz/W78014y2dhNjvZMef9mPdMlOJZTApdC66my6EXW7na2kmlsxBMNh4vhrbeOfwcjA9NiOb3+bh/rQV3zUSsJgez7dBeXo4VCLR+zaVueNTbCbZC4knmfLON6roE9j+k+qqQsrVVGOik+YMjNJZu5lflhRjMi3jKUQi+G/zx6PeUbV1HiTGf4tJyqA9P/tOFv72dttYWbrZc55YXwMykqvksrpqCCTA5N7OlYRNvN/dtlTdnF78OBQ0D7df56Phprt4K9vid9g97eLZmcnAosO9r9m9/NzIIn0Q9mZjcbFN6JH4PJnZtJHVNjvi1ISIiIpK43AscAncjEioY0dex+FJSVoE71B/ezamboa09p9nnglcPzMdCrAe8yG2/ObqXE8093STcvN3s7h2CZyydz+y8pmBPqiREnKcxuxIjpON6fmztUmwGgDtc2bWTMx19yzqaz7K/5TZbDm2hzJiPvWYN1Id6edg3syPeMLiYfuSTdXu5FGuRwUxxcbzMHJkZlLJWv8Yr1fGWDnCuAJ53aXTPYqE1H3vVUqg/+9D9FVc7QokR7nDrWt+V0dbkwu+swEgR9iornOy7hiKCuvfP8q1rEVZbIfYqJwusEwjOlRiMMPXedqbYvbGSOt9spLpuaPsfYn1lMOTjazjE2/Wt0N7KqvLpmMxFmLnDlVcPcbUDjO3rKLGB0WQO2/IC+9bFGqbqxnOyiW9at/HmpgqMjGWS0wHNfcP3582cEhru+gMf7TkSUf7ffbyX3xne4PfVE8BUzhOV0NbYtzzhejLNsqpN6W/I92Di1wYkfk1m67UhIiIiuSmrA4fxgwYAATye+PMVZaNkzjd9ZdVJY/iX+B4dN/D45mMx9X/Ai972RP9taeWjhjtUVk8Ag5WScrjaGPMNRtzQyrmVY9uf5lj4Kgv3cHz5ZCA4d9KxWGNI0y2vijmlwaFg/qbPIh54enU38HnDCsqqisDsYGUBnLkfY70kmMo38krcobKjMCgFfH7hBnM2VWC0OllXfJYTDwn0POEIBfTaWyLLv/E6bWsrKDOCuXQuEP+h9Mq1H1hsm4Kp9BlmGAnOldi/94vBiB1iDnnOHblV16VF4Ac+Px49bNPfdDZ2PTRI3WH3g8lsA3qCQw6Ke1MSfx8zaNvR5MZXPQETYykI/3jTUk/mepuSzD0YW/xrIySRazJD2lARERGRwcrewOHCPbyyfPIAK2Twl+REJHO+6Swr15cci3oYTn7b+y1xHtbSKVeuSccUxoe6pbW3xuk9BXi8PqAIMGF2AI1A2xFq1x0ZgYPMTK5zT7PvYuLbdzceonn5SWaYi6hcXcWJ39fFX7n4Geyhe8Pb+nW/hQ3cdG+gzJEP5lJ+WQynPBArO3L3tevcWj0Fu3EsRsDf8meuDvJ4kz3frJJLdV2a+Jq+iBG86+Tm5SSHcOMjELP4W/H4CA79tU5ldt6FqP2PK7eGelA/4H54J+dk6slck6qySuYejCvetRFamsg1qWtDREREskz2Bg4lt4V9kQ9mdHXHXVVSzGruHWpsW32S46sftsHwBDwi5uXKIZ803GZGzUQMjrk8WVDHp3F6oRRXlYaGKd/jZl30/XG1wcUqxxQMFGGfaYI/+QAr4/qPI++uo9G1BrsjH3hA27XYD7pqTIaJ6rowyQWFpv1iG4vLHZGZcx/iSt0PLF47BYNhCqv2bob+cxxWTwiu6Gvhq/DATobUk1khA8oqkWsjKIFrMgPOV0RERGQosvdZ7+Je1udKTxZI7nxHeVn5vRkyJH2Ul3PiuuiOkclTEnP//Bc0V22hzDiRyuVWPn0v9nqzS0PDlAN+DM4VPOnsv0YAH2AGLKWL4E+n4+6zN8job+WbsOQAfn/oodlkxgr8NbFTkkHKmLou24yrYdfelcEEGUPUXf8FzUumUGkCg2U6T+2eHkrAESZwmyuH301yqL7qycFLYVklcW2MHF0bIiIikl7ZGziU3GYy9A6qDAw0jkhSzx8gABjoou2D9eyvH8K29s0cTFVylFzV3cDnTSsom1mEuXwp0977MXqdgjW9w5QxTGRGzcSB39NS2m8OrU46XGHL6/exKcbn3DeUToaN6rqkPbm1JzDURXvDaU6da6CtIzwS4+hNQtOf/bkNwdd9P9LsNVFiLertkRbw38Pd8iWffnCZtp/6bZhMPZlr0lhWyVwbCdO1ISIiIllGgcMk5BWUMqN6CrR+ydWbvnQfTk6Z5nQQ7CBwm7ZYIyfNE2Ima8grmYt9CA8AwUd2PaxHaHLjXTsFC/mMdzigPveGC6eb51wD7pmLsBpLmTcnOnBYUFOKZUjvOAF7tQlaJqARcZlFdV2S8mooCeWs8re8z+53rg1h4yoWOwsBcF3ex9sXh1A+qicHL11lldS1kYQUn+/4edvYUuPA6Hfx1fFDXLo1Cu9jERERSSsFDhOVV8ULB9ZhNwA1i1jcsJ/ad6Iz68kwGFfD4lBGwkDrnyPmePMHuoB8MNmYNg7awrIVjinbzCtbB9HbzXUbH8H1LM5quHghxSeQ5e6fptk9H4sVTM7NbLxWO/gJ6duOsH/PFzFScMTj5yGJg3PT/bNcaqriV+VjsVdNp/8A1gWloXnX/Df45y2H+Dbe+xSs4dVD87EAVsdMaBnS5F5hTIwrBn1YKaa6Lnm2CX3lEKfH5uPPP0NZrMKyT+5NYjFkydSTuSZdZZXMtZGMVJ5v2TZeWl0R/HHBNJVlO1/Ev3lfzAzgIiIiIonKucBhXoEFiyn8ScDcF8QwFFJcbO1bFPDhuRunJ6FtSsQDhcm5lAXHW7g0ir6spaysEmWeypOVLv7S6uLu/eCX6mnztrFseQUWAxD4kc+PR2aVbXa185RjIjCBebtfpOODs7R5zdiXrGBx+QQGNY1R9wVuulditYLBupLDr0+m/vyXfNseNnzJ78XTkf5Jh5L5jJLZ9vNz15lROx0ThVTWHmZSawvNDdf5iyuYVnScbTolpaXYHRaMLQcikpjc9aQnuUPU+Yb922CyUlzctyjga++95qIZGFdspTjOUvDj8XhjLum/n/48Qyibb883sax8FmbrxMjehQVrKAm94G+9Hj9oCHD/NDfb52OxALYKIPZxP5wBY4ybK5XnO5xSd20kKEfqurS0KW0/cjcwC5MBjOXPsOtpI5fqXHSYbTzunEVl+WRM8YKDbbfxMgsTYFt+kB3ma7j8AJ14Wlq56wcI4PHEnnsymXoyXbKxTUlYMtdGklJ1vnanLfJeN1iw2+BqchNuioiIiETIucChbfUudoSGHkWxzueVvfP7/vZdZ//2I7EnPHfd4JZ/OmW939jMFNuIHi+WxVJWVokyTWHhpiksjLXMf4f6o/u41BH58v2PT/PNzJeYYQJMU1m1dWrEcl/LCT7xL+XZeOcV8vm5r6msnYUZMFoqWLipIvI4XGdY/1r6e+ck8xkls233zSO8fs7MK8snY2QsZsd05jmmMy/GW/kypJPNQOdrrX6NV6r7/h4wY7Opgmf3Vgywp/jzMvbfT3+uc0+zb7AJdjzv0uiexUJr5MsF1Y5QILELT0vsDMjh/tJ6j3mWImAymHxD6A36cCk932GUsmsjUTlS16WnTanjo8tzealmIgbGYqtax6+r+q3i+wFXYAq2qHH6l/n08ly2V0/AQCH2qkXYexbVRK4Z8P7AleOH+LStL8g62urJ0demJHNtJCdV5+tqbSfgLAyrt30oh5KIiIik2n9K9wFkre4G/vnodTSz4XDq6jfjVhcB722aL7/F+i07ORVzaE8rJ3a9zsWWO/gD4dv9wJXDv6X2zTo6YmzVX/fNd3l51zG+ab2TMQ90mabj4l5+s+strjTdxuvvilgW8HfS3nqdjw7+I7Xvpb8XzWj16fkb9O8L9kRpKBFKwEXjICbd99S19PUzNJt6e68M6rJ3eVUHpoTquuHk+Xg3vzv+NS5veDl34ff+SOOHr7N++z6+i3Mhe9t9fdsEHuD3P8Dv7/95gcE8hYU732CdPfJ11ZODl46ySubaSFYqzre7fh8ftXQGjz3Qyc0PDkVMaSAiIiKSCo+M+Tt+TvdBZK9SNr61I5Rt70c+2bB3VA1VTpcFL59kmY2M6dUnIjIcVNdlOPsGDu4MDlUOuM6wKcZnlFdgY8bqzaxyFgXTy7SeYNPv66LWExERERHJVupxmIzi6UwKTZodcN1Q0FBERGSUmL3EGUqecYf6w7EDu933XVx95zPaQt3VDIZBzS4pIiIiIpI1cm6Ow1Tpmbg+OO3NHeqPqreIiIjIaGE05If+FeD+QPlhivuSpfl9iSYYEhERERHJTAocDlHv0LIe/jvUH93NmcFMJiUiIiJZ4ab7HstsRcBEFu/dRuDcZ3zV3JcJfMw4ByXVi1hWNTX0I+I9Gs8/PCGRiIiIiEg2UeAwIV0EfF7aGs7y1p+a0n0wIiIikmKeD9+n3rGNOZZ8DJYKVm2tYFXcte/RfHwfpzwjeIAiIiIiIiNAgcMhuvTa01xK90GIiIjI8Opu4dRL67lauYbFNeXYLaaw4ctAoAu/r522ps94Wz8iioiIiMgopazKIiIiIiIiIiIiEkVZlUVERERERERERCSKAociIiIiIiIiIiISRYFDERERERERERERiaLAoYiIiIiIiIiIiERR4FBERERERERERESiKHAoIiIiIiIiIiIiUfLSfQAiknrTfvEiy5wOzKZ8DD0vBh7gc9dR+9rZmNvkTarhhU2LKMbNpaMHuHQrEH8H9s0c3DkdU6xlrjOsf+1CkmcgIhLfkOorSZraFBEREZHcpcChZK6CUp5YMpfHS0v5qW49+y+m+4AGId3HPG4mW3ZvpCzW05dhLCazGTvQFrWwnF/VrsRuBJjCsk1ruLTj/WE+2BE20INpP65zT7Mv7LOzP3+YHc7CQe3G1/A6te+0Rry24OWTLLMBvuvs334kRvmn+JgX7uH48smhP+7xzZ5aTnhibVXDrhMrsfXfPoKTLW9vocwY+tN/g3/ecohvYx3uc4fZMTNUTt4/sz7mNRT5fhH7TeIzSokxDp5Yu4Inyq2YDfnB1wJdeN1NfHXufb5q86d4hyHprjcSkdZjzoH6KlOoTRERERHJeQocSuayzGJBVQUmwJXuYxmsNB/z7PXP9D7g+dtvUH/+S75t9wNmJjknU2zsjBO0MmE0hP1pMMR5GAxpO0LtuiNhLzjY+NZLVA4m4iMjrIjK1VWc+H1dYpuXTQ89/IcYHVRWwreNMdYNv4bMpfyyGE71D1jOmUtJ2PuZLQ6glXQbN2MbO9ZXYO6/wJCP2TadVTun80TDW+x8pyn1O1ddN0RDrK8kYWpTRERERESBQ5HRomAFsx3BXlIB9xm2vhI+tMuNxzNQwKOOf/mwgpfWTsVEJzfPfzaqH8J9Tcd467w77nJPv2CX68N9/O5C2FPwzA28Uj0RAPfllzlxrW9RwNeeykPt1X8//fU/5nAGx1yeLKjj0/tD3++0mQ6MAP4H+I1jMTIWu9MJjQ0P2bKIkmorvBdZzrOdNgx0EQjkYzAQGWwMk8z5DlVeyWZeWl8R6unYiavhCy5daKUDM5Oq5rO4agomwOzczhv+l9l5Mv61IyMht+qrtFGbIiIiIiIocCgyejgsvb2l3NeGPh9UR/0BautTe0gZK+DF4xl88Kf7fjue8KCbr2+uroDPndIgVjyJ7eceXm8RZvNEKpdb+fS9oQa8HFTaxgb37/6Cb0wrmWcBo2M602jgu35r9zQoPu89jOYizI75wLthK1RRacsHfsTdPhmbNf6eR6pcwcGz66f3Bg0bD9Zy7GbP5+vGc7KJby7XsGPvSmwGMFdt4MnzuxMKwkrq5FR9lS5qU0REREQEZVUWGT3MpmDPMDrpUIcoAcBHc8NtAMzONcwe6k9F9rnYTQBd3Gq4wF9a7wVfN9qotEevbjWH5jd0uXADmB2sK+5bnlc9C7sBcN3gu97Ya5wuhyMkb87S3qGY3roDYUHDPt13L3Cs7k7or4lULhkg4ikyWqhNERERERFyuMdh3vhylq1eQaXDjCl8Evz2FprPn+VM8/AMN8xGiZRVbzKIuNkQw+Yv6llngMQItuUnOb48xoJ+79+z354EFePL1rBquRO7pTAYngg8oL21jlNHz9L2U2Ycc9qkO4vlGCuzVz/DAucIJ6LIMffP/5m26nXYDVOYvcTE1Y99g97WXuUIXh8BF43XwGNpxVtVhJlC7FUOaIs3N+ENbrVPx2Ypwh42XHmxM5iwxdV0GcpXAmAyW4GWxE8wSfNmTgmFLn/k6ofxoyMd576krWoddgOYHbOA04DquqEcc1ISrK+C59pJ4xtb+aNxAzvWz8JqhIDvez569QBXO2D2bw6zqrQQA114m95n5x8ix8iPKXayoGYWJTYbFtPY4BB7gEAXPm8rjedOD/idoaBkBU8td1JiKerbNpZYyZOyqZ7MwjYl6j6asYF1S5xYzaHs0YFO2lu/ZPebsY89kWsjFddkoucrIiIikoicDBxO+sWrbK+eiLH/AkM+ZmsF87ZWMKP1BFsTTSYwimRvWZmZ/dujPOUYG/myYSyW0kXs2Gfmn148wl+703N0qVAw3oop/CE07A+D2UpxjGeGgK+du/eje1SNtLxJa3ipdj7W/hdWbyKKcmbXHWL3yfQFlEaN7jqutKzAXj4Wq3MFfPzuw7cBwMFsR6gHoft7rnYDnq+55ZuF2QQmx1zstMact8zva+VS023m1UzEXLoIO0doK1hBiRXgR767HIDylJxdkpxMsoT+2e7i0kD1QXcdbu867BbAbGU2cHX4D3AQRn9dlxLmNby0fhY9H7fBNJVV66vw+pbyVGlPxvR8zOXPsGNOA/vre+rJGrbvDWYej2LIx2SZyrytU6ls2E/tO9H11aPPHeSFmUUJHfJI15O53abEu48KsZSu5Pj+ohhZ4pO7NhK/JtWGioiIyMjKucDhuIV72FE9MfhLsv8eNxu+oL7OFZoEfy4LnFMxG8HoWMfB59qpfS/92T7TZcTLqu0I+/d80Tdw0bqU7aGEBXETJfi9Md/K5NzIUwA8wNtyjU8ufM1do4PFy1dQZskH03R+tek6W/+QZIbUFB7z0DhYtTNexslCyta/RlmMJT29KmIeO1YW127sHbY5bAqq2bFzPlYDELhD44fvcqw+mJd1XNkKnl27CLspH0vVNna4N0U8LI0vtg5hYKsfjycVZZ0ZDCYrxcXxlg58rt+db8JbPguz2cmOOe9HlGlcxbOYFLoWXE2XQy+2crW1k0pnIZhsPF4Mbb3zEDoYH5oQze/zcf9aC+6aiVhNDmbbob28HCsQaP2aS93wqLcTbIXEk8z5DlrBZMaHHrx97u8fuvqt9gdgGQsGE+MLgETnOVRdl/z+h1RfFVK2tgoDnTR/cITG0s38qrwQg3kRTzkKwXeDPx79nrKt6ygx5lNcWg714cl/uvC3t9PW2sLNluvc8gL9EueYnJvZ0rCJt5v7tsqbs4tfh4KGgfbrfHT8NFdvBXv8TvuHPTxbMzn4o5zva/ZvfzcyCJ9EPZmY3GxTeoTfR+6Gz/j8Qis/WWbx5Nr52IyAeSY75pyOsW1i10ZS1+SIXxsiIiKS63IrcJhXxbNLJocCYT/wxz37uNrRszA4Cf7VC1Xs2LsOuxFMM9fw5LkcnQQ/TWV1NzxhhTHJBBSBO3xzdC8nmnu6Sbh5u9ndOwTPWDqf2XlNwZ5UmXLMIyzi2DEyEo8Xj61dis0AcIcru3ZypqNvWUfzWfa33GbLoS2UGfOx16yB+lAvD/tmdsQbBhfTj3yybi+XYi0ymCkujjdPXWYGHK3Vr/FKdbylA5wrgOddGt2zWGjNx161FOrPPnR/xdWOUGKEO9y61ndltDW58DsrMFKEvcoKYRmGI4K698/yrWsRVlsh9ionC6wTCM6VGIww9d52pti9sZI638GymMJ6Uz/86r8f6FnHiMlC4oFDVNclvf8h1lcGQz6+hkO8Xd8K7a2sKp+OyVyEmTtcefUQVzvA2L6OEhsYTeawLS+wb12sYaqhxDmt23hzUwVGxjLJ6YDmvh/QeofBB37goz1HIsr/u4/38jvDG/y+egKYynmiEtoa+5YnXE+mWVa1Kf0F7lB/eDeneuY59ZxmnwtePTAfC7ECyolfG5D4NZmt14aIiIhkr6wOHMZ/8AcI4PFEzivTOzE/XbSdOxAWCAvTUcc/nZvOH9ZOwcBESmYa+PRiZvxaO9TzTWbbbC8r6KTx8G5ORCU6aOWjhjtUVk8Ag5WScrjaGPMNRtzQPqNWjm1/mmPhqyzcw/Hlk4Hg3EnHYo0hTbe8KuaUBoeC+Zs+i3jg6dXdwOcNKyirKgKzg5UFcCbFwXtT+UZeiTtUNkVBqQzz+YUbzNlUgdHqZF3xWU48JNDzhCMU0GtviSz/xuu0ra2gzAjm0rlA/IfSK9d+YLFtCqbSZ5hhJDhXYv/eLwYjdog55FkGI/vqurQI/MDnx6OHbfqbzsauhwapO+x+MJltQE9wyEFxb0ri72MGbTua3PiqJ2BiLAXhscq01JO53qYE76NT/e+jjht4fPOxmPoHlB8u/rURksg1mSFtqIiIiOSW7A0cLtzDK8snD7BC9BfdMlvPTDJumgcYutF97Xva107BCpisDtI5cX+vBM43mW2zuqwAXF/GzI4KcL8lzsNaOiXz+WYTxxTGh7qltbc2xF3N4/UBRYAJswNoBNqOULvuyAgcZGZynXuafRcT37678RDNy08yw1xE5eoqTgw0L2nxM9hD94a39et+Cxu46d5AmSMfzKX8shhOeSBWduTua9e5tXoKduNYjIC/5c+Dnhcw2fPNGdlW16WJr+mLGMG7Tm5eTnIINz4CMYu/FY+P4NBf61Rm512I2v+4cmuoB/UD7od3ck6mnsw1qSqrAe6jxMW7NkJLE7kmdW2IiIhIGmRv4DABZlNo0muflwE723S7uesDqyn9GT/TZVSXVdgX+eAxx8+kKilmNfcONbatPsnx1Q/bYHgCHhHzcuWQTxpuM6NmIgbHXJ4sqIs7tUBxVWlomPI9btZF3x9XG1ysTHJzAwAAIABJREFUckzBQBH2mSb4kw+wMq7/OPLuOhpda7A78oEHtF2L/aCbtobI7w+rDh4+e2ZBb8pUHx7XMB1TKqmuC5NcUGjaL7axuNwRmTn3Ia7U/cDitVMwGKawau9m6D/HYfWE4Iq+Fr4KD+xkSD2ZFTKgrBK5NoISuCYz4HxFREQk92Rv4PDiXtbnUm+UZM4318pqCPze+MO7R5Q+ozi66I6RyVMSc//8FzRXbaHMOJHK5VY+fS/2erNLQ8OUA34MzhU86ey/RgAfYAYspYvgT6fj7rM3yOhv5Zuw5AB+f+ih2WTGCvw1sVNKjudO73mYLA//4WOSJfSDit+LN8uyFGdMXZdtxtWwa+/KYIKMIequ/4LmJVOoNIHBMp2ndk8PJeAIE7jNlcPvJjlUX/Xk4KWwrJK4NkaOrg0RERFJXvYGDhPQ+9uuyUwxA8yplWdlfOgnXZ83G7qVpN6oLiuTobdvUWCgcUSSev4AAcBAF20frGd//RC2tW/mYKqSo+Sq7gY+b1pB2cwizOVLmfbej9HrFKzpHaaMYSIzaiYO/J6W0n5zaHXSEV4V1O9jU4zPuW8oXTpdxuP9JTYzYIk9nLRXwQrsoRkcAu7v+XakDjEZquuS9uTWnsBQF+0Npzl1roG2jvBIjKM3CU1/9uc2BF/3/Uiz10SJtai3R1rAfw93y5d8+sFl2n7qt2Ey9WSuSWNZJXNtJEzXhoiIiKTBf0r3AYykNve90L+slM2JP56kYMl0gmkqurjbGn84Y15BKbP/YQWzS1L5rTAzpKyszBOwx9gur2Qu9iEUm2EQwwgHa5rTEcqkepu2WCMnM/CYR40mN8GpvPIZ73Ck+WByk+dcQ3DAqrGUeXOilxfUlGKJfnkAE7BXm8A+gWwcEXe1NVTXGaYwe0n8G7x4ubO3ruvJDB0hA+sN1XVJyquhJJSzyt/yPrvfqesXGBpIFYudhQC4Lu/j7ddq2bTxadavC/63aUst+96JETQE1ZNDka6ySuraSEKKz3f8vG28+tZRDr7+IgsmjdL7WERERJKWUz0OPXVNtFfNx0I+9iUbmNZwhO/6f2kfV8OW6lAPG38LV+L9mptXxQsH1gUzD9csYnHDfmrfyYL5/QYp2bLyB7qAfDDZmDYO2sIy/40p28wrWwfRc8x1Gx/B9SzOarh4IenzYlwNi0MZCQOtf46Y4y1jj3k0uX+aZvd8LFYwOTez8Vrt4CekbzvC/j1fDCFE4R94fs5cdf8sl5qq+FX5WOxV0+k/gHVBaWjeNf8N/nnLofg96wrW8Oqh+VgAq2MmtCT60GliXDGk68PynG+ifWboPKq3saBuL5f6ZSrNK9nM9pmh3pHea+wPSxiVsfWG6rrk2Sb0lUOcHpuPP/8MZbEKyz65N4nFkCVTT+aadJVVMtdGMlJ5vmXbeGl1RfDHBdNUlu18Ef/mffF7XYuIiEjOyqnAIZ7TfNTg5AVnIZim8+sDNm42fEF9nYsOzEyqms/iqimhL4NdtJ07wnfx3ss2JeKhwORcyoLjLVwaLV+4kiyrZlc7TzkmAhOYt/tFOj44S5vXjH3JChaXT2BQUwJ1X+CmeyVWKxisKzn8+mTqz3/Jt+1hv+r7vXhi/cpvnsqTlS7+0uri7v3gl+pp87axbHkFFgMQ+JHPj0dmlU37MY+wvAILFlP4k625LyhnKKS42Nq3KODDc9eXkm0/P3edGbXTMVFIZe1hJrW20Nxwnb+4gv0oxtmmU1Jait1hwdhyICKJyV1PepI7RJ1v2L8NJivFxX2LAr723msumoFxxVaK4ywFPx6PN+aS/vvpzzOEsvn2fBPLymdhtk6M7F1YsIaS0Av+1usDD8e9f5qb7fOxWABbBRD7uB/OgDHGzZXK8x1Qx2lOXXOyY2YhGCaz7MBhSuo+40qdiw6jhceqlzKn9/7vpPGDyPkc015v5Ehdl0ydk7C2H7kbmIXJAMbyZ9j1tJFLdS46zDYed86isnwypnjBwbbbeJmFCbAtP8gO8zVcfoBOPC2t3PUDBPB4Ys89mUw9mS7Z2KYkLJlrI0mpOl+70xZ5rxss2G1wNbkJN0VERGQUyq3AIfDXd7byifkoy2xjwVhESdU6Sqr6r/UA17m9Eb1KorhucMs/nbLeb11mim0MMBlg9kmmrO5/fJpvZr7EDBNgmsqqrVMjlvtaTvCJfynPhoZyxfP5ua+prJ2FGTBaKli4qYKF4Su4zrD+tRg9XUxTWLhpSuS6Pfx3qD+6L6pXUdqPeYTZVu9iR7xzsc7nlb3z+/72XWf/9iO9l3cy23bfPMLr58y8snwyRsZidkxnnmM682K8lS9DOtkMdL7W6td4pbrv7wEzNpsqeHZvxQB7ij8vY//99Oc69zT7Bptgx/Muje5ZLLRGvlxQ7QgFErvwtMTOgBzuL633mGcpAiaDyZfSAaspPd+HaHtvK/9iPMiz5UVAIfaqddij6rp7NB7eHdW7J+31Ro7UdcnUOYmr46PLc3mpZiIGxmKrWsev+18Xvh9wBaYE58mMcJlPL89le/UEDBRir1rUNyy8JnLNgPcHrhw/xKdtfUHW0VZPjr42JZlrIzmpOl9XazsBZ2FYve1DOZREREQklpya47DHpdc28fLhL7nZ3hkxwiQQuIe76Uv++66t7Lv4kG9P3Q3889HrpKBPQ0ZLvKxaObHrdS623MHfu11X8AHp8G+pfbOOjhhb9dd9811e3nWMb1rvDPELfxeB/n97b9N8+S3Wb9nJqZhDe9J9zLmj4+JefrPrLa403cbr74pYFvB30t56nY8O/iO176W/F81o9en5G/TvC/ZEaWjqgYCLxkFMuu+pa+nrZ2g29fZeGdRl7/JmVP35lz/U8puDX9DsvhdZ1/nu0NZwiv2baznWHKv3XLrrDdV1w8nz8W5+d/xrXN7wcu7C7/2Rxg9fZ/32fXwX50L2tvv6tgk8wO9/gN/f//MCg3kKC3e+wbp+E06qnhy8dJRVMtdGslJxvt31+/iopTN47IFObn5wKGJKAxEREZEej4z5O35O90Fkr1I2vrUjlDHvRz7ZsHf0DFXOUgtePskyGxnTq09EZDiorstw9g0c3BkcqhxwnWFTjM8or8DGjNWbWeUswgAEWk+w6fd1UeuJiIiIiKRTTvY4TJni6UwKTXwdcN1Q0FBERESYvcQZmgP4DvWHYwd2u++7uPrOZ7SFuqsZDIOaXVJEREREZETl3ByHqdIz+Xxw6po71B9Vjw8REREBoyE/9K8A9wfKD1Pcl2jN70s0wZCIiIiIyPBR4HCIeoeH9fDfof7obs4MZkIoERERGfVuuu+xzFYETGTx3m0Ezn3GV819mcDHjHNQUr2IZVVTQz9A3qPx/MMTEomIiIiIjDQFDhPSRcDnpa3hLG/9qSndByMiIiIZxPPh+9Q7tjHHko/BUsGqrRWsirv2PZqP7+OUZwQPUERERERkkBQ4HKJLrz3NpXQfhIiIiGSu7hZOvbSeq5VrWFxTjt1iChu+DAS68PvaaWv6jLf1A6SIiIiIZDBlVRYREREREREREZEoyqosIiIiIiIiIiIiURQ4FBERERERERERkSgKHIqIiIiIiIiIiEgUBQ5FREREREREREQkigKHIiIiIiIiIiIiEkWBQxERERERkVFswcuH2bXQnO7DEMkK4xbu4eDLNek+DJGM8ciYv+PndB+EyHDJm1TDC5sWUYybS0cPcOlWYHh2ZN/MwZ3TMcVa5jrD+tcuDM9+RURk1MuKtkzt4IhY8PJJltlQmcqQLHj5OMts+cBtLu7azad3031EuSnX798Ra8uSVbKBg7WzMAEB1xk25eBnJdJfXroPQGT4lPOr2pXYjQBTWLZpDZd2vJ/ugxKRTDNQwKMf17mn2Xdx2I8o8xWU8sSSuTxeWspPdevZrzIZRmrLZJRIZ70xxspjS1aw2OnAbMrHEHo5EOjE62ql+fJnfNrcHnrVwca3XqIyTqMQ8N+j3eXiLxfe56s2f8Qy+/OH2eEsBH7kk3V7uRTveMLaHV/D69S+05r0Kcbz6POHQ0HDB7jOHXp40HCMgyfWLmW2wxZRVgQe4G1v5Wbdl5yq7zne0VVWQ6J2cIiyqC27+S6vn7Pw2vLJGGwrOfi8m9p3WtJ9VCJppcChjGImjIawPw0G7EDbcOyq7Qi1646EvTDwFykRkaxmmcWCqgpMgCvdxzLqZUlbpnZQHiZN9cb4eS+yY/XUmD8OGQyFWBzTsTgcmN/YyrFB3FgGYxHW0iKspdN5oukYO/9wLeXHnCrjFu7h185CALx1+9h30Tvg+tOee4NnZ07AGGuhYSxmawVz1lZQbBzcj2jZVFZDpnZwiEawLUuBjot7+e/Ww7zgLMTk3MYu986H3j8io5kChzKK1fEvH1bw0tqpmOjk5vnPMrZxEpHM4L78MicGeK7xeEbuWESC1JaJJGrcwj28snxyX685/x3aWlpweQOAAbPVQbHNgiVmpAzw3eBfDn5GT9VvtDh4bOZcKkuDwTVz+UYOPuel9r0M6QUXblwNG5cEzz3gOsPOk+4BV3/8Hw/zbHlh798B323aWltxh5eV1YLFlB/7DbK5rGQEZF9b9td3tlJvO8kccz62JZtZ0LCXSx3pPiqR9FDgUEa1jvoD1Nan+yhEJFsEfG4FByXjqC0TSUDxM+zoDRo+oO3Dvey/0h5z1THFpVh8sZYE6PC4e4NheNy0NV7mo/E17Ni7EpsBTDPX8OS53Xx6fzhOInGz1y/FZgACt/n86MBztI1b+CpP9QQNA3f45vg+TjTGLBDyCkqxxexJnL1lJSMjG9uyU4f/TMneuZgNk1m8vopLv69L9yGJpIWyKouIiIiIyKgye/VMgjmEu3Cd2x03aAjwk6eFW0MIZnXfvcCphnuhvyZidyZxoMOheAMLHMGegd6GdwfuJZVXxbNLJoYCrJ00Ht4dN2gI0H2/hbYh/MCW8WUlMhDP+3zS9AAAg2MR64rTfDwiaZK7PQ7HOHhi7QqeKLViNoZ1uQ904fd78TadZe/JpvQdXyZJpqzGWJm9+hkWOK2YDfm923ndTXx1LnqiZCBsEuROGkPzzdjnbebJ6nJs5p73uIer4TP2vXctzrYxDCKD2ZhiJwtqZlFis2ExjcXQO3t2Fz5vK43nTnOmOf4XTxHJHeMW7glOnA3Q/iXrXzodc71Hnw/OkQPga9gfPcF2IvVkxPZ9E9n3DSHrIuBt52bTZ7z9p8j6+eFZHcPmputZZ4C61bb8JMeXx1gQ7/2TPd9EqS3LwLasnC1vb6fMCAR+4I+b93G1O86qeVXsOLIOuwFwf8H6V86m7CjyxpezbPUKKh1mTOGfb3sLzefPxiyrnvuoJ1nD+BkbWLfEidUcSiYR6KS99Ut2vzm82TjH2Ffwq7VV2C1je/frbjrL3nfiz7mQyPn27XAI91Eq642hKljB7FDgjPa6YZmbzNPixj+zKDgfoOFha4+saUvKg0HTwA9c+mDgIcoFS+YG7yvAe+0Ax26mPtNtppbVkO6FYbieE7l/R6o9KvjFG7xZPYGHJq/pkVfDnndXYgXc555j78VA0m1Z8HxHuO2O4dvzTSwrn4WZIsqWlHPiD4oRSO7JycBhXskGXqudFfoVsh9DPkbTBKxWy0gfVkZKpqzyJq3hpdr5WPvPG2PIx2ybzqqd5cyuO8TukwNkqTKWs+71zcyw9JtPxVCEbeZGjlpMbErFF0wAati+dyW2WIsM+ZgsU5m3dSqVsR78RSTndFzcy+flx4PZKi3zeePpr6PmkMor2cyzoaBhwHUmqu5Itp4cN+fF0HxB/eVjME+krHo7u3yZkwk6Je1CIvtVW9Z7zJnVljXxedM9ymYWgcFG5UwDV+tjBy3yqmf1BjdcDZ+l7Agm/eJVtldPjE4GYcjHbK1g3tYKZrSeYGvc4WlmZv/2KE85xvbbvhBL6UqO7y9i/TBlDn30uYO8MLMoar9W50aOmmNfU8mcbzZ9f86b6cAa+nd7yxfDsxOjMZNiYGGqmFcavB4Druvxg/EhMxwTQ/+6TeO5gYOMCcvAskr+3k9OIvfvSLZH913t+JmAETPjB5PFxDYx9F2kk7vu1ASf09529/C8S6N7FgutYCydz2yauDrUkxHJcjkYOJzJr7eGKqDAPW5e+5JvGlq56wcwM8k5mWKLjUmBYerxkFWSKKuCanbsnI/VAATu0PjhuxyrD+YcG1e2gmfXLsJuysdStY0d7k3sj/mgYKRs0/ZgTwn/PW42fEF9nYufLLN4cu18bEYw2BaxpewCbzeHNmk7wv49X4R9ObGyuHYjZYPO6tiFv72dttYWbrZc55Y3dK5V81lcNQUTYHJuZkvDpr59isioYTBZKY47DMWPxxPZa+XSG4coPrCDShOYq7bxy7paTvUM4cor5dn1oV/aAz9GzzGVZD2ZN+dFXlk7tfehx+e6zjeX/8y37X4w23istIIy59TECyNc/7rVupTt64PZJOMmlPH36+GTknYhEWrLMrkt85xrwD1zEVbysVcthfrYPQkXOycH/xH4gb9cTs21MW7hHnZUh4Zohn02HZiZVDWXBc6pmI1gdKzj4HPtMZM6mJwbeQqAB7gbPuPzC60Rny3mmeyYczqF13OIbSUv2IL7bW/6jE/Ot9Jhns4v1y8KXVNL2THncsR+kzvfBO6jVNQbCbJbe0INndxqij/sNql9OCyhc7uHJ90x+HCVUyk2AHRxq+FhQS8nk3riLl7XsM09mGllldC9kMrrOYH7d8Tbo3YffsCIEbOFhwcOreZQ4NCPryf+nFRblu62O9JXrXdYaJ0ABisllXC1cTDnIDJ65F7g0N7TmIL7/E7euhheUbjxeNT1uFcSZfXY2tCEzNzhyq6dnAmbW6Wj+Sz7W26z5dAWyoz52GvWQH2sX+PzMRjA7/6Sra+EDQH0nGafzxTq+j6W4lIrNPf9QnrXE/5rqZHBf1W/wL51sXp8uPGcbOKb1m28uakCI2OZ5HRAs7LCiYw21urXeKU63tIYw3W6Wzh29GvsO2dhoog5tRv4dvu7tAGPrt8QHO5LJ42H90XNMZVUPZlXxQure4KGnTQe3smx5rAvzx43nuY6Pj2ZWDnEElG3Gvtq1sEmlElNu5AAtWUhGdqW3T/L1dZqnnLkg9XJL4vP9gXfexSsoSzUfczf8uVDe1ANSl4Vz4YyzuL/gT/u2cfV3s83WFZXL1SxY+867MaHJHUI3KH+8G5O9Qzx9JxmnwtePTAfC/kUl5ZDfUMKDrq/ezQe3t1373vc7NtjiL3fZM83wfso2XojUVZzT3ZgL3eHIXVrXslmNoZ6k9PeFH3NppG91BZqG7y4H/pYY6ag99ene1FLxxVbo3vkAR7P4HsmZlxZJXEvpPZ6HsL9Sxrao5N38AFm8hljNEBPK1T8DG/snYuZH/lkw14uherjArOxpzC4G1ZPJtyWpb3tjnS/yYWvekKwfBxWaBym3rkiGSqrk6MUF1sH+C/eUIm+SsdkKx2ZA02RxM43mW0TLKu8KuaEhkj4mz6LqKx7dTfwec9EyWYHKwtiv5Wv6a3Ihq1H2216fsMzGGN9pUm97sbr9EyFYTLHHAQmIrmo7V1eP/djsMY0zWLj86WMCRui7Lt2JHrOqCTryYg5qeoORAYNM1EK24WhU1sWLhPbsquXWwgeUhEl1dao5cVLygl+U3lA27XU/MDbN/S5i7ZzB8ICB2E66vincz+ErqCJlMyMNdgymEziVP97vOMGnlBHN6Mp5kC7JHXSeHBn9L0fZ7/Jn2/2fn9OjoFxYd+Z7ZXV/PI3B3mztmfetnt880Hs+W3TpdgSCtL524eU8MXndfV7pYaNe1/jlRj/7VoY6x2yo6xSd+8nY2j3b3raIzcdoWMxWfvaiuKq0tDQ4clMq+4rF4sp1Ib52lM0jDf9bXeEtju95WOyZEbbKTKSsrfH4cI9vLJ88gAr9E3+GqHtXZq9s5hjBlP5do6/9SONF77g2JUM72mY6Pkms22iZeWYwvhQO9LeGv8Xdo/XBxQBJswOIEaXb68r3r7i9agYTj4CqZ8vWkQyiOtcYvMBdlzcyyflx1lly8fk3MzvS8diJDSvYYzhjcnWk2W2nh98bnP1wyz41TuF7cKQqS3rJwPbsuYvuemrCA75L1/KtPcO8V3Y4idKQ/OAeZtSNrS67x5y0zzAMLXua9/TvnYKVsBkdQD9xlm6vhyWZBIPNcT9Jn2+2fr9OVmmCp7dWxF7mf82Vw7u5cytkT2kh+kN5QQCDGXksdFkAZLogZwlZZWyez8ZQ6030tQeebxQaer5kSl4bTzu6JuX0eZcCheD00tM6unl67vz8PMZjAxouyO56PCBzQQGw8j80CeSSbI3cJiEU28cw7RzI2VmwDSZytXbqVwNAe9tbjZ9wdt/Go7hJNkpobLqneMCbKtPcnz1w/YyloLh+DE+QdN+sY3F5Y7ITJQiIg/x1RuHmHRgB5WmsRhDWWI/eiNOUCjJenJ8T/ZkXzu3UjFsc7iluV1QW5buo3mYVi613KNyZhEYS5k3B76rDy0q3oA9VK7tTanLpGw2hZKZ+LwMOMKw281dH1hNYDJbSWnwYASl4nyz6ftzX0hmkIkdBq0Lv9fNzcufcexKdl4LkfpKKjoY0i+QNFCG3Jgys6yy8t5PU3t0y9sJtkIwhYKFBWsosQD+B/iNYzFaS3my4Cyf3odxoQP0eVP3Y2Yutt0imSp7A4cX97I+0SyRHdd4e8c1xpetYHGNkzJbEQYIZaDcwvHqNdz8cB9vXWlP5REnJ5nzzfiy6qI7E0bZjath196VwcnMRUSGzIwpvP7w+0jNNP8QWU86GKFRrWmU4nZBbVnGC0+SMslZBfXBpA72mp5hcbdpvjA8SS5kkLLo+7OnPRTwoJDxNgO0Jdgr1Hed/duPpC7uGEPAn86KIxgcs5kAy2QeA75N9K1GfVllk9S0Ry63D5yFYDTxGNBW7cACBNx1NJoXMcc8kZJqE59+bMXYM32KO4Xz5uZS2y2S4bI3cJgCd5vPcqw5+Ov1uLIqFlQvZYajEAOFlKzexUZ3nKG/OWhIZeUPEAAMdNH2wXr218d924zy5NaeB60u2htOc+pcA20d4S2Jg41vvRRKdiAiEmnBzjXBeZMCD/AbxmI0TefXO2+z6bUYvQ6TqidbuesFTIDRxHhS2JlmuGRIu6C2DDK2LQtLkmJwzOXJgjo+vV/OE6XB4W+B1j+nNONrbxjJZKaYAe6hPCvje3vS9J8DLnuk8nyz4ftzW4sL/8wKjEQOpxxufn9PSZspHqinY1gv4FT20Irch4GHT93Wyk3XA2aUjwWjg8oy+HaEMq2nq6yy8t5PU3vU7fXiZyJGowkzBsyOiQSzdZ/lqs3JnJlFWEvnU/Dxg1CPw046hqGoMqPttvb2qvT7UvezsEi2yOrkKKnU0VzHqd9v5R+P3ghN0F2IfaZjwG3yCkqZ/Q8rmF2Sad++h9dDy6rJHeplk894x8BlmDHyaijpzdj4Prvfqev3oCUiEt+jzx9mmS0f6MJ1fje/O3c7+MXVtpKDz8eY1DvJevKWtzP4D4ONyjkJjkM1T8Ae4+W8krnYh9CsGRjE/jOwXVBblnn6kqRMpKzGBJWzsIeCoLcarqV0X23ungyyVsoGuIcKlkwnWKRd3G1NcwbqJAzX+Sby/RkGWW8ko/Hr3iRAWGeysWRkxut73N5QYKqQcbb4+yx22kLDKTu5m+JAy632UPtgtDBpEEkfvr3WGvrsxlKypCa1BzOAdJXVcNwLw349p6s9avUS7Odtprikmmk2IOCi8Rp4LrcGj8layhNlE0I9w314hjnGmra2u3hC7xBon3dwbcH4edt49a2jHHz9RRZMyvg5Q0QGpMBhP929FSQM2AbkVfHCgR08VbOIp2r/EPvBcJSLW1b3T9Mc+kHQ5Nw8Yl/WkmLrawzizRr/+PPPUJZbMWIRGYRxC/fw61AG5YDrLPsueum4uJvPXV0AmJzb2LWw3wQ6SdaTbRdaer8Y21fvYsG4wW/rD3SFdmxjWr/txpRt5rXaQcxh5brdW/9bnNUP32kGtwtqyzJI8yGaQx05LKWLWFBVihHA38KVAZIYJMJT10RwcFs+9iUbmDYmxkrjathSPTH4b38LV7Kk12ksw32+g/r+PNR6IylNfVlTKaRy66usK4s/fn9McemggmwP362LnkGTtuoNPBprbNe4Gn7p7En408KJFPfObHO1hwJyE5g0mGzAzYe45A62CwbrSg7+48zUHlA8aSqrlN0LI3k9p6s9un+H+wEAI6bqqViBgOs6V7sBz7u0eSGYdbqnK54X7wjNuzzSbXdeqS0UHO3E0zSIaTPKtvHS6gosprGYLFNZtvNFZuf0WE/Jdjl3+dqfe4ONtgC3Wltod//It66ersZmJs2czuPO6QRzbXXSVjfArwm2voxNACbnUhYcb+FSNkxSP0jJlNXn564zo3Y6JgqprD3MpNYWmhuu85fQe4yzTaektBS7w4Kx5QC176TmV/y8/5+9uw9u6s7zPf+ejo+nkWuQ7yDvRMxY3EVMSezYVCw2livYC6aCvWCKgjA8DIQmJIRuoJuQdrsGqJDcJqk4KaCH0MvDELqTEEgH3AkUBWGBVNu+ISnsbOzc2D3Ie6NsIe9g9iLvIKpQti3Xnf1Dsi1bssGWbPnh86qiyuico/M7T7/f73z1e5hsxWqOLiAsPWWJkUl2tq1nUShA6+1Ixt/yLbdDRZgNMLmeYeePTFyq9tJusfOEu4h81wzMA5Q7Q96viIwqhtlGdnb/y1tb+3STmlLGpqUzws976AYfvnGle9Glg2d4bN/T2I107Ct+waq6HZxu79k0oXyy9W0uedysc6aDMYPl+w7yWF0dX9R9xnd+wGTF4S7gCddsQld6zxTd6G1jnXMaMJUFu39B+3tnaPFbcCxdyRLXVB6FpexmAAAgAElEQVRqaLzOizT7VmGzhV80D74+g5pzl/myLap1W9BPa1Rrt1SVCyrLRqYsS1Y5+FHdTeaUTQNrMUss4UmAAk2Xe82ynBStp/iwzs2L7kwwF/DTfXaa6y5QU+2lHQvTi0tZUjwzEojtoKXqcPLTMJISPN6k1J+HkG8kdMgnyvnIdjzcGtyYypxtR8kP3KTF48HnD3dmtNicZNutWE1B6t/YxrFEu8PfO8OlhmJ+7MoAcwEv7rNQf+0ytXVtBLEwvXg+C92zsBgA92msejfxA+3r2jf41s/EDthyC+GT6gducungWR6rXIXdALNrE8cPLaa57g98XufhdhCw2HncbXu48uFhpepcJevZH+H7OTXlURv+IDjM6Ux32sPdf6Naf3/qucOcwixsrlnhDwL+XmNkJlIujLaye4GrK5DspfEhAtgOt73382JYcdihdtSPLSMS34QLHGKYMFszybNOIw9YFHel+/iuvDXw+Czer/guWEDPj5cWsu2MgYGmBiGBc9XZfJjXqyy8smIGJjKwOAtY4CxgQZxvCCSxEYF9zU4qIi1/YthKeWVPadSOowdxrubDK/PZVTYNgwzsxRv4aXHfhN7AG5qJPc7MW0Pfr4iMJraS13hlgIYD3qqoIFxaLpt2h1+04C71B/eFf4Xvcu8Kez+Yza/Xz8RgKgt2b6H5F4f5Y2SdRPPJ2jc3YvzjEVY7M4BM7O5S7O7SmPX69hq69/tTfF64izlmwDyL1dtm9d5X0zt8FFzGs/3laRHnqz4jv7wIC2CyzmbR5tm9ywnvaTZGje+YqnJBZVnfhA5PWZascvDeuet4y6ZhJz0yG/Qdmi8OTxfhPx7dxkeWIyy3Z4Api5ziDeT0PV/cx1u1h71JbvGYCgkdb5Lqz4PNNxJ16Y1KKH+B5c7wvWmYp5HjnkZOzJrJ69L/5ZHDOPa8wDxrengm2LIZ5Mf0AA6f50P1w3BfdV7kC88y7L3GC33ANu0XqdwZYGvXDLamqeQUPx3n/kiuVJ2rZD37I3k/p6Y88tAaGVPZMNIhdIP6az1f3nrFg78wi67iJBS41WvrhMqF0VR2T17J4/bwn0HPZw81gZDX00bInRnVGDKAP/XzRokM2YQLHLY1NNBsdZJtMWMyZfRq2RwK3qHN08D5qjN8ffsBuUhnHf98ZDZvPkyXrjEq0XPV/skeft7gYvmKZeQ5rVhM6VHb38Xv81B78RSfNo+O1netv9/NL9ueZ8NSNzZLeuR4Owj6fTRfOcOxqx4WvnQi7suWiEw8C3e80D3BRKDubY41x+aFnTWV/G/Ogz0tG/pMlpJoPvnpm5upzylh9dJScmxZ3bMaQgeBNi8t1Rc4drXvVh7e2fk6gc3PMM85NbJNByG/l5oP3uV0YxuOnyx74PF3Nr/NSztvsG79YnLsUwdsyZas4x0KlWUwpsqyqKAHAL463mkdvt1dem0zjXlrWb3CjcOSGQlWQih0h7amh6wTjiFDPd5k1Z+Hkm8kpNPLpTe3UeMoYd3S+TjsFsxG9DN8hzavly+unOLTZP2i29nEyV0b+XLBFpYUO5lu7QkehEJ38Xvq+OiD4b2vaq80sdw5GxPTmLPGyccP0/osMoNtdv5alpS5cFh7lynBgB+/10Nt9Vlqm5OU0BSeq2Q8+yN9P6eiPGr1d81QHtVNuXvh27T4i7BEypNgEiNjo6nsfmx9cWS8yzvUn2t4qPR31lTyoesgq3MzMUJ3af7graRO8CUy0v5s0iP8e6oTMXblsulAReTF8Vs+en7PuOqqLCIiIjLS5v7j8XA3fDpoeW/zuGjtJzLSFr4U6abNLa7+ovdQGSLykKas5dV9pViBYMMhtv26LtUpEkkJTY6SiOwCpkdam4S8XyloKCIiIpKAtJwtLOlqbei/pqChyBBdOlIdmQRkKgvK16Y4NSJj06rycNCQ0Lecf09BQ5m4FDgcoscWvMCru4siYzrcouZI8sZjEREREZlwJrl4dmPXEDB3qX/vVIoTJDKGtZ/iQNW34RmWraXs/0luqlMkMqb83U8OssAK0EHLB5V8qq7GMoGpq/IgLXzpBMvtUR8Eb1FzZDcn44xtJSIiIiL9ezTbhoGJR92lLCmejTUy6Vygbi/lR5tSmziRcaCny3IH3qodVH7if+A2IhPdlEUv89qKGRioPBKBCTg5SnJ0EAr4aak7w4HfPdwAqSIiIiISxbGFih19J5nroO3aYXb/Ri9pIslw6bWNEAke2lf8gqc9Ozj5XapTJTKKTX+GikjQMOg9raChCGpxKCIiIiKp4NjC/q7AYagDv6+BT6ve5dOWYKpTJjK+pNlZtXsLtupK9taoxaHIgzy66GUqXF9R/pqGIxMBBQ5FREREREREREQkDk2OIiIiIiIiIiIiIjEUOBQREREREREREZEYChyKiIiIiIiIiIhIDAUORUREREREREREJIYChyIiIiIiIiIiIhJDgUMRERERERERERGJkZbqBKTKwpdOsNwOhO4T8Ptoqb7AsatNqU7WqNJ9jryn2fjaxZHbsWML+3cUYI63bKTTIiIyCGnTy3hx82Ky8XHpyD4ufRdKdZJGjWSWKWPhPKsMHYQkpnks3BsiIiIiY8mEDRx2MzIwW2eSv2Ym+Wvu0vxBJQeutqU6VSIikgqTnDy5fhlznXYs5nSMrs9D9/G3eWiuvszJGk8/G7v4cfkqHCaAmSzfvJZLFe+OSLJH3ORcnlw6nydyc/m+eiN7PxnJnU+g8yyDlIJ7I6XPgoiIiMjwm7CBw5ojL9FssjDdPYucXBc5tkwMMslZ8yZv2Pay4zdqfZgyLYcp33A46gMnmw7sIj9uUwQRkeR47Lk3eLZwKqZ4C40MLLbZzFs/m2zTj6iMGxwwYzKitzFwAC3DkdhUsxaxsHg2ZsA74jufQOd5KMZiGZq0NKfg3kjpsyAiIiIy/CbsGIfft/tobW2g9vfvcuiVbfxs50laguFllsItbM03Bv4CEREZN5742UF+GhU0DAVu0lx3mU8uXuCTi5epb7pJW6DjAd9SzW8/+IYAAHdpPndWwaxhofMs/dG9ISIiIpJsE7bFYV+dt6+w942pvLFnPhYyyCtbBvVnUp0sEREZZlMWvco6V2b4P6FbfH68knfqA3HXTZuci32AVlDtNfsorxmGREovOs/SH90bIiIiIsk1YVscxtX6Lo1dwxvanCxMaWJERGTYpRXz7NJpkbEM71J/cHe/QUOAzntNtLSOVOJERERERERSSy0O+7gXTHUKRq9JjpX8eH0xDmtG+CU7dBdfwxn2HL02wEY25q55hoVuGxYjPfxZqAO/r4FPq97l05bknvCuWSwDda9TftTDo3lrWb3CjcOaGUnzfdo81Zw8coaW75O6axEZgyYvnY8jMjKF/9o+jjUPcgbWIc0G62Lroe3kmYDQDd7fVEltf9+fVkzF4Q3hNPousPGVPi3hRyqPHeA47StOcHxFnAUPmA13UGVKMmbdneTkyfUreTLXhsWU3vN5qINg0I+/4Qx7TjQ8+HuGSGXoMBnpe2MYngURERGR0UyBwz4e7aoJhkIohtjj757bz4uFWb0/NDKxuTdxxGJmc5wKcdr0tewqL8XWd6YBIx2LvYDVO1zMrX6L3SeGYyIaC3P/8QjrnBl99p2BNXcxFZUW/ukXh/lj5zDsWkTGjDnOaZG/blJf5RuhvTZwvuEOeYVZYNjJn2dQWxM/YNkT2Oygpfpsr2WpzWMTM5QyJRFpOc/zWnkRlngLjXRM5qnYbNak7jOaytDRK9X3hoiIiMhop8BhRNpkO3PWv8CcSM0x5L3efwuQica+ihftAPdpazjLR+c8tFsKeHrjYuwmMOzLqJh3hb3RL76TS6jYUYrNAEK3qP/gbY7VhOcbnJK3kmfXL8ZhTsda/AIVvs29t00Cs3sT6win2d90jY8ufsZtk5MlK1aSZ00HcwE/3nydbb8evtYlIjLauZneFQ/we/n43hC+ouUwe1++QM90WjaWlG8i7wGzwbZW1eErXIyNdBzFy6Am/pi6C12RwGawiZpU5rF9j9O2jO0bwzPJ+q68xDvxGs0F/fG/ayhlyhDPc1ghP90WCQyF7tB87TKf13m4HQSwMN09g2yrnemhYfq5UGXo8BrpeyOZz4KIiIjIGDCxA4eLXub4ihmxnwdv8OHx6pFPz6h2h/qDuznWGKk8t/qofNng1X2lWEknO9cFNXXdaz++fhl2A+AWV3fu4HR7zze1N55hb9NNtr61lTxTOo6ytVDzbvKTHLrF50f28E5XmvFxqNHHpgO7yDeDKbeUuWkN1I6DFhMiMhQWJne15grciVk6JdtG38ZeAK2tvVsm3u71fxMPFcK5d4Zm32JsNsCWy1OTz8QGLrOfJy8S2Ax6PuPLqEWpyGN7Haep5yhDAR+tgx73cXBlSsz+H/Y8AzhmkR2J8vjO7eDAJ9Fb+mhtHYngl8rQ4TTS90ZynwURERGR0W1MBw6zs20DLA3R2to2wPI4WwRu8V3TBfb+ZoDxhlIokeNN7FzdpX7/jtixv9q/ojVQitUMJnNUJ5+0Yublhrs3BRvO9nrh6dZZx/m6leQVZ4HFyarJcHoorX0GSvPB3bwTM16Zhw/rbpFfMhUMGzkuqK1P5n5FZCwK+L19Pilj055V2OOs6636EZWfJL7P89U3WLB+JgbTyF9q4+MTvQOS2SXOSPfJOzSeiwpgjIo8NhGDLFMS1rMfsz0XGOlWcipDR69U3xsiIiIio9/YDRwueplX4rUW7HaX+je2caxlgFV8fgLMwMy3fLRhD5eSncZkSuR4Ez1X3suDmzDAOZNHI7/gt3nq+l2t1R8AsgAzFieQzJePAdJ8r8lHoGQqZjKYnMx3UxEZs0xmK+AZ0X121lymecVM8kxgyS0F3o5a6mKJKzImnq+Od6JbMY2GPDYRgy1TEtXyNo3+IuZZwOzazvED31J/8QLHro5QkEhl6OiV6ntDREREZAwYu4HDZBjB95YJxWbpnm3QvuYEx9c8aIMRfvmIuu5miw0YqQkRRGR06ckMDKNvp+SLVG6ImrBioJlbhyxqkhSLi615cKgxsii/CIcJ4k2KMurz2FHo5BvHMO/YRJ4FMM8gf8128tdAyH+T5oYLHPpd/wG6ETfar+84K0PH1L0hIiIikgJjN3D4yR42JqGr2JiRyPGO+nPVQWeKprAO+gfXnV1ExhMftwNgNwPWGTwOvcYRHAmtVQ20FZZiJQNHoQsawy2d5hbnhsdXDHmpT3jii9TlsaNG+zUOVVzj0byVLClzk2fPwgAMyzTySrZyvGQtzR9UcuDqWCwTVIYmZFzfGyIiIiKJG7uBw2TonhkviMayTqJgiBBg0EHLexvZW5PqBPVhNrpnQwyF1OxUZOLy0Oy9zxxXBpic5OfBl40P3iqp7p2i0VeK1RY12QTF5NvTAQg2Xaa27zajPY8dxW43nuFYY3gG6yl5xSwsWcYcZyYGmeSs2ckm3wOGOBkJo/36jtMydEzcGyIiIiIp8INUJyDVbrf6aG31D2nbtMm5zP37lczNSW7ntTGvwUf4jKbzqNOZ4sTEesztjMyUepMW9UASmdC+vOYh3Fgrg5ylZSlJw/nqG+Hen4ad/EKDyUvn4zAgZlKULqMsj+0JI40t7Y3VnHxzGz878lXkHsjEUZj68znarm9fE6EMHeq9MVafBREREZGBTOjAYVrOWnbuPcL+X27hiSmD3biYF/dVsK5sMevKf83+n+QOSxrHpHunaIwMeWR2b2FTziiqSE8pY0lktsqQ5w98PGpmGRWRlGh8i0u+DgAM2yr2/6xwxJPQWXOZ5iBAOtPdJSzMnRZe0HdSlC6jIY/13iQQ+dPqLhn5/SdRp8fffSyjIu4zGq5vfyZYGfpQ98Y4ehZERERE4pnAXZWdPLuxNDy2FQWs23iDL96sfvjN7T2zHgKY3ctYeLyJS53JTufYdL7qOnPKCzCTSX75QaZ7mmisu84X3nA7iin2AnJyc3E4rZia9lF+tGc207TJVqzm6Bq6pae+bmSSnW3rWRQK0Ho7QAzLLJ7K9/KFx8vte+GuVI8teIHlK2ZjNYDQt5w/PojrLSLj1qWDZ3mschV2A8yuTRw/tJjmuj/weZ2H20HAYudxt42+06dAkvKrqElSDPsy5hkQd1KUKInksUnReZFm3ypstnDA9eDrM6g5d5kv26IG2wv6aW1PzuB7iZxnx3NvsMke4jtPE22+b/nS6+/+jumFBTzhLsAKwF1aqkd2Zu3+TLQyNJE0p/zeGOFnQURERGSkTeDAoRkjqp4ZO6PmA3i/4rtgAXndm1nItgMa/waAzubDvF5l4ZUVMzCRgcVZwAJnAQvirBvoM0SSfc1OKtyZ8b/YVsore0qjNr7O3u2HY0+7eSaLNs9kUbzvCN6i5kgll9of+nBEZDxrv0jlzgBbu2ZWNU0lp/hpcoofvGlS8iug9YoHf2EWFiM9HPQIeam/1v/4cYnksclyvuoz8suLsAAm62wWbZ7dO8/1nmbjaxf72XpwEjrPhgmzNZM86zTyIH65wH18V94aNWPYTbQyNJE0j4Z7YySfBREREZGRNoEDh3V8eHE+jhUzMQVvUXPuyuA276zjn4/M5s3yAjTCYXztn+zh5w0ulq9YRp7TisWU3r0sFLyL3+eh9uIpPm2O1wInUR2ESI/qWdRByN9Gc8NZDv0uzphhIjKxRWZWzc5fy5IyFw5rFqbuDKSDYMCP3+uhtvostc3DsP/Wt6n3FbEo0jgq2HSZ2ge0YE9tHgudzW/z0s4brFu/mBz7VMyjqEdttLaGBpqtTrItZkymjF49TkPBO7R5GjhfdYavb4+uiT5Uhg6/ZN0bY+VZEBERERmKP5v0CP+e6kSMXblsOlBBvhngWz56fo+6KqfYwpdOsNyOft0XEREZJJWhIiIiItLXhJ4cJWHZBUyPNDcMeb9S0FBERERERERERMaNCdxVOTFdg4RbALhFzRH9Mi8iIiIiIiIiIuOHAoeD1N2Np0vwFjVHdnNaE22IiIiIiIiIiMg4osDhkHQQCvhpqTvDgXE0SLiIiIiIiIiIiEgXBQ4H6dJrP+JSqhMhIiIiIiIiIiIyzDSrsoiIiIiIiIiIiMTQrMoiIiIiIiIiIiISQ4FDERERERERERERiaHAoYiIiIiIiIiIiMRQ4FBERERERERERERiKHAoIiIiIiIiIiIiMRQ4FBERERERERERkRhpqU6AiIjIeJE2vYwXNy8mGx+Xjuzj0nehVCdpwlv40gmW2wHvaTa+djHVyRERERERGVMUOBQREekyycmT65cx12nHYk7H6Po8dB9/m4fm6sucrPH0s7GLH5evwmECmMnyzWu5VPHuiCRbxqnJuTy5dD5P5ObyffVG9n6S6gSJiIiIyESjwKGIiAjw2HNv8GzhVEzxFhoZWGyzmbd+NtmmH1EZN4BjxmREb2PgAFqGI7EyMViLWFg8GzPgTXVaRERERGRCUuBQREQmvCd+dpBnXZnd/w8FbtLi8eDzhwADi81Jts2K1Zw+wLdU89sPZrNr/SzM3KX53FkFDUVEREREZExT4FBERCa0KYteZV1X0DB0i8+PV/JOfSDuummTc7Gb+/+u9pp9lNcMQyJFRERERERSQIFDERGZuNKKeXbptMhYhnepP7ibd5r7n9Ck814TLfdGKnEiIiIiIiKppcCh9OvBM1E62XRgF/nmAdaZ5OTJ9St5MteGxRTVxS/UQTDox99whj0nGmI3y3azsKyIHLsdqzkDw+jZLuD3UF91itONbf2mfXLOStatcJNjzerZNp7AdfZuP9y7O+EkG3PXPMNCtw2Lkd69X7+vgU+r3uXTluAAXygiY8nkpfNxRPII/7V9HBsgaBiXYwv7dxQQtxFiv3mni62HtpNnAkI3eH9TJbX9fX9aMRWHN4TT6LvAxlfO9F6egvwq0fw5sZ0PrUzp9RWOlfx4fTEOa0Y4YBy6i6/hDHuOXut3m7RHXSxfs5J8pwVz9Hlua6Lx3Jn4x9t9b9yl/o1tHGsBx4ItPFXiwm7p+o47eOvOUvmba322iWVfcYLjK+IsSOJs0Sr3h/85Cp/j8D3xvul5KjYWYTNBKPANH766j9p2mPvzg6zOzcSgA3/Du+z4dZx7M5E0J/Ic6fqKiIhMOAocyrBJy3me18qLsMRbaKRjMk/FZrPGWVjG9j2rsPezndk6iwXbZpFft5fyo00xq/zdc/t5sTBraGmevpZd5aXY+s6OYKRjsReweoeLudVvsftE7H5FZOyZ45wW+esm9VW+EdprA+cb7pBXmAWGnfx5BrU18QOWPYHNDlqqz/Zalpr8KrH8ORFDL1N6xC0fjExs7k0csZjZHCcQNv0fXmV7ybTYSXOMdCy22SzYNps5nnfY9mZ1/zs2udjw+hbmWPuMkWlkYS/cxBFr/H2PNSr3B8Gyll0bi+g6G4Z5Fqs3FuMPLGNdbtd4q+lYXM9QMa+OvVF5RCJpTuQ50vUVERGZmBQ4lGFSyE+3RSqXoTs0X7vM53UebgcBLEx3zyDbamd6qL9feTsItrXR4mmiuek63/kj2xWXsqR4JmbA7N7C1rrNHGrs2Spt3k5+Gqlchtqu8+HxU9R+Fx6r7LG/f5lny2aEX/4Cn7F3+9u9f5GeXELFjlJsBhC6Rf0Hb3OsJjyP5ZS8lTy7fjEOczrW4heo8G3uVYkXkbHIzfSud1y/l4+H0gW55TB7X75ATwMYG0vKN5E3wDiIAK1VdfgKF2MjHUfxMqg5E3e9ha5IYDPYRE10npPS/Gpo+XNiEi1TAPsqXrQD3Ket4SwfnfPQbing6Y2LsZvAsC+jYt6VXudqyqKXqSiJdGUP3qG57gI11V7asTC9eD4L3bOwmMDk3MD+59oo/40nzo5N5G3eHm4lFfUd31uLeGp9aWTfi9mad5FDjX3uJ9sytm8Mz6rsu/IS78RrFBn0D/psDg+V+w8vk7z1xRjcpfG9w9TnbuHHrkwMy2LWOTMh8BXvH/mGvG0byDGlk53rgpq6JKQ5kWuk6ysiIjJRKXAow8Mxi+zIm4/v3A4OfBJdGfPR2jpQV7KLVG6I1/LCR+uJBj73vMCvNs/GRAbT3U5o7HlRW1A4M9L17AYfvnyY2s6erb/+/R5+abzBmyVTweziyXxoqe9Z/vj6ZdgNgFtc3bmD0+09y9obz7C36SZb39pKnikdR9laqHn3Yc+GiIxKFiZ3tUIJ3IlZOiXbFtvKDGht7d0y8Xav/5t4qFfPe2do9i3GZgNsuTw1+Uxs4DL7efIigc2g5zO+jFqUuvxq6PlzQhIqU6Ldof7gbo41RoIbrT4qXzZ4dV8pVvoEaNKKeXbpjEjQ8Abvv1xJbfd5Dh9v7cViKvZswGECc+FanqraHScAnY5hQNB3mW2vnOr5uPUUlQFzpGtyBtm5Nmj09b6fTD3HGQr4aG19yMNMBZX7g2IY6QTq3uJQjQfaPKx2FWC2ZGHhFldffYvadjC1bSDHDiZzTxu/hNKcyDXS9RUREZmwfpDqBMjDy862DfBv4O5ZiWw7ND0VSrM9N6nf3Fl/na7haMyW6I4vTrK76ta+b3pVLru0N/gI/06dweTovjZpxczLzQAg2HC2V+WyZ8d1nK+LBBcsTlZNTuQoRGQ0Cfi9fT4pY9Oe13glzr+di5Kzz/PVNyI55TTyl9pilmeXOCNdAu/QeC7qpXwU51f958+JSkaZcpf6/Tt6goZd2r+iNTKJdnSAJq2kqKebeNW+qKBh9LbV/FNVz3XMKYw/+Fqg4UDvoGGXlpt0tRc0TPHC1GOJyv1BCd3g/PHY7rHBhjPx0wJJSHMi10jXV0REZKJSi8OxYtHLvLJixgAr9Ay+ntRth6rlbRr9RcyzgNm1neMHvqX+4gWOXX3YViEDCRCK26THQ2uA8KDttlnMTbsYU8mc4rJFBp2/z73o3l3OmTwaed9r89T1u+dWfwDIAsxYnEB9v6uKyBhiMluBJLWOe0idNZdpXjGTPBNYckuBt6OWuljiiozp5avjneiWZqM6v+ovf05QMsoU7+VBTX6TZ+/6Uc1H4wBdGDuvfUPb+pnYALPNCcQGg/ze/tLZX0usMUjl/qAEGi7ECYTdpfnKAOcr0TQnco10fUVERCYsBQ5l2Jx84xjmHZvIswDmGeSv2U7+Ggj5b9LccIFDv+u/Igfw2D+8wBKXs/fsew9wtfoGS9bPxDBmsnrPFug7Fk7J1PCKgSY+ja4c2izds1ja15zg+JoH7anPL9siMgb1vKkaRt/WXn0COgPNnjxkUZOkWFxszaNnbK/8IhwmiDcpymjIr4aSPycq0TJlsCzmcGslAn4G7CHc6eN2AGxmMFtsxAscThQq9wdjCBH2JKQ5kWuk6ysiIjIxKXA4Vnyyh42fpGDbRLRf41DFNR7NW8mSMjd59iwMwLBMI69kK8dL1tL8QSUHrrb13m5KGTv3rMI+hF5bnTUXaFw6k3wzGNYC1u0uYF3flUI3uXqwzwDag9ZB5wBj8IvIWBAO+NjNgHUGj0OvcQRHQmtVA22FpVjJwFHogsZw6525xbnh8RVDXuoTHrA/iflVAvlzwoZapsjIUbk/ysRJcyLPka6viIjIhKTAoQy7241nONYYnjF0Sl4xC0uWMceZiUEmOWt2ssnXu5v0U9u6KpcdtNWd4mRVHS3t0bU5J5sO7Ap3XenD8dzz4c8D39LoN5Njy+r+VTsUvIOv6TIfv3eFlu/7bBgMEQIMOmh5byN7a5J2+CIyanlo9t5njisDTE7y8+DLpM0C/JDunaLRV4rVBqbcUuamNVBLMfn2dACCTZep7btNCvOrRPLnZBlsmTJU3eFas4Vs6D8okWbj0cjxxo6VOTGp3B8mSUxzIs+Rrq+IiMjEosChPJhlKg5iX5rScubjGOTLYXtjNScbq/kwv2sGvUwchU5oiYwtlgvMnOMAACAASURBVFZGTmSOgGDTu+w+em0Q317MEncmAN4rlRz6ZBCtdBp8+NfPxEo6jzqdUDOyY52JSGp8ec3DOld4Ns+cpWXQOPLjzZ2vvsGC9TMxDDv5hQaNlvmRSTn6TIrSJVX5VUL58/B4YJmSgBbfHbBnATby5hl82k/Lz8lLCwiflg5ue4bvWhgYDKl761Co3B+dhinNiTxHur4iIiLjn2ZVln4FQx3hP8x2HpvSe9mkvC28Vj708b46Pf7ILHhA9Dg39qk939nPCPtP/OQZ8uLt2DGjeyDsQbt3ikZf+E+zewubckZo0C4RSa3Gt7jkC+d1hm0V+39WOOJJ6Ky5THMQIJ3p7hIW5k4LL+g7KUqXVOVXieTPw6zfMiUBrdUNhDtcpuNY+jyPTYqz0pQytpZErlewiavJbtXkvdl9XFZ3SZK/PJbK/VFumNOcyHOk6ysiIjJ+qcWh9KvR28Y65zRgKgt2/4L2987Q4rfgWLqSJa6pDDRUjeO5N9hkD/Gdp4k237d86e2a6s7C9MICnnAXEJ6v8i4t1VG/Ard8y+1QEWYDTK5n2PkjE5eqvbRb7DzhLiLfNQNzf3W/lpv4KcIM2Ffsp8JyDW8wvI/WJg+3gwAhWlvjj391vuo6c8oLMJNJfvlBpnuaaKy7zheRtE+xF5CTm4vDacXUtI/yo/r1WmQ8uHTwLI9VrsJugNm1ieOHFtNc9wc+r4vkGxY7j7ttcfO8tMlWrL0yJUvPO7ORSXa2rWdRKEDr7QCxeiZJMezLmGdA3ElRoqQkv0okf07QkMuURLSe4sM6Ny+6M8FcwE/32Wmuu0BNtZd2LEwvLmVJ8cxIUKSDlqrDfJ2cPffovEizbxU2WziwffD1GdScu8yXbVHdPIN+WtuTMzibyv3RX+4nkuZEniNdXxERkYlLgUPp173fn+Lzwl3MMQPmWazeNqvX8kDTO3wUXMazkW4kvRgmzNZM8qzTyAMWxd3DfXxX3uozhk41H16Zz66yaRhkYC/ewE+L+2wWuIE3NBN7zOx3V/j4yny2l0zFIBNH8WIcXYvKeq8Z8t/g6vG3+Lil52Wrs/kwr1dZeGXFDExkYHEWsMBZwII4KQ+MUG8xERkB7Rep3Blga9dsoaap5BQ/TU7fvCcO+5qdVMTLAwFspbyyp7Tn/4Hr7N1+OO5Yea1XPPgLs7AY6eHAY8hL/bX+M5rU5FeJ5M8JGnKZkpg/Ht3GR5YjLLdngCmLnOINce6L+3ir9rA34Uls4jtf9Rn55UVYAJN1Nos2z+59/N7TbHwtOV3sVe6P/nI/oTQn8hzp+oqIiExYjxg/4D+lOhEyWvn5uvYGaTY7f/2Xf4HxCEAHIf//yR+O7+NXZ5sw/c8LmfM3P4R/+yPn//N/7d4y9IO/4q//6s/5c+MHPGKk80jUt4aCd/jXpmu8f3Afp6/7++6Ue/9SzVd+C9NsVv7C9Ehk2w6C/v+LxnNHeeXwOf7CvYz/6S+J2S+Wxyl6LCvy4n2f4J9C4Z4xxiO90vCIKYu/LSxkiucSX7f3fP79f63lat1N/vwvrZjNJkxGz1ah4F3+m/drLr73Jkcv/+vQT6uIjD7f+/jy6lka20yY/8qM2ZRBz+PfQTDw/9D2L19y/oNfcfLzP3VvZunKAx/Gn/5vvvjfv6Q93rJ7DUx2LeNvI931gv/lFEevDzw7cCryq4Ty5wQkUqb87f/yoPRYmP2/FvHXP4y/zrf/+SL1PhP/g83Cf/jhD3kksvNQ6A7/+l/C+/19Y5yWpJbHKS38G34I/Nu/nOXaEE/Ff/9vDdTU3eE//I0Vs/kv+OEjfVZI4nlWuT/8z1HX/finf/2MK/+Hv/sYwvfK/8e/XrvEV+291+17zENNcyLXSNdXRERk4vqzSY/w76lOhEhSOJ5n/45wl5aQ9zSb47TASJtsZ86aLax2hyuhIc87bH6zesSTKiIiIglSuT++6fqKiIiMCpocRcaNuUvdkbGmblFzMH63rc57XmqPnqUl0iXFMAYasUlERERGK5X745uur4iIyOigwKGMGyYjPfJXiHsDjROfPbN7lr5gILZLjYiIiIx+KvfHN11fERGR0UFjHMq48af/WMi8/zEDyORvH7fxp/+3je+iZjCdNMVJ3tJn2LY+H8sjAHf4/Mhv+eZeqlIsIiIiQ6Vyf3zT9RURERkdNMahjB9puTy95wXmWdMfvC53aDxeyaHP9cu0iIjImKRyf3zT9RURERkVFDiUcSc7fy1Lylw4rOaobi5AqINgoI2WhrMc+l1D6hIoIiIiSaNyf3zT9RUREUktBQ5FREREREREREQkhiZHERERERERERERkRgKHIqIiIiIiIiIiEgMBQ5FREREREREREQkhgKHIiIiIiIiIiIiEkOBQxEREREREREREYmhwKGIiIiIiIiIiIjEeMT4Af8p1YkQGY3SppdRvuvnrC6ZBd46vv23/57qJInIOKY8R2Ts0vMrIiIi49WfTXqEf091IkbC03tPMM8CcIurL+zg9L0HbVFMxbENOAyg7TIbd50a9jTKaOJi66Ht5Jki//X/gY0V76Y0RSIyHJxsOrCLfHP8paHgHdq8Xr64+C6ftgSHMR0pyHMm5/Lk0vk8kZvL99Ub2fvJ8O5OZPxSnUFERETGrwnTVbm26U7kr6k4Svp5Q4w2r4DpRvjPtqYLw5YuGa3MmIyo/xoGjpSlRURSxTBlYcstYPWOo7zxs8Jh3FMK8hxrEQuLZ2OzpJM23PsSGddUZxAREZHxa8IEDlurPfgjf9ucD375ezzXRrgOeIvmi4FhTJmMTtX89oNvCF/5uzSfO0tLilMkIsMs8BW/ffklfhn5t/fISWqabtHVztDi2sT+55zDtHPlOSJjl55fERERGb8mTiOD1rdp8RdhsQD22SxMu8ilzv5WdpPvzAj/2db0EN2aZTxqr9lHeU2qUyEiIydEe6uP1q7/tvpoqb/Ch4+WUbFnFXYDzIVreapqNx8PQ7mgPEdk7NLzKyIiIuPVhGlxCPCF927kLxs5hUb/K+YV4IiMU6NuyiIiE1vn7YucrOsa7mIaDndKkyMiIiIiIjJiJk6LQ6Cl2kPAXYCZdKa7C6GmOu56jxU6CccNJ2o35ahBvkM3eH9TJbX9rZpWTMXhyCQyvgtsfOVM7+WTbMxd8wwL3TYsRnr4s1AHfl8Dn1b1M9mAYwv7dxRg5i71b2zjWAs4FmzhqRIXdkvXd9zBW3eWyt9ci5+uSU6eXL+SJ3NtWEzpPZ+HOggG/fgbzrDnREM/+43De5qNr13s7yz0nI5HXSxfs5J8pwVz9PG2NdF47gynG9titln40gmW2yFQ9zrlRz08Oud5Nix1Y7Okh7vLh+7S5rnM7l89eP8iMjxam3wEC7PCZUP0706J5FcJ5DlDyjcG2J99xQmOrxh8OgYjJs15a1m9wo3DmhlJ833aPNWcPHKGlu/7bJyEcmEo+XOXyTkrWbfCTY41C2OA3x0JXGfv9sPhbqoJpnlStpuFZUXk2O1YzRk9+w11EPB7qK86FZPm8DkO7+990/NUbCzCZoJQ4Bs+fHUfte0w9+cHWZ2biUEH/oZ32fHrfsrRh6Y6QwzVGURERGQcmVCBQ1r+QEuggHwzGPYC5lIdp3LrJN8+0bspN3C+4Q55hVlg2MmfZ1BbE4q75uSl88MvAHTQUn2217K06WvZVV6KzdRnIyMdi72A1TtczK1+i90nmvpPisnFhte3MMea3vtzIwt74SaOWM1s7lM5T8t5ntfKi7DE+z4jHZN5Kjabtf99DtH0f3iV7SXT6Hu4GOlYbLNZsG02czzvsO3N+AFrsDD3H4+wrqubfPf2mVhzV3F8b5ZmaRRJFZOJgeJF4XUGn18lbizmG/2lOQNr7mIqKi380y8O88f+hhMZwnlOJH/+u+f282Jh1qCOMPE0l7F9zyrs8b7LSMdsncWCbbPIr9tL+dE4ZahlLbs2FtFV0hnmWazeWIw/sIx1uZmRT9OxuJ6hYl4de/sp4x+O6gxDoTqDiIiIjBUTK3CIh1rPXfLdmWDYyMmH2vo+qzjm44j8fDyRuym3VtXhK1yMjXQcxcug5kzc9Ra6poX/CDZRE/2iMLmEih2l2AwgdIv6D97mWI0XgCl5K3l2/WIc5nSsxS9Q4dvcz0uLibzN28OtLIJ3aK67QE21l++tRTy1vhS7CQz7YrbmXeRQY9c2hfx0W+QFIHSH5muX+bzOw+0ggIXp7hlkW+1MD8VptdBymL0vX4gKDthYUr6JvIeYhHvKopepKJkW3jYqre1YmF48n4XuWVhMYHJuYP9zbZT/xhPzHWb3JtYBcB9f3VnOX/T0OlYshVTMO5XgC56IDIXDaY3kDXdojRu3GEJ+lUCe02VQ+Ubf/dmWsX3jbMyA78pLvBOvMVbQH+fDxESn2d90jY8ufsZtk5MlK1aSZ00HcwE/3nydbb9uiLP14M9zIvlz2ryd/DQSNAy1XefD46eo/S7cE+Gxv3+ZZ8tmhAM/gc/Yu/3tfibEGEpZBtBBsK2NFk8TzU3X+c4PYGF6cSlLimdiBszuLWyt29xnu0zy1hdjcJfG9w5Tn7uFH7syMSyLWefMhMBXvH/kG/K2bSDHlE52rgtq6gZ1DftSnQFUZxAREZHxaoIFDqGlzkvQPRsTGTjcbqjvXVnOLrRHup1M1G7KEffO0OxbjM0G2HJ5avKZ2MkAsp8nL/IjfNDzGV9GLXp8/TLsBsAtru7cwen2nmXtjWfY23STrW9tJc+UjqNsLdTE+1U8HcOAoO8y21451fNx6ykqA+ZIF6EMsnNt0OgLL3PMIjtSi/ed28GBT6IrzD5aW+O9iPa43eqL+p+Jh6pupxXz7NIZkReAG7z/ciW13cfro/VEA7UXi6nYswGH6QGTK4RuUXNwNyebQz3H6oVX95ViJTkveCIyOGk5W9jkjrTSamvgZGu8tYaQXzHEPKevQeQbvfZn6tlbKOCjNe5xDZPQLT4/sod3GrsCMj4ONfrYdGAX+WYw5ZYyN62B2phWh4M8zwnmzwsKZ0a6f97gw5cP90rP17/fwy+NN3izZCqYXTyZDy19f4wcSpoBuEjlhnitU8Np/tzzAr/aHK7LTHc7obF3YMkw0gnUvcWhGg+0eVjtKsBsycLCLa6++ha17WBq20COHUzmuG3tBkd1BlRnEBERkfFqTE+Okp1tG+BfP91KGj+ja4gck7OAx/osnuuMdEcahd2Uh3S8CWx7vvpGpBI8jfylttjvLHFGuvbcofFcVOU6rZh5ueGuM8GGs71eALp11nG+a7IBi5NVk+OnO9BwoPcLQJeWm3S1gzFM0R19eqrtZntu/C9NsrSSop6uV1X7ol4AorRX809VPecz/uQ8d6mPfgHo3vYrWiMx7KS84IlIPwymROWNjvwSnv75fn5V3jWO2R0+fy9OfhQx+PwqGcZivhFOc0/QsIuHD+tuhf80bOS44m89mPOcWP7sJLvr1Pm+iRPEhPYGH+HTnMHkAU5zsu+Nzvrr3XUZsyVOh+bQDc4fj20aG2w4E79MTgLVGR6O6gwiIiIy1ozdFoeLXuaVFTMGWKFnkOzeGvjcc588VwaY7OQ74OuudbKfISdSxxp13ZSHfLxD37az5jLNK2aSZwJLbinwdtRSF0tckSCrr453oluqOGfyaKSO2+bp/5fuVn8AyALMWJxAnJYafm9/v/b30xqj5W0a/UXMs4DZtZ3jB76l/uIFjl0duNVAIvLsXYFXH40DdAnqvPYNbetnYgPMNifQ56XOe5ljfV8ARGTkmGfz7J7Z8ZcFb3J1/x5Of9f/5oPOr5JhLOYbA6T5XpOPQMlUzAME4gZznhPLnz20BiDfDNhmMTftYkzwcIrLFgkq3+feAL26k39vBAgNcNkDDRfiBDrv0nxl+MpC1RkejuoMIiIiMtaM3cBhAr6u8xB0zcZEJo5iJ7SEu/hMLuz6NXyCd1PuFjXgucXF1jx6xgXKL8JhgngDnGOzdM8yaF9zguNrHrSfgVtqDNbJN45h3rGJPAtgnkH+mu3kr4GQ/ybNDRc49LvkdtuxmCMDkwf8DNjTr9PH7QDYzGC22Ih5CRCRUaaDoN9H85WzHLuq53VERMVBwvmkr99VH0ai+fPV6hssWT8Tw5jJ6j1boO8YhyVTI9/fxKdxuykn5rF/eIElLmfvWZUfSioCSqozPAzVGURERGSsGbuBw0/2sPGTIW5bf52W9bPJM4HZXgSEA4cLcyMvAKOwm3JCx5vAtq1VDbQVlmIlA0ehCxrDv8LPLc4NDwgf8lKf8MDbHXTGGXd8yNqvcajiGo/mrWRJmZs8exYGYFimkVeyleMla2n+oJIDV9uSuFMRGfMC19m7/XA/E1zISAv6U59Hd9ZcoHHpTPLNYFgLWLe7IDIhRZTQTa4e7G9ilCGaUsbOPavCk1yMIaoziIiIiIw/YzdwmJA66j3PhLsrW5w8nQ0nAytxRHqPjLpuyql07xSNvlKstqjB6ikm354OQLDpMrV9twmGCAEGHbS8t5G9NSOd6LDbjWc41hie2XFKXjELS5Yxx5mJQSY5a3ayyddP1+5B6n4FMlvIhv5fHtNsPBppVhHwexPfsYjIeGM2umepDQ3UF/chJZo/O557PtxVOfAtjX4zObas7pZ/oeAdfE2X+fi9K7R8n3BSe3lqW1fQsIO2ulOcrKqjpT06WubsnkhmVFGd4YFUZxAREZGxZkxPjpKIL5t8kcpbFo5CM2mFTsJDed+h5drDdVNOm5zL3L9fydyc0VZzT67uAc8NO/mFBpOXzo8M7N1ngPMuDb7IIOTpPOp0jmBK+9feWM3JN7fxsyNfEX71ysRRmJy0tfgiA7ZjI29e/33JJi8tiNxjHdz2ePpdT0RkpPWE61LrMbcz3DKNm7QkoYdoYvlzMUsis2l7r1Ry6LVyNm/6ERs3hP9t3lpO5dHkBw1JKyMnMrdIsOlddh+t7hM0HN1UZxiY6gwiIiIy1kzYwCE11/ku8rOvNXcxC3IjtXR/EycHHHQmIq2YF/dVsK5sMevKf83+n4zMbHyp0FlzmeYgQDrT3SUszJ0WXtB3gPMu907RGBmWyuzewqac0fFCCtDp8dMdFk5SslqrGwh3YErHsfR5HpsUZ6UpZWwtiZy3YBNXU9SiQkSkm/dmd35odZekNCkATCljSWR23ZDnD3ychCFDEsqfHTO6J+0YUfap3WP+9TcDyhM/eYa8UfqbpeoMA1OdQURERMaaCdpVGaCaeu9aHM50sBazxBLuRuNv+sPDbW6f2euFwuxexsLjTVyKmcVwPOgZ8NywLyP8A3mcAc6jnK+6zpzyAsxkkl9+kOmeJhrrrvOFN9yuYIq9gJzcXBxOK6amfZQfTc6v6Y7n3mCTPcR3nibafN/ypbdrmksL0wsLeMJdQLhH+l1aqnvvM22yFas5+s3A0vOeYGSSnW3rWRQK0Ho78jrReooP69y86M4EcwE/3Wenue4CNdVe2rEwvbiUJcUzIy+CHbRUHebrpBytiIxlQ85zkqXzIs2+VdhsYNhWcfD1GdScu8yXbVGt24J+WpPd2s0yi6fyvXzh8XL7Xjgw9tiCF1i+YjZWAwh9y/nj1cnZVyL5c8tN/BRhBuwr9lNhuYY3CHCX1iYPt4MAIVpbkzz2Xcu33A4VYTbA5HqGnT8ycanaS7vFzhPuIvJdMzCPnthaHKozqM4gIiIi48kEDhxCbZ2X1c6ZGKRHxiy6Q3P1Q87g6P2K74IF5HUPXG4h284Ag9WMba1XPPgLs7AY6eGKcchL/bX+x5/qbD7M61UWXlkxAxMZWJwFLHAWsCDOuoFkTv5omDBbM8mzTiMPWBR3pfv4rrwVM1aRfc1OKiLd0mLYSnllT2nP//tMovDHo9v4yHKE5fYMMGWRU7yBnOLY/Xqr9rA34YHhRWQ8SCTPSZbzVZ+RX16EBTBZZ7No8+ze+ab3NBtfu5jcnZpnsmjzzPj5c/AWNUcqudSevN0NPX++wsdX5rO9ZCoGmTiKF+PoWlTWe+uQ/wZXj7/Fxy3JCLJW8+GV+ewqm4ZBBvbiDfy0b3oDN/CGZmJP4uzCyaQ6g+oMIiIiMn5M6MAh167z3ZqZkbF3ePhuygCddfzzkdm8WV7AKO0tlFytb1PvK2JR97hLl6l9QOvK9k/28PMGF8tXLCPPacViSu9eFgrexe/zUHvxFJ82J68VTVtDA81WJ9kWMyZTRq+eRaHgHdo8DZyvOsPXt5NfEb/02mYa89ayeoUbhyWzZwD90B3amoZvvyIiQ9XZ/DYv7bzBuvWLybFPHaGWbB2ESI/KnzsI+dtobjjLod/FGQMvCYaaP/vbAoSYGgl+3ScYHrwPw5Teq3wxLDNZtOMNzG9s450kRHdbf7+bX7Y9z4albmyWrn11EPT7aL5yhmNXPSx86cSoDRyqzvBgqjOIiIjIWPFnkx7h31OdiLErl00HKiKzGn7LR8/vGaddlUVERBKz8KUTLLczPK0Yh4PjefbvCHdVDnlPszlOmtMm25mzZgur3VkYQMjzDpvfTFI3axERERGRUWDiTo6SDNkFTI80Nwx5v1LQUEREZJyYu9Qd6VFwi5qD8QOdnfe81B49S0ukYZhhmOKuJyIiIiIyVk3srsoJ6BrIPdxL6BY1R8ZA6wkRERF5KCajq6tsiHsDDV2Y3TNZWjDgH2BFEREREZGxR4HDQeruatUleIuaI7s5ncSB3EVERCS1mn13WG7PAqaxZM8LhKrO8mljzwRqk6Y4ySlZzPLiWZEfEe9Qf64uRakVERERERkeChwOSQehgJ+WujMcGKaB3EVERCR1Wj94lxrnC8yzpmNYZ7N622xW97v2HRqPVz78BGsiIiIiImOEAoeDdOm1H3Ep1YkQERGR4dXZxMldG6nNX8uSMhcOqzmq+zIQ6iAYaKNlGGeDFhERERFJNc2qLCIiIiIiIiIiIjE0q7KIiIiIiIiIiIjEUOBQREREREREREREYihwKCIiIiIiIiIiIjEUOBQREREREREREZEYChyKiIiIiIiIiIhIDAUORUREREREREREJIYChyIiIiIiIiIiIhJDgUMRERERERERERGJocChiIiIiIiIiIiIxFDgUERERERERERERGIocCgiIiIiIiIiIiIxFDgUERERERERERGRGAocioiIiIiIiIiISAwFDkVERERERERERCSGAociIiIiIiIiIiISQ4FDERERERERERERiaHAoYiIiIiIiIiIiMRQ4FBERERERERERERiKHAoIiIiIiIiIiIiMRQ4FBERERERERERkRgKHIqIiIiIiIiIiEgMBQ5FREREREREREQkhgKHIiIiIiIiIiIiEkOBQxEREREREREREYmhwKGIiIiIiIiIiIjEUOBQREREREREREREYihwKCIiIiIiIiIiIjEUOBQREREREREREZEYChyKiIiIiIiIiIhIDAUORUREREREREREJIYChyIiIiIiIiIiIhJDgUMRERERERERERGJocChiIiIiIiIiIiIxFDgUERERERERERERGIocCgiIiIiIiIiIiIxFDgUERERERERERGRGAocioiIiIiIiIiISAwFDkVERERERERERCSGAociIiIiIiIiIiISIy3VCRh9nGw6sIt8M+A9zcbXLqY6QSIjIm16GS9uXkw2Pi4d2cel70KpTlJyObawf0cB5njL9KyLDD89gxPKuC9TZGQo3xgH9G4lE9O4LweVP08oQw4cOp47SEVhZvg//j+wseLdOGu52XpoK3mm8P+8VT+i8pOh7nGcmJzLk0vn80RuLt9Xb2TvRD8fkhwJ31cufly+CocJYCbLN6/lUtxnWmQcG4v581hMs4x+KlNEZKxQOSjDQeWgSC9Db3FoRP1tyeXpbDjZ2medefPJMUWtZnUCniHvclywFrGweDZmwJvqtMj4kfB9ZcYU/UwbBg6gJRlpGy1aDlO+4XDUB1G/gIvA2Myfx1Ka9QyOHSpTZLRQviEPMpbKQRk7VA4+mPLnCSVJYxxmkVNii/l0rtuOQQehrla5RswqIjIqVPPbD74hAMBdms+dHV8Fm4iIjCCVKSIiMpGpHJTxZcgtDrs2DPjvYLJkYXGWAm9HrVBMvj0d+BZf2wzssXFFERlF2mv2UV6T6lSIiMh4oDJFREQmMpWDMp4MucWhzRIZ39DrxQdgcbIhu2d5WkkRDgPwfsXX3eOAqsmhiIiIiIiIiIjIWJCEWZW/4ru2AuzWLBwlNviND4Al7hkAeBuugGsVAGaLDWjq3nJStpuFZUXk2O1YzRkYXXHFUAcBv4f6qlOcbmyL2ePCl06w3A6ButcpP+rh0TnPs2GpG5slPRyaDN2lzXOZ3b8aYCafSTYeX7qSJW4nFnN6d0gzFLxPaID45qDTPMBsQ/YVJzi+Is6CfmYhSnvUxfI1K8l3WjAb6d379bc10XjuTNxz1bP/u9S/sY1jLeBYsIWnSlzYLV3fcQdv3Vkqf3MtspGLrYe2hye1Cd3g/S2V1Hb2c0LSiqk4vCEcJPZdYOMrZ/pZcfBG7niTZyhpjrmf89ayeoUbhzUzcj/fp81TzckjZ2j5vu9xxnro+yoJM2El5XgH+fwONd9IpSGnOQn38+Sclaxb4SbHmtWz33gC19m7/TAt9Fyj/u+D+DMkhrcLp/V90/NUbCzCZoJQ4Bs+fHUfte0w9+cHWZ2biUEH/oZ32fHrOOmeZGPummdY6LZhib6vfA18WvUun7YEYzYZ0n2VxPyZSU6eXL+SJ3NtWEzpPZ+HOggG/fgbzrDnREOcLxykVJcpKZaKPAeG9hwlg8qUIRzvkOqEI/T8Ru8yheXCUPLYlB1vUnY+9Os7kvlkMspQvVvp3WogerdSORjPWHy3kpGXcOAwGPBwqeEmC8qmYcldjIPDtExeSY4N4Fu+vhICV7wty9i+ZxX2eIuMdMzWWSzY/GaKUAAAIABJREFUNov8ur2UH22KtxZgYe4/HmGdM6PP9plYc1dxfG9W3Nme03Ke4ZXN87GaYhZhmDIGaBeZjDQPzfR/eJXtJdOISbKRjsU2mwXbZjPH8w7b3qzu/0tMLja8voU51vTenxtZ2As3ccRqZvNrF4EGzjfcIa8wCww7+YUGtTXxp4/vblkKeOvODvXwYozs8Y6WNPd3P2dgzV1MRaWFf/rFYf7YX0VjhA3f8Q70/KbuGRy6JKV5CPfz3z23nxcLsxI+gkGzrGXXxiKsXUk0z2L1xmL8gWWsy420Vicdi+sZKubVsTcqf0mbvpZd5aXY+t5YRjoWewGrd7iYW/0Wu08kt1xIRFrO87xWXoQl3kIjHZN5KjabNd7SlElKHjvCUpPnpO45UpkSMczXNzXPb+rKhcTz2KFIXdmdyPVNWT455DJU71aDoXerrrTq3Wpil4Nj8d1KUmGIgUMnj0ZK4GAgwL1rTfjKpmEzO5nrgDaXCxsQ8vz/7d1/aFP3/vjx54dPU1gKnkIjGKERjJCU24qt3KbMikZmxVWKzo8/ptc5N3W36q3eTydXx3RcN9YN9V7n56MO575uTvfD3s0hdsM6blvWDdPLbcfaiwksgimYQlMwBXOhKXy+fyRN0zZpm+QkJ5mvBww6c87J+33O+3Xeeb/P+7zf3/PtKPzG9wjMhTGOM0LA68Xl7KWv9y73fQAGFtrXUGcvQQEU2z72O+o51zN1b8W2lx0APMbjuMHNFif/Ni7nuZ1rMOsBQzWHV16b0CilaDtvNK4KV8aP8Xa3cbP1LgMB0ButLKlYzjJbjIBNNs2u85w8fmu8wjRt4NDu0ApNntbXuRzrwUzAN+F/i549zuGaBaFjBAbpc9yivc3NEAYW2lex1rYYgx701l2cftlL44exVq7WU15/KPQEIeoY0edLZ17H/vIWzvVAf7MDT/U6TORjsW+A9thPu8ZGlhK8x4+tsSvARGmR32xIc3R59vV28mXL9wzordRt2ky5MR+UKl6pv0vD/3SrUq6mHAMTdY17KZ/FSlhq53fW8Quket/QRqppTrw85608yoFwZ0fQe5fPL12j435oiuYl/3Wcl2oXhe5z/u85eegDFSdsLqR8px0dj+j5+DxdZft4paIQnWEdO6yF4P8nn1z4mfKGXZTq8ykuq4B2R2jXOTUcPrIGkw4IPqTr0w+42B5ay66ofDMv7VyHRcnHaD/IYU99jLKRYLlSI46o5kBDuFEaHKSv8zY/OJwMBAAMLLQtothoZmFQpRE8WVOnZJZW9xyt4kjqlEzVKRmO3wkyXy+ocY/VLr/JSP76anefTKEOBaRtJW2rWKRtJfXgr69tJTIt6RGHE54cDV/nH+51mMyFWOw21prmAyPcd4QiLNKJr0Q/sW+haVesJxIe+q9084PzIH+pX4qeAhbarNATp0IOPqT97DGu9oUDoP8aTW5489QajEytUNfW28MV2yO6TjdysS8qcPo9uLo8KNZ4y4gnl+aBfs/4pvrx7wv6PfT3x85WRJ6dl9YvCt9E7vHJ8SY6hiZ+b0eLncMndmHRg1K9neeaj/HV8OQD5aPTQcBzm4Y3rkXl+RpNfiU8rLqA4jIT9Hhg+Dodzhp2WPPBZON3xde5Ojmtc7ZTHl70JtB7O/6Q+0Rold+sSDMQfMgPF05wuScQ2f9cjyfyWqi+bA0r8rrpGE2xXIVNOAZ6ZvXzROX8JhK/qt03MkqNNCdenldXl4RfT7jH58fPT4jPn/52gj/r3uHdmvmgVPBMJbi61MuxTpeP3/Ee59qd4HWytaIKxTAXAw+58+Z7dAyB3ruLUjPolfFxIL/duQGzDuAhd44e4Yuh8WMO9VznZO8D9r+3n3J9Ppba7dAeZ+RgAuUq5TiyLKY4XCF6vj7CmW+io8hDf7+6rzdCttQpGaThPUeTOJI6JXN1igbxG6JNvaDaPVaT/CYh2eur8X0y2TpU2lbStsqq/GZFmpF68FfZthJaSHpxlMnudN4jCChlL7LMCATddE3uzdbpsczyeKNddxmbYkUxxBw8CzyiKzowxgz9k/7QgICJFeqc7TxtDg2t9nWemlixqWB2aU7M+HD1EVzNp6JuIlGG2vhr873wjWkBpdWxXwjwd5+ZeKMf43rA2PMSnX78eWBHay+h7MyltGbqstjF6ysiTxddner8uNYyv9qnOVSexyu2MU4+dzwMJ9hEacxX/zNH7fzOOn5nIR0xmG6zTXNi5dlK8dip8/wc84fnULeH0GkuYE5ip3lmwXvcvDT1dYZA9/UJDdUJ8uysLCsIb3cj9najDm46BkN/G6xsmRPrQOqXq+mNf49iLlPxuOmh5j02U7S752gTR1KnxNgobXVKdsZvWuoF1e6x6ktf3Z3c9dX8PplMHToL0rYKkbZVjI2kbaUpaVuJXJBkx+HUgjraeZf7QUBfgB4I9P6djpSS5ic4U93jvp1YBWUzR56I3Xek+CQkplmkOUHl5rEZTjz0TPPKyGjnz4xNWaqYrDG38bnjVUAtNO16gd27XqDx/ainCD236QvfZAwVG1gyaa9nysIjSH3dqg1b1jS/SVItzdOU5+HeNHbyJCgT+U2e+jGYfrNLc2Ll2Rn5gYBpMStijC0vqjCFJ29+zPDkt29T5O++FaOT5RF9rdP8CLaWMC9ctXidjrib9fvGMqZgiBX6aSlX03B9QE/4/CkVh7h05jh7V2v8C3Qaat5jM0W7e442cSR1SmxpqVOyNn7TUC+odY9NizTV3UleX63vk0nVobM7srStkLZVPNK20o60rUQuSPJVZRNFk4ebj7bR5d6OxZpP6ClJ7B8lk79wyfMHqauwTlzBJ02KjWOJDuBPoW7LZJoNSnhyU7+PaUdIj3oY8INJmbp6dfKcfNs7SGX1XNCXsXol/NQe/qh4D5bwTdbbrd5qX9rmNzkZSXPUDTu0bzp+nM1ONlyjTMagWjKd5jtt96jbWYJOV8LWE/tg8txsNfNDG/p7+U7F15RDkviFYTJEVqEzb7vCpW0z7aD9D70xV9+5iHJkL+UGQFlE5bZDVG6DoO8Bfd23OPdZ/EZ6pmVD/CZKyzRrEUdSp8SRpjKpZfxmtF7IgnusFnV3MtdX6zKZVB0aRdpW05O2VRxPWr0v9eAEudi2EpmV8qrK0TocbrZaS9AFnPwQ9ZQkEAhHpmLABPwLoKiWoye2hCbqzBC9PrK2OMPJzHOtQZq1Fj2R70KbHdpDqzhZasvCK9Q9oKfFP90hhMoCPu/MG/1a5WIMapTm0fZb9KwvoVIBnbGKHceqwhMmRwk+4M5ZNRdGyaQRRtOxXkEyhjo5d7iTeeWbqau1UW6eiw7QGRZQXrOfSzXb6fu0iTN3nuDYzVG//jh6wusU0CZ+c6IuU/Eeq2V+n6T7s7StcoK0rbLPE10PPoExKJKTYsfhI4bcUf/b3kR9+9StQq89zJ3wb881jBXQEbyOa1xtduAaiq5xrJFJS9Xi9vjBVggoFJsh9q/8+F3sWqQ58jBEMVBMnCQD5JmYF/5ev88db6vERU3kq7Ou4rk5bXw1XMEzZaFVsoPOv6s6ab7m+U1CRtKs6CIlM6jxeHEtr5EWMZgqrdJseXlP6Jj+X+jxKZSa5kaeIAYDg3h6b/PVx624/q3u9yYtECQI6BjB9fFuTsaoS7LdQM91LvaERgkUldtZW7OBZdZCdBRSuu0oez0NXNS4d0nusYnRIo6kTokjzWUyk/GrSb2g4T02G+ruRK5vtpTJREnbanY0v77StpqR1INxSNtKaCi5OQ4t80np7YW8WkojK0Z9xLH32yYV0PQYDQTCgVlIkTl2Jfab3++JHRhpSLNumop0jMsTnqQaE+Ur428/Z30VoeSNMOBUd7Wj8Yl8F1Beq0DlcizhG8zYytlqyYb8JioTaV5isxJ6EPQA1wxvTc2mXKVCs2uk0X0jJZql2U6dLfQD1N3axLm3GqnfG5p7ZveuF6jf30jT+7Po7DDMj7mgVV7pKixq/4Do9oQn1s5nnlXbOfUg9Tga6mnj6rsN/OHCP8P3z0Is1enNV67UKYnSLs0qxVGCpE6JLZNlMq3xq1W9oNU9Ngvr7pmubzaWyRlJ2wrInXpQ2lbTk3owNmlbCS2ptjjK7CgUFQPm+ZF5VuLNtvn071+kXO2GaefPkdkLzNWbp3y88Pk3ORBuJEyhVprdDxgbfG601cywMfS3dYcnQc3Hsn4PS56KsVFRLftrFoT+DvRyR+2nyD3vRSaXNpatY629LHSjDfRyZ5oJXJORFflNUNrTXFRLXXglxLhPIRMsV6nQ7Bppdd9IhVZptiyKTIKfjEBwJPSHYmZJ0cTPnirfx1uNVah+moev0RO+QSu2fewt1WCClTTE0ajTFzlmWn535mKdkiDN0pxiHCVL6pQYG2lUJtMSv1rVC1rdY7O47o53fbO5TMYlbSsgh+pBaVtNS+rBGBtJ20poTNU5DmemQ68HXL8wEFyOogN9xYscfUHPt21uhgxmnrYtp7JiEUo6fs+MtvCjcwNmaz4Y13D2zzo++fTvDOit1G3aQLmxAHiI1zsfo3HSvmqlebSFPs8WTCbQmbZw9u1FtH99m394o3r3Az76x3r7+6/xucPGH22FoFRx4JSZPsct2tvcDGFgoX0NdfaScNCP4Go+z09qnKtJvnQ8YFntAjDaqTPkA+Dvva3+d2VJfhOiVpoNi3mu0s2PTjcDw6Gb95LVB9m4aSlGHRD8hZuX2mKnIdFyBeTNMWKcUGgN47+bdYUUF5vGPwr66R/wq5vfRKUYg0nnV8M0J/+9D/CxHAUwbzrNYUMn7gDAI/p7nQwEAIL098ee06XH7WWHdQEwn9XHXmXo4+u4fAYs6zdTVzGfdE2DcrP5Lssaq1AopLLxLAudvfQ47vKjO/TrushcRWlZGRarEX3vKVVW7psgiTiyvPwOe81B7jt78Xp+4R/usaV1DSysruJpW1VkxUlXWxqe4OdQnZJ795zU4ihpUqdkrExqEr9a1QtodI/VsO5O+vrm4m9RaVvlRD0YTdpW05B6UNpWIusk13GopDpgt43PW1fxWu0CdBRgtu/igH3SJv57uIMlmFVe0a3jwnUqm36HRQ960ypeObIq6tNBfjh9jIH1H7IxjWm+2fw9lY3LMQB641KerV/Ks9EbuL9g91stkf/91/sNfGm4wEZzAejnUmrfRenk7+Yx7uYTnFT5KdWY4a/v4q5dgJn88PxOg/S1pGcYezbkN1GqpFkp4dn6kollYUzgIe0Xmvh2KH4aEi1X5m1HORzvKbBpDW+cWDP+//67nDx0PjLnhjbXKLUYTCW/WqU5ea181bqKQzXz0VGIxb5u/JXj2olbBn33uHPpPb5yjf/wGf7bNX6ofo1lCqAsZmvD4olJ7r3Ml4ENvBTvfCZptO88bzcbeGPTIvQUYLBWsdpaxeoY2/rTFPqJxhE6PYqxkHLjAsohdvzyGE/re2mb3zBX6pTcu+ekFkepkDolQ/W+JvGr3W9gbe6xGtbdKVzf3PstKm2rXKgHo0nbanpSD0rbSmSX5F5VNiiRESezKrbuqFcBwvr/dow/X/oet28k6hgjBHy/0PXp2+w+1MRP6eiUHm7l5Ktv841zcHxEbvAx3t7b/O/RI1zui58jtdI82vcBrx+9yA/Oh7P+YfbtW/W8fvY2fd5HE0YSB4ODeLpv879HG2j6Jo0rQo228KNzZPz/PQ4uT7tefGo0z28SUk/zyKR4GiHoe0BP6xl27z/C1WnKJiRXrlKhxTXS7L6RAq3S7PP6x78v+JhA4DGBwOQyBjpDCc8eeYddEyYzdHL56Nt80/uQQGSHkVDnyNk/0fiXNqb5nZWSoW9O8N9Hz3Cn+wG+wMiEz4KBR3idd/n89B9o/DA9P64TjSNvdzd9nof4A4+nnNtgYDwWTnyWvonGc7JOSYIWaU4tjlIjdUpIOq+vVvGrZV2mxT1Wq/ymen1z7T4pbascqwelbTUjqQdDpG0lssF/PPWf/J/WiRC5YcWfLrHDmg+M4Pq4PmueSOW6ta9fYaOZqSOZhEiWZQ+nj4ResQy6v6A+RrnKm2Nm2bZ9bLXNRQcEnZepfzfO6xpCPIlyNI6kThFCiNwgbav0kHpQCPUluTiKeNLkle6jzhqafwNfp1RsQmSxFett4XlQHtJ+NvYPptFhNx3v38AVDmWdLl0zFwqRmySOhBBCpIu0rYQQuUQ6DsXMnqrgpd1jq6g+ouvjaxonSAgxHb0u/EOUIMPTTblWXBJZNTbg902zoRBPHokjIYQQaSFtKyFEjsnwqsoiV8wrNqFDzzzbGursSzGGB1H4HR9wcYb5IIQQ2urzDLLRPBdYQN2JgwSbb/Bdjyfy+VNFVkpr1rHRvpjQXMeDdH3t0Ci1QmQniSMhhBBqkbaVECKXScehmMqyj8NHxp6CjRnB23meYx/2apQoIcRs9X/6Ee3Wg6w05qMzLmVrw1K2xt16kJ5LTVxN44TcQuQiiSMhhBCqkLaVECLHScehmF5wBJ+nm++aP+I713TvagkhssZoL1df201H5XbqaiuwGJWo1y6B4AgBvxdX9w3OfdatXTqFyGYSR0IIIdQmbSshRA6SVZWFEEIIIYQQQgghhBBTyOIoQgghhBBCCCGEEEKIKaTjUAghhBBCCCGEEEIIMYV0HAohhBBCCCGEEEIIIaaQjkMhhBBCCCGEEEIIIcQU0nEohBBCCCGEEEIIIYSYQjoOhRBCCCGEEEIIIYQQU+Sl46BLnn+VjTYrBiUf3dg/Bh/j97TR+Nb1dHylECKrWNl75jUqFcD9Bbvfaom7Zd7CWv5Yv45iPHx74RTf3g9mLplZbu3rV9hoZsZzKH4dJBaEEEIIIYQQ2UbdEYdF1ew/c4UDNYsxRncaAugKUAwGLKp+oRAit1XwSuMWLIYC9IYSNtZv1zpBQi1zynjmhYMcP3mJw89qnZgMSDm/EgtCCCGEEEKI7KPqiMMVu1+kXAn9HfD+k/avb/MPbwAwsNC2iGL9I1xqfqEQIscp6KOfMOh0WEDuE78GxuWstS9FAdxapyUTUs6vxIIQQgghhBAi+6jXcThnMyus+QAEPV/Q8Eb0a3Ue+vu7VfsqIcSvRRv/79OlvLZzMQqP6Pv6hnSUiCeUxIIQQgghhBAi+6jXcWg1Ygj/6emUubiEELMz1H6KxnatUyGE9iQWhBBCCCGEENlGvTkODQp6AB4x5FHtqEIIIYQQQgghhBBCCA2kZVXlhBIwr4KN2zZTaTWg6EKvOhMcweftpefr63zR4526k2Ufp49UofCIrncauOgCy+p9PFdTgdkwdoxB3I4bNH3YqWp6nyq2sbZ2OaVmM0alAN3YnFTBEfw+J13N12KmeWx1VL/jbRrfdzJv2R52rbdhMoQXkQk+wuu8zbG/RI/WrGD/uUOU64HgPT7Z10THaJyE5dk5fH4XFh3gucXuN1RevfopK8/s3MAKqxmjEj7HjBD0eenrvsG5z2K/ip7x66tG2XjKxIptL7LWZsIQnWZPN981f8R3rsAM52kzz5SZMOjzx/89OEIg4MPXfZ0TVyaeqyllo3w7WzfZsBgLw2XjMV5nG1cvXMf179hfm8x5Tq5MTj1Xv12/mbpJq6gHA48J6uLsE7lGMcywerAaaZ5Tupkdm2yUGueOx28s/rucPHRevddFkygbUw5h2cwrO+1YjAWR/Hq6r3Pi/fj3uYzF4DTX1bzpCpc2xfggDatFqxILs4lBNfKbQiyomt+kYj/18iyEEEIIIYTIfkl3HM6ZZ0KJbnRH/Y/OYKI4Rt9K0O9lYDgY+f+Fz7/JoZoF4ZGKUXT5GExLWd2wlGXOyzS82xY/IfoKdr29j2XG/In/rpuLuXovF4wK9ao1TGs5dGIL5lgf6fJRjItZ3bCYSsdJGt/vjXMMAyv+dIEd1oJJ+xdiLNvCpZNz2X34o/A/dnOze5Dy6rmgM1NZraOjPTjliAB5NctDnYaA23EjibzFV7Ty1fC8W5PlozMsoLzmEEf9L9D0zcRPNb++Seybt3A7rzWuwTQ50bp8DOYqth6pYEXbexy7MvX65pXu4a3G5ZFX9ifvr1fmYzIZ4+c1btkowFi2jsNNBv766nn+NanzOPXznEiZHJdX+iJv1K/COOWLQacvYLo+udQll+bfvHyaP1bPTWvKYkm9bMRJu64Qk20vFwyx40DzGMyw9MXC9DGoFe1iP/XyLIQQQgghhMgNSXYcWtl65DUqYw6TKKR891uUx/hkbHQDQNGzxzlcsyDUuRAYpM9xi/Y2N0MYWGhfxVrbYgx60Ft3cfplL40fOmMcUU95/aHQqKGoY/zbuJzndq7BrAedeR37y1s415NcTqcaIeD14nL20td7l/s+AAML7Wuos5egAIptH/sd9TG/U7HtZQcAj/E4bnCzxTkhvRiqObzyGifDHYT9zQ481eswkY/FvgHaY48krLMtCv0RvMePrbE7F5ORt/JV3ti5ONIw9bvv8kPr30OrZRvM/LZsKeW2xVP20/76JrHvnBoOH1mDSQcEH9L16QdcbA+tj1pUvpmXdq7DouRjtB/ksKc+co1CqjnQEG5IBwfp67zNDw4nAwGIrCpuNLMwGH+0YnTZ8PV28mXL9wzordRt2ky5MR+UKl6pv0vD/4yP4lHjPCdaJkNfvJ03GldhDO/n7W7jZutdBgKgN1pZUrGcZbYYHRoArvOcPH4rqmPRRF3j3siK7LORTJrzVh7lQLjjLei9y+eXrtFx3w/Akv86zku1i0Lp9X/PyUMfqLgwReplA/MW/mgO5dfbfYMvv3YyZKjid7vXhcvyBg6vbJ2Q38zH4KTratrAod2hVYY9ra9zOdagyIAv4bMZj9qxMGMMTi7HyeQ3hVjQLPbVKM9CCCGEEEKInKHNq8p5dl5avyjc4LnHJ8eb6Bga+9BD/5VuOlrsHD6xC4selOrtPNd8jK+GJx8oH50OAp7bNLxxbfyf+6/R5FfCr4AVUFxmgh41Jl5soWlXrJE1oTT/4DzIX+qXoqeAhTYr9MRqiAPBh7SfPcbVvuB4et3w5qk1GMmnuKwC2h2hz4av0+GsYYc1H0w2fld8nav9k443ZzvlptCfgd7b8V9nTlSenT9uWxyZu7Lr7BEu9kQ1Bvs99Pe08dWVqftpf30T3/e3Ozdg1gE85M7RI3wxNL7bUM91TvY+YP97+ynX52Op3Q7tUSNxLIspDrf+PV8f4cw30Q3tBFYVDz7khwsnuBw5zx7O9XjYeybUUa8vW8OKvO7QNVbtPJNYmQTW1tvDnYaP6DrdyMW+qPz2e3B1eVCs8R4uwEB/9PXSk1RXd4JpXl1dEn4N8x6fHz8/IU5++tsJ/qx7h3dr5oNSwTOV4OpKJlExqFU2GKTr7LHxGOz30HRcFzu/GsXghOuqH89n0O+hf/J9S00qx8JsY1CN/CYVCxrGvnrlWQghhBBCCJELklwcxcnFQy+we1fUf82/hD97RNc7kz4L/zc22nD8tdoRXM2noho8UYba+GvzvXAjagGl1bFffPR3n5nYoB3jesDY2A6dPua4J9WNdt1lbPo7xRDzhWZCHXBRjbQxQ/+kPzT4Cb0y8QWwjtZeQoedS2mNacoRi9dXREZ+uTrVa7TNWb8q8vqzr+3UxE7DaWTL9U1o3zw7K8tCr+sFum9M6DSMGHVw0zEY+ttgZcuc6A/Hr6diLouZnpmFysblKefZyeeOh+EEmyitCCdZtfOcYJmcs52nzaHXVn2dpyZ2GmZMonFkpTiy7PvPMTvXh7o9hHYtYE7MdzCTpVLZOH1kagzGyW+2xGCmqB0Ls41BrWgW+4A65VkIIYQQQgiRK9RbVTkB5eaxuY889MSZsw9gtPNnxqZ1V0zWmNv43PE6ylpomtRhmX5+gjP1obhvJ97R0nObvnAjzlCxgSWTPn6mLDzvma9bxVeyo6/TAzo+nf2IzWy5vgntay1hXrhd7XU64uwH/T7/WIoxRCfZ9QE94V4UpeIQl84cZ+/qBHsXpikbw71TO7VUO8+JlkmbOTLa8L5DoyXUE44jZ6QjBNNiVsQYa11UYQrP4/mYYfXeoE172YglW2IwUzIRC7FiUCuaxT6oU56FEEIIIYQQOUOTV5UNSngidr+Pad/mGvUw4AeTAorBBMRbcCSzljx/kLoK68RVldPKybe9g1RWzwV9GatXwk/t4Y+K92AJN2K93equpDxvbPVkv5f7Cbz+nJPX12SILP5i3naFS9tm2mFq58HVdy6iHNlLuQFQFlG57RCV2yDoe0Bf9y3OfRa/Q3JGUW370LnyaHaei41jZyqAX6N+w2TcabtH3c4SdLoStp7YB5PnOKyZH9rQ38t3ar2mHJbWshFDTsZgCjKS3xgxqBWtr2+my7MQQgghhBBCO5qMOMxZRbUcPXeFAzVLMRky1WkY0t/sCDdT81los0f+3VJbFl7Z8gE9Lf6Y+ybHisZvH2a5EUYnv8041Mm5wy/w+tlbdLkHI/0MoZWn93Pp8lkOrU59pdGAzzvzRmmk148V/CDDObT+wWj7LXrCIaIzVrHj2P9w6fIVLl2+woGxhVGCD7hzVs2FUcIyVDZEZmgdg5qT8iyEEEIIIcQTQ5MRh5GBG4qBYojfSM8zMS88uMnvc6c9XTN5rmFLaKVJRvA6rnG12YFrKLrnxBqZQF91UYuk6KyreG5OG18NV/BMWSEAQeffY098nzQnAz5AAfQK85jmOk2Sk9c3ECQI6BjB9fFuTrbPuEdcAz3XudgTGv1ZVG5nbc0GllkL0VFI6baj7PU0cDHRnilFF1l5NRh+H16r8+z2+MFWCCgUm+N9cQZ71WfJ8vKeUGz6f6HHp1Bqmhvp/A8GBvH03uarj1tx/Tt9aUhL2YghJ2MwBRnJb4wY1Eq2XN9MlWchhBBCCCGEdjQZcejyhBeYwET5yvgdDHPWVxFaCmSEAafUk34WAAAH5ElEQVS2c2iRV0tpZOXijzj2ftukTsP0G18kZQHltQpULscS7si87+hU/fvu+x6F/tCZqZzmOk2Wk9e32xNe6CGfedbYc70lY6injavvNvCHC/8MX7tCLNWJH3+JzRpe3foBrvBbgFqd59FAINxxUUiROfb3/ub3e9LTgZ40O3W2UCe7u7WJc281Ur93fOGm+v2NNL2f3k7DydQqG7FkWwzq0tyRnIn8xorBeH4N+U1UMuV53uqDvHnmAqfffpW1C7PvYYMQQgghhBBCo47D/rbu8ITt+VjW72HJUzE2Kqplf82C0N+BXu6kMAJMFeb5kTnw4q2A8vTvX6Q8nZ0lPe9FJqU3lq1jrb0s1JAN9HJnmgnyk+Vq6Y10plm2HWVt0ez2y8nrO3yNnvCUZYptH3tL1W3Ejjp9RF4kT/TQRbXUhVd8jh5Zqtl57vw5MrubuXrzlI8XPv8mB8KddFnDsiiy+E22SalsxJEVMeh+EMmX0Vaj8sEnSnt+48TgBL+m/KZg1uW5/CCvbVuKUSlAMS5m45FXYy5aJIQQQgghhNCWNj/T+6/xucPGH22FoFRx4JSZPsct2tvcDGFgoX0NdfaScEfdCK7m8/ykSUKjuH5hILgcRQf6ihc5+oKeb9vcDBnMPG1bTmXFIpQMdEx86XjAstoFYLRTZwgtXuLvvZ2e89P/Ad86beyw5oNuERtPnWWJw8GPju+57wP0Riy2Kp6uWEqw9QWavhnbLwevL3Cz+S7LGqtQKKSy8SwLnb30OO7yozvUfVpkrqK0rAyL1Yi+99SElWQtL7/DXnOQ+85evJ5f+Id7bFleAwurq3jaVhVZidjVFmfkj2Exz1W6+dHpZmA41BG8ZPVBNm5ailEHBH/h5qW28e21Os+jLfzo3IDZmg/GNZz9s45PPv07A3ordZs2UG4sAB7i9c7HGGOas7w5RowTgsUw3r+gK6S42DT+UdBP/4AKc3e6HuBjOQpg3nSaw4ZO3AGAR/T3OhkIAATp71d/7jpVykaisiEGR1vo82zBZAKdaQtn315E+9e3+Yc3aqR2wEe/GiO31cpvojGYYn6TjgUNr69a5dliMzNhGl2dEYsZOuTVZiGEEEIIIbKKZs/3//V+A18aLrDRXAD6uZTad1Fqn7zVY9zNJziZhtF0iWvj89ZVvFa7AB0FmO27ODA5vf57uIMlmA0xD6CK4a/v4q5dgJn88Pxsg/S1pO8VtI53d6P70wW2WguAQsy2NZhta6ZsN3n2rNy7vjDad563mw28sWkRegowWKtYba1idYxt/ZOTrNOjGAspNy6gHHg25jc8xtP6Xvw5v5QSnq0vib1v4CHtF5r4dmjiP2t1njsuXKey6XdY9KA3reKVI6uiPh3kh9PHGFj/IRtj7GvedpTD8UYkmtbwxomo8uW/y8lD51VYrKSVr1pXcahmPjoKsdjXYRn7qHbilkHfPe5ceo+vXCpNRaBG2UhCNsTgzebvqWxcjgHQG5fybP3Sifl3f8Hut1pU+S5V8ptEDEZLNL+pxIJm11el8ux2egnaCqMGJfp50tecEUIIIYQQIhtp+mLQt2/V01O+na2bbFgMheMLFQQH8fZ2c7P5Oj8NZEenEkD/347xZ+8edq23YTLkhxs8IwR8Hvpar3PxjpO1r19Ja8fhhNFeAB4Hl/vT+H3Ad+/W01Vaw9b1ayg1zSWyqC4j+L1uXG23uHhn6n65dn0Bhr45wX93V7Bx0wbKrUYM+vzIZ8HAI3weJx0t1/iub+IoOG93N31GK8UGBb2+YMIbesHAIF7nbPI7QpD8qH1HCPq89HXf4Nxn3XH30uQ8D7dy8lUPzzXsYbU5vMhI8DFeZydffhr6vrXr1f3KVPm8foLMD53f4GMCQQAdOn3+hOulM5Tw7JF3UN5p4LIKHXnqlI3kaB2Do30f8PrRe+zYuY5S8/y0j8pOPb/JxeCY3Mtv4tQqz6PtTXxecZatZYXogo/o+/Q9lRf4EkIIIYQQQqjhP576T/5P60SIxKz406XQ68OM4Pq4PmtG7InkrH39ChvNqDr6Skxi2cPpI6FXlYPuL6iPcZ7z5phZtm0fW21z0QFB52Xq343zWqr4VZEYFEIIIYQQQojYNFkcRSQvr3QfdWOjDX2d0mkoxCysWG8Lz/f2kPazsTuGRofddLx/A1c4pHQ6fczthBBCCCGEEEKIJ4V0HOaSpyp4aXdVuAPkEV0fX9M4QULkBr1u7JXzIMPTTV1YXBJZfTng902zoRBCCCGEEEII8eun6RyHYmbzik3o0DPPtoY6+1KM4UFQfscHXOyT0YZCzEafZ5CN5rnAAupOHCTYfIPvejyRz58qslJas46N9sWEpigdpOtrh0apFUIIIYQQQgghsoN0HGYzyz4OHxkbYThmBG/neY592KtRooTIPf2ffkS79SArjfnojEvZ2rCUrXG3HqTnUhNX07zokBBCCCGEEEIIke2k4zBXBEfwebr5rvkjvnNN966lEGKK0V6uvrabjsrt1NVWYDEqUa8vA8ERAn4vrlmuniuEEEIIIYQQQjwJZFVlIYQQQgghhBBCCCHEFDLiUAghhBBCiF+pS5evJL3v7l0vqJgSIYQQQuQiWVVZCCGEEEIIIYQQQggxhXQcCiGEEEIIIYQQQgghppCOQyGEEEIIIYQQQgghxBTScSiEEEIIIYQQQgghhJji/wM5kkqAxuOAGAAAAABJRU5ErkJggg==;" vertex="1" parent="WIyWlLk6GJQsqaUBKTNV-1">
          <mxGeometry x="1210" y="451.50000000000006" width="1020" height="495.55" as="geometry" />
        </mxCell>
        <mxCell id="OdRXh-BIDO6TWCTbir-k-66" style="edgeStyle=orthogonalEdgeStyle;rounded=0;orthogonalLoop=1;jettySize=auto;html=1;exitX=0.5;exitY=1;exitDx=0;exitDy=0;exitPerimeter=0;entryX=0.5;entryY=0;entryDx=0;entryDy=0;entryPerimeter=0;fontFamily=Helvetica;fontSize=12;fontColor=default;" edge="1" parent="WIyWlLk6GJQsqaUBKTNV-1" source="OdRXh-BIDO6TWCTbir-k-65" target="OdRXh-BIDO6TWCTbir-k-44">
          <mxGeometry relative="1" as="geometry" />
        </mxCell>
        <mxCell id="OdRXh-BIDO6TWCTbir-k-65" value="&lt;font color=&quot;#ff3333&quot; style=&quot;font-size: 17px;&quot;&gt;重要函数解释&lt;/font&gt;" style="shape=note;whiteSpace=wrap;html=1;backgroundOutline=1;darkOpacity=0.05;" vertex="1" parent="WIyWlLk6GJQsqaUBKTNV-1">
          <mxGeometry x="916.81" y="1937" width="310" height="100" as="geometry" />
        </mxCell>
        <mxCell id="OdRXh-BIDO6TWCTbir-k-70" style="edgeStyle=orthogonalEdgeStyle;rounded=0;orthogonalLoop=1;jettySize=auto;html=1;exitX=1;exitY=0.5;exitDx=0;exitDy=0;entryX=0;entryY=0.5;entryDx=0;entryDy=0;entryPerimeter=0;fontFamily=Helvetica;fontSize=12;fontColor=default;" edge="1" parent="WIyWlLk6GJQsqaUBKTNV-1" source="OdRXh-BIDO6TWCTbir-k-67" target="OdRXh-BIDO6TWCTbir-k-69">
          <mxGeometry relative="1" as="geometry" />
        </mxCell>
        <mxCell id="OdRXh-BIDO6TWCTbir-k-76" value="" style="edgeStyle=orthogonalEdgeStyle;rounded=0;orthogonalLoop=1;jettySize=auto;html=1;fontFamily=Helvetica;fontSize=12;fontColor=default;" edge="1" parent="WIyWlLk6GJQsqaUBKTNV-1" source="OdRXh-BIDO6TWCTbir-k-67" target="OdRXh-BIDO6TWCTbir-k-75">
          <mxGeometry relative="1" as="geometry" />
        </mxCell>
        <mxCell id="OdRXh-BIDO6TWCTbir-k-67" value="&lt;div style=&quot;background-color: rgb(30, 30, 30); font-family: Consolas, &amp;quot;Courier New&amp;quot;, monospace; font-size: 17px; line-height: 23px; color: rgb(212, 212, 212);&quot;&gt;&lt;div style=&quot;line-height: 23px;&quot;&gt;&lt;div style=&quot;line-height: 23px;&quot;&gt;&lt;div&gt;/* argp interface */&lt;/div&gt;&lt;div&gt;&lt;span style=&quot;color: #569cd6;&quot;&gt;static&lt;/span&gt; &lt;span style=&quot;color: #569cd6;&quot;&gt;struct&lt;/span&gt; &lt;span style=&quot;color: #4ec9b0;&quot;&gt;argp&lt;/span&gt; &lt;span style=&quot;color: #9cdcfe;&quot;&gt;argp&lt;/span&gt; = {options, parse_opt, &lt;span style=&quot;color: #569cd6;&quot;&gt;NULL&lt;/span&gt;, doc, &lt;span style=&quot;color: #b5cea8;&quot;&gt;0&lt;/span&gt;, &lt;span style=&quot;color: #b5cea8;&quot;&gt;0&lt;/span&gt;, &lt;span style=&quot;color: #b5cea8;&quot;&gt;0&lt;/span&gt;};&lt;/div&gt;&lt;/div&gt;&lt;/div&gt;&lt;/div&gt;" style="whiteSpace=wrap;html=1;align=left;rounded=1;glass=0;strokeWidth=1;shadow=0;" vertex="1" parent="WIyWlLk6GJQsqaUBKTNV-1">
          <mxGeometry x="124.94999999999993" y="2847.5" width="685.75" height="134" as="geometry" />
        </mxCell>
        <mxCell id="OdRXh-BIDO6TWCTbir-k-72" value="" style="edgeStyle=orthogonalEdgeStyle;rounded=0;orthogonalLoop=1;jettySize=auto;html=1;fontFamily=Helvetica;fontSize=12;fontColor=default;" edge="1" parent="WIyWlLk6GJQsqaUBKTNV-1" source="OdRXh-BIDO6TWCTbir-k-69" target="OdRXh-BIDO6TWCTbir-k-71">
          <mxGeometry relative="1" as="geometry" />
        </mxCell>
        <mxCell id="OdRXh-BIDO6TWCTbir-k-69" value="&lt;div style=&quot;text-align: left; font-size: 15px;&quot;&gt;&lt;div style=&quot;color: rgb(212, 212, 212); background-color: rgb(30, 30, 30); font-family: Consolas, &amp;quot;Courier New&amp;quot;, monospace; line-height: 23px;&quot;&gt;构造一个结构体&lt;/div&gt;&lt;div style=&quot;color: rgb(212, 212, 212); background-color: rgb(30, 30, 30); font-family: Consolas, &amp;quot;Courier New&amp;quot;, monospace; line-height: 23px;&quot;&gt;argp 类型是库中的&lt;/div&gt;&lt;div style=&quot;color: rgb(212, 212, 212); background-color: rgb(30, 30, 30); font-family: Consolas, &amp;quot;Courier New&amp;quot;, monospace; line-height: 23px;&quot;&gt;options 是之前定义的结构体数组&lt;/div&gt;&lt;div style=&quot;color: rgb(212, 212, 212); background-color: rgb(30, 30, 30); font-family: Consolas, &amp;quot;Courier New&amp;quot;, monospace; line-height: 23px;&quot;&gt;parse_opt 是之前定义的回调函数&lt;/div&gt;&lt;div style=&quot;color: rgb(212, 212, 212); background-color: rgb(30, 30, 30); font-family: Consolas, &amp;quot;Courier New&amp;quot;, monospace; line-height: 23px;&quot;&gt;doc 是之前定义的字符串数组&lt;/div&gt;&lt;/div&gt;" style="shape=note;whiteSpace=wrap;html=1;backgroundOutline=1;darkOpacity=0.05;" vertex="1" parent="WIyWlLk6GJQsqaUBKTNV-1">
          <mxGeometry x="866.81" y="2844.5" width="450" height="140" as="geometry" />
        </mxCell>
        <mxCell id="OdRXh-BIDO6TWCTbir-k-74" value="" style="edgeStyle=orthogonalEdgeStyle;rounded=0;orthogonalLoop=1;jettySize=auto;html=1;fontFamily=Helvetica;fontSize=12;fontColor=default;" edge="1" parent="WIyWlLk6GJQsqaUBKTNV-1" source="OdRXh-BIDO6TWCTbir-k-71" target="OdRXh-BIDO6TWCTbir-k-73">
          <mxGeometry relative="1" as="geometry" />
        </mxCell>
        <mxCell id="OdRXh-BIDO6TWCTbir-k-71" value="&lt;div style=&quot;text-align: left;&quot;&gt;&lt;div style=&quot;background-color: rgb(30, 30, 30); line-height: 23px;&quot;&gt;&lt;p style=&quot;color: rgb(241, 242, 242); font-family: -apple-system, system-ui, BlinkMacSystemFont, &amp;quot;Segoe UI&amp;quot;, Roboto, Oxygen-Sans, Ubuntu, Cantarell, &amp;quot;Helvetica Neue&amp;quot;, sans-serif; font-size: 18px; padding: 0px; margin: 0px; background-color: rgb(38, 38, 38);&quot;&gt;这个&amp;nbsp;&lt;code style=&quot;background-color: transparent; padding: 0px; font-family: Consolas, monaco, monospace;&quot;&gt;argp&lt;/code&gt;&amp;nbsp;结构体是 GNU C 库中的一个结构体，用于定义命令行选项和参数的规则，以及解析命令行参数的方式。&lt;/p&gt;&lt;p style=&quot;color: rgb(241, 242, 242); font-family: -apple-system, system-ui, BlinkMacSystemFont, &amp;quot;Segoe UI&amp;quot;, Roboto, Oxygen-Sans, Ubuntu, Cantarell, &amp;quot;Helvetica Neue&amp;quot;, sans-serif; font-size: 18px; padding: 0px; margin: 0px; background-color: rgb(38, 38, 38);&quot;&gt;&lt;code style=&quot;background-color: transparent; padding: 0px; font-family: Consolas, monaco, monospace;&quot;&gt;argp&lt;/code&gt;&amp;nbsp;结构体的定义如下：&lt;/p&gt;&lt;p style=&quot;padding: 0px; margin: 0px; background-color: rgb(38, 38, 38);&quot;&gt;&lt;font style=&quot;font-size: 16px;&quot; face=&quot;-apple-system, system-ui, BlinkMacSystemFont, Segoe UI, Roboto, Oxygen-Sans, Ubuntu, Cantarell, Helvetica Neue, sans-serif&quot; color=&quot;#f1f2f2&quot;&gt;struct&lt;/font&gt;&lt;font color=&quot;#ff6666&quot; style=&quot;font-size: 16px;&quot; face=&quot;-apple-system, system-ui, BlinkMacSystemFont, Segoe UI, Roboto, Oxygen-Sans, Ubuntu, Cantarell, Helvetica Neue, sans-serif&quot;&gt; argp&lt;/font&gt;&lt;font style=&quot;font-size: 16px;&quot; face=&quot;-apple-system, system-ui, BlinkMacSystemFont, Segoe UI, Roboto, Oxygen-Sans, Ubuntu, Cantarell, Helvetica Neue, sans-serif&quot; color=&quot;#f1f2f2&quot;&gt; {&lt;/font&gt;&lt;/p&gt;&lt;p style=&quot;padding: 0px; margin: 0px; background-color: rgb(38, 38, 38);&quot;&gt;&lt;font face=&quot;-apple-system, system-ui, BlinkMacSystemFont, Segoe UI, Roboto, Oxygen-Sans, Ubuntu, Cantarell, Helvetica Neue, sans-serif&quot;&gt;&lt;span style=&quot;font-size: 18px;&quot;&gt;&lt;font color=&quot;#f1f2f2&quot;&gt;&amp;nbsp; &amp;nbsp; &lt;/font&gt;&lt;font color=&quot;#00cccc&quot;&gt;const struct argp_option *options;&amp;nbsp; &amp;nbsp;/* 定义命令行选项和参数的规则 */&lt;/font&gt;&lt;/span&gt;&lt;/font&gt;&lt;/p&gt;&lt;p style=&quot;padding: 0px; margin: 0px; background-color: rgb(38, 38, 38);&quot;&gt;&lt;font color=&quot;#00cccc&quot; face=&quot;-apple-system, system-ui, BlinkMacSystemFont, Segoe UI, Roboto, Oxygen-Sans, Ubuntu, Cantarell, Helvetica Neue, sans-serif&quot;&gt;&lt;span style=&quot;font-size: 18px;&quot;&gt;&amp;nbsp; &amp;nbsp; argp_parser_t parser;&amp;nbsp; &amp;nbsp; &amp;nbsp; &amp;nbsp; &amp;nbsp; &amp;nbsp; &amp;nbsp; &amp;nbsp; /* 解析命令行选项和参数的回调函数 */&lt;/span&gt;&lt;/font&gt;&lt;/p&gt;&lt;p style=&quot;padding: 0px; margin: 0px; background-color: rgb(38, 38, 38);&quot;&gt;&lt;font color=&quot;#00cccc&quot; face=&quot;-apple-system, system-ui, BlinkMacSystemFont, Segoe UI, Roboto, Oxygen-Sans, Ubuntu, Cantarell, Helvetica Neue, sans-serif&quot;&gt;&lt;span style=&quot;font-size: 18px;&quot;&gt;&amp;nbsp; &amp;nbsp; const char *args_doc;&amp;nbsp; &amp;nbsp; &amp;nbsp; &amp;nbsp; &amp;nbsp; &amp;nbsp; &amp;nbsp; &amp;nbsp; /* 命令行参数的文本描述 */&lt;/span&gt;&lt;/font&gt;&lt;/p&gt;&lt;p style=&quot;padding: 0px; margin: 0px; background-color: rgb(38, 38, 38);&quot;&gt;&lt;font color=&quot;#00cccc&quot; face=&quot;-apple-system, system-ui, BlinkMacSystemFont, Segoe UI, Roboto, Oxygen-Sans, Ubuntu, Cantarell, Helvetica Neue, sans-serif&quot;&gt;&lt;span style=&quot;font-size: 18px;&quot;&gt;&amp;nbsp; &amp;nbsp; const char *doc;&amp;nbsp; &amp;nbsp; &amp;nbsp; &amp;nbsp; &amp;nbsp; &amp;nbsp; &amp;nbsp; &amp;nbsp; &amp;nbsp; &amp;nbsp; &amp;nbsp;/* 命令行工具的文本描述 */&lt;/span&gt;&lt;/font&gt;&lt;/p&gt;&lt;p style=&quot;padding: 0px; margin: 0px; background-color: rgb(38, 38, 38);&quot;&gt;&lt;font color=&quot;#00cccc&quot; face=&quot;-apple-system, system-ui, BlinkMacSystemFont, Segoe UI, Roboto, Oxygen-Sans, Ubuntu, Cantarell, Helvetica Neue, sans-serif&quot;&gt;&lt;span style=&quot;font-size: 18px;&quot;&gt;&amp;nbsp; &amp;nbsp; const struct argp_child *children;&amp;nbsp; &amp;nbsp;/* 子命令 */&lt;/span&gt;&lt;/font&gt;&lt;/p&gt;&lt;p style=&quot;padding: 0px; margin: 0px; background-color: rgb(38, 38, 38);&quot;&gt;&lt;font color=&quot;#00cccc&quot; face=&quot;-apple-system, system-ui, BlinkMacSystemFont, Segoe UI, Roboto, Oxygen-Sans, Ubuntu, Cantarell, Helvetica Neue, sans-serif&quot;&gt;&lt;span style=&quot;font-size: 18px;&quot;&gt;&amp;nbsp; &amp;nbsp; int flags;&amp;nbsp; &amp;nbsp; &amp;nbsp; &amp;nbsp; &amp;nbsp; &amp;nbsp; &amp;nbsp; &amp;nbsp; &amp;nbsp; &amp;nbsp; &amp;nbsp; &amp;nbsp; &amp;nbsp; &amp;nbsp;/* 标志位 */&lt;/span&gt;&lt;/font&gt;&lt;/p&gt;&lt;p style=&quot;padding: 0px; margin: 0px; background-color: rgb(38, 38, 38);&quot;&gt;&lt;font color=&quot;#00cccc&quot; face=&quot;-apple-system, system-ui, BlinkMacSystemFont, Segoe UI, Roboto, Oxygen-Sans, Ubuntu, Cantarell, Helvetica Neue, sans-serif&quot;&gt;&lt;span style=&quot;font-size: 18px;&quot;&gt;&amp;nbsp; &amp;nbsp; void *input;&amp;nbsp; &amp;nbsp; &amp;nbsp; &amp;nbsp; &amp;nbsp; &amp;nbsp; &amp;nbsp; &amp;nbsp; &amp;nbsp; &amp;nbsp; &amp;nbsp; &amp;nbsp; &amp;nbsp;/* 指向自定义数据的指针 */&lt;/span&gt;&lt;/font&gt;&lt;/p&gt;&lt;p style=&quot;padding: 0px; margin: 0px; background-color: rgb(38, 38, 38);&quot;&gt;&lt;font face=&quot;-apple-system, system-ui, BlinkMacSystemFont, Segoe UI, Roboto, Oxygen-Sans, Ubuntu, Cantarell, Helvetica Neue, sans-serif&quot; color=&quot;#f1f2f2&quot;&gt;&lt;span style=&quot;font-size: 18px;&quot;&gt;&amp;nbsp; &amp;nbsp; struct argp *parent;&amp;nbsp; &amp;nbsp; &amp;nbsp; &amp;nbsp; &amp;nbsp; &amp;nbsp; &amp;nbsp; &amp;nbsp; &amp;nbsp;/* 父命令 */&lt;/span&gt;&lt;/font&gt;&lt;/p&gt;&lt;p style=&quot;padding: 0px; margin: 0px; background-color: rgb(38, 38, 38);&quot;&gt;&lt;font face=&quot;-apple-system, system-ui, BlinkMacSystemFont, Segoe UI, Roboto, Oxygen-Sans, Ubuntu, Cantarell, Helvetica Neue, sans-serif&quot; color=&quot;#f1f2f2&quot;&gt;&lt;span style=&quot;font-size: 18px;&quot;&gt;&amp;nbsp; &amp;nbsp; int argc;&amp;nbsp; &amp;nbsp; &amp;nbsp; &amp;nbsp; &amp;nbsp; &amp;nbsp; &amp;nbsp; &amp;nbsp; &amp;nbsp; &amp;nbsp; &amp;nbsp; &amp;nbsp; &amp;nbsp; &amp;nbsp; /* 命令行参数个数 */&lt;/span&gt;&lt;/font&gt;&lt;/p&gt;&lt;p style=&quot;padding: 0px; margin: 0px; background-color: rgb(38, 38, 38);&quot;&gt;&lt;font face=&quot;-apple-system, system-ui, BlinkMacSystemFont, Segoe UI, Roboto, Oxygen-Sans, Ubuntu, Cantarell, Helvetica Neue, sans-serif&quot; color=&quot;#f1f2f2&quot;&gt;&lt;span style=&quot;font-size: 18px;&quot;&gt;&amp;nbsp; &amp;nbsp; char **argv;&amp;nbsp; &amp;nbsp; &amp;nbsp; &amp;nbsp; &amp;nbsp; &amp;nbsp; &amp;nbsp; &amp;nbsp; &amp;nbsp; &amp;nbsp; &amp;nbsp; &amp;nbsp; &amp;nbsp;/* 命令行参数的字符串数组 */&lt;/span&gt;&lt;/font&gt;&lt;/p&gt;&lt;p style=&quot;padding: 0px; margin: 0px; background-color: rgb(38, 38, 38);&quot;&gt;&lt;font face=&quot;-apple-system, system-ui, BlinkMacSystemFont, Segoe UI, Roboto, Oxygen-Sans, Ubuntu, Cantarell, Helvetica Neue, sans-serif&quot; color=&quot;#f1f2f2&quot;&gt;&lt;span style=&quot;font-size: 18px;&quot;&gt;};&lt;/span&gt;&lt;/font&gt;&lt;/p&gt;&lt;/div&gt;&lt;/div&gt;" style="shape=note;whiteSpace=wrap;html=1;backgroundOutline=1;darkOpacity=0.05;" vertex="1" parent="WIyWlLk6GJQsqaUBKTNV-1">
          <mxGeometry x="1406.81" y="2743" width="680" height="343" as="geometry" />
        </mxCell>
        <mxCell id="OdRXh-BIDO6TWCTbir-k-73" value="&lt;div style=&quot;text-align: left;&quot;&gt;&lt;div style=&quot;background-color: rgb(30, 30, 30); line-height: 23px;&quot;&gt;&lt;p style=&quot;color: rgb(241, 242, 242); font-family: -apple-system, system-ui, BlinkMacSystemFont, &amp;quot;Segoe UI&amp;quot;, Roboto, Oxygen-Sans, Ubuntu, Cantarell, &amp;quot;Helvetica Neue&amp;quot;, sans-serif; font-size: 18px; padding: 0px; margin: 0px; background-color: rgb(38, 38, 38);&quot;&gt;这个结构体将在main 函数中被调用，例如，下面代码最后一行中的`&amp;amp;argp`：&lt;/p&gt;&lt;div style=&quot;font-family: Consolas, &amp;quot;Courier New&amp;quot;, monospace; font-size: 17px; line-height: 23px;&quot;&gt;&lt;div style=&quot;color: rgb(212, 212, 212);&quot;&gt;&lt;div style=&quot;line-height: 23px;&quot;&gt;#include&lt;span style=&quot;color: #569cd6;&quot;&gt; &lt;/span&gt;&lt;span style=&quot;color: #ce9178;&quot;&gt;&quot;ed_args.h&quot;&lt;/span&gt;&lt;/div&gt;&lt;/div&gt;&lt;div style=&quot;color: rgb(212, 212, 212);&quot;&gt;int &lt;span style=&quot;color: #dcdcaa;&quot;&gt;main&lt;/span&gt;(&lt;span style=&quot;color: #569cd6;&quot;&gt;int&lt;/span&gt; &lt;span style=&quot;color: #9cdcfe;&quot;&gt;argc&lt;/span&gt;, &lt;span style=&quot;color: #569cd6;&quot;&gt;char**&lt;/span&gt; &lt;span style=&quot;color: #9cdcfe;&quot;&gt;argv&lt;/span&gt;)&lt;/div&gt;&lt;div style=&quot;color: rgb(212, 212, 212);&quot;&gt;{&lt;/div&gt;&lt;div style=&quot;color: rgb(212, 212, 212);&quot;&gt;&lt;span style=&quot;color: #6a9955;&quot;&gt;&amp;nbsp; &amp;nbsp; /* storage and defaults for command line arguments */&lt;/span&gt;&lt;/div&gt;&lt;div style=&quot;color: rgb(212, 212, 212);&quot;&gt;&amp;nbsp; &amp;nbsp; &lt;span style=&quot;color: #569cd6;&quot;&gt;struct&lt;/span&gt; &lt;span style=&quot;color: #4ec9b0;&quot;&gt;arguments&lt;/span&gt; &lt;span style=&quot;color: #9cdcfe;&quot;&gt;args&lt;/span&gt;;&lt;/div&gt;&lt;div style=&quot;color: rgb(212, 212, 212);&quot;&gt;&amp;nbsp; &amp;nbsp; &amp;nbsp; &amp;nbsp; &lt;span style=&quot;color: #9cdcfe;&quot;&gt;args&lt;/span&gt;.&lt;span style=&quot;color: #9cdcfe;&quot;&gt;inFile&lt;/span&gt; = DEFAULT_INFILE;&lt;/div&gt;&lt;div style=&quot;color: rgb(212, 212, 212);&quot;&gt;&amp;nbsp; &amp;nbsp; &amp;nbsp; &amp;nbsp; &lt;span style=&quot;color: #9cdcfe;&quot;&gt;args&lt;/span&gt;.&lt;span style=&quot;color: #9cdcfe;&quot;&gt;outFile&lt;/span&gt; = DEFAULT_OUTFILE; &lt;/div&gt;&lt;div style=&quot;color: rgb(212, 212, 212);&quot;&gt;&amp;nbsp; &amp;nbsp; &amp;nbsp; &amp;nbsp; &lt;span style=&quot;color: #9cdcfe;&quot;&gt;args&lt;/span&gt;.&lt;span style=&quot;color: #9cdcfe;&quot;&gt;serial&lt;/span&gt; = &lt;span style=&quot;color: #569cd6;&quot;&gt;false&lt;/span&gt;;&lt;/div&gt;&lt;br&gt;&lt;div style=&quot;color: rgb(212, 212, 212);&quot;&gt;&lt;span style=&quot;color: #6a9955;&quot;&gt;&amp;nbsp; &amp;nbsp; /* parse cmd line args */&lt;/span&gt;&lt;/div&gt;&lt;div style=&quot;&quot;&gt;&lt;font color=&quot;#d4d4d4&quot;&gt;&amp;nbsp; &amp;nbsp; &lt;/font&gt;&lt;span style=&quot;color: rgb(86, 156, 214);&quot;&gt;int&lt;/span&gt;&lt;font color=&quot;#d4d4d4&quot;&gt; rc = &lt;/font&gt;&lt;span style=&quot;color: rgb(220, 220, 170);&quot;&gt;argp_parse&lt;/span&gt;&lt;font color=&quot;#d4d4d4&quot;&gt;(&lt;/font&gt;&lt;font color=&quot;#ff3333&quot;&gt;&amp;amp;argp&lt;/font&gt;&lt;font color=&quot;#d4d4d4&quot;&gt;, argc, argv, &lt;/font&gt;&lt;span style=&quot;color: rgb(181, 206, 168);&quot;&gt;0&lt;/span&gt;&lt;font color=&quot;#d4d4d4&quot;&gt;, &lt;/font&gt;&lt;span style=&quot;color: rgb(181, 206, 168);&quot;&gt;0&lt;/span&gt;&lt;font color=&quot;#d4d4d4&quot;&gt;, &lt;/font&gt;&lt;font color=&quot;#ff3333&quot;&gt;&amp;amp;args&lt;/font&gt;&lt;font color=&quot;#d4d4d4&quot;&gt;);&lt;/font&gt;&lt;/div&gt;&lt;/div&gt;&lt;/div&gt;&lt;/div&gt;" style="shape=note;whiteSpace=wrap;html=1;backgroundOutline=1;darkOpacity=0.05;" vertex="1" parent="WIyWlLk6GJQsqaUBKTNV-1">
          <mxGeometry x="2166.81" y="2743" width="680" height="343" as="geometry" />
        </mxCell>
        <mxCell id="OdRXh-BIDO6TWCTbir-k-78" style="edgeStyle=orthogonalEdgeStyle;rounded=0;orthogonalLoop=1;jettySize=auto;html=1;exitX=1;exitY=0.5;exitDx=0;exitDy=0;fontFamily=Helvetica;fontSize=12;fontColor=default;" edge="1" parent="WIyWlLk6GJQsqaUBKTNV-1" source="OdRXh-BIDO6TWCTbir-k-75">
          <mxGeometry relative="1" as="geometry">
            <mxPoint x="906.81" y="3264.9411764705883" as="targetPoint" />
          </mxGeometry>
        </mxCell>
        <mxCell id="OdRXh-BIDO6TWCTbir-k-75" value="&lt;div style=&quot;background-color: rgb(30, 30, 30); font-family: Consolas, &amp;quot;Courier New&amp;quot;, monospace; font-size: 17px; line-height: 23px; color: rgb(212, 212, 212);&quot;&gt;&lt;div style=&quot;line-height: 23px;&quot;&gt;&lt;div style=&quot;line-height: 23px;&quot;&gt;&lt;div style=&quot;line-height: 23px;&quot;&gt;#endif&lt;span style=&quot;color: #6a9955;&quot;&gt; // _ED_ARGS_H_&lt;/span&gt;&lt;/div&gt;&lt;/div&gt;&lt;/div&gt;&lt;/div&gt;" style="whiteSpace=wrap;html=1;align=left;rounded=1;glass=0;strokeWidth=1;shadow=0;" vertex="1" parent="WIyWlLk6GJQsqaUBKTNV-1">
          <mxGeometry x="124.94999999999982" y="3198.5" width="685.75" height="134" as="geometry" />
        </mxCell>
        <mxCell id="OdRXh-BIDO6TWCTbir-k-77" value="&lt;div style=&quot;text-align: left; font-size: 15px;&quot;&gt;&lt;div style=&quot;color: rgb(212, 212, 212); background-color: rgb(30, 30, 30); font-family: Consolas, &amp;quot;Courier New&amp;quot;, monospace; line-height: 23px;&quot;&gt;结束头文件定义&lt;/div&gt;&lt;/div&gt;" style="shape=note;whiteSpace=wrap;html=1;backgroundOutline=1;darkOpacity=0.05;" vertex="1" parent="WIyWlLk6GJQsqaUBKTNV-1">
          <mxGeometry x="911.2199999999998" y="3233.25" width="251.19" height="64.5" as="geometry" />
        </mxCell>
      </root>
    </mxGraphModel>
  </diagram>
</mxfile>
